<?xml version="1.0" encoding="UTF-8"?>
<svg xmlns="http://www.w3.org/2000/svg" xmlns:xlink="http://www.w3.org/1999/xlink" viewBox="0 0 408.24 341.4">
  <defs>
    <style>
      .cls-1 {
        fill: #fc1515;
      }

      .cls-2, .cls-3, .cls-4, .cls-5 {
        fill: #fff;
      }

      .cls-6 {
        fill: url(#linear-gradient-2);
        opacity: .9;
      }

      .cls-7, .cls-8 {
        opacity: .51;
      }

      .cls-3 {
        opacity: .39;
      }

      .cls-9, .cls-8 {
        stroke: #000;
        stroke-miterlimit: 10;
      }

      .cls-10 {
        fill: url(#New_Gradient_Swatch);
      }

      .cls-11 {
        filter: url(#drop-shadow-4);
      }

      .cls-12 {
        fill: url(#linear-gradient-6);
      }

      .cls-13 {
        fill: url(#linear-gradient-3);
        opacity: .95;
      }

      .cls-14 {
        isolation: isolate;
      }

      .cls-4 {
        opacity: .49;
      }

      .cls-15 {
        opacity: .65;
      }

      .cls-5 {
        filter: url(#drop-shadow-3);
      }

      .cls-16 {
        filter: url(#outer-glow-1);
      }

      .cls-17 {
        fill: url(#linear-gradient);
        opacity: .85;
      }

      .cls-18 {
        fill: url(#linear-gradient-5);
        mix-blend-mode: multiply;
      }

      .cls-8 {
        stroke-linecap: round;
      }

      .cls-8, .cls-19 {
        fill: none;
      }

      .cls-20 {
        filter: url(#drop-shadow-2);
      }

      .cls-21 {
        clip-path: url(#clippath);
      }

      .cls-22 {
        fill: #00267c;
      }

      .cls-23 {
        fill: url(#linear-gradient-7);
      }

      .cls-24 {
        fill: url(#linear-gradient-4);
      }
    </style>
    <filter id="outer-glow-1" filterUnits="userSpaceOnUse">
      <feOffset dx="0" dy="0"/>
      <feGaussianBlur result="blur" stdDeviation="5"/>
      <feFlood flood-color="#fff" flood-opacity="1"/>
      <feComposite in2="blur" operator="in"/>
      <feComposite in="SourceGraphic"/>
    </filter>
    <clipPath id="clippath">
      <rect class="cls-19" x="71.26" y="39.64" width="262.3" height="275.53"/>
    </clipPath>
    <linearGradient id="linear-gradient" x1="-64.94" y1="-111.1" x2="-64.94" y2="-111.1" gradientUnits="userSpaceOnUse">
      <stop offset="0" stop-color="#0071bc" stop-opacity=".8"/>
      <stop offset=".04" stop-color="#1f6ea8" stop-opacity=".81"/>
      <stop offset=".13" stop-color="#6f6675" stop-opacity=".85"/>
      <stop offset=".27" stop-color="#ee5a25" stop-opacity=".9"/>
      <stop offset=".27" stop-color="#f15a24" stop-opacity=".9"/>
      <stop offset=".32" stop-color="#c35039" stop-opacity=".92"/>
      <stop offset=".37" stop-color="#9b484c" stop-opacity=".94"/>
      <stop offset=".43" stop-color="#79405d" stop-opacity=".96"/>
      <stop offset=".5" stop-color="#5d3b6a" stop-opacity=".97"/>
      <stop offset=".57" stop-color="#483674" stop-opacity=".99"/>
      <stop offset=".66" stop-color="#39337b" stop-opacity=".99"/>
      <stop offset=".77" stop-color="#30317f" stop-opacity="1"/>
      <stop offset="1" stop-color="#2e3181"/>
    </linearGradient>
    <linearGradient id="linear-gradient-2" x1="-64.94" y1="-111.1" x2="-64.94" y2="-111.1" gradientTransform="translate(478.54 261.01) rotate(176)" gradientUnits="userSpaceOnUse">
      <stop offset="0" stop-color="#0071bc" stop-opacity=".8"/>
      <stop offset=".04" stop-color="#1f6ea8" stop-opacity=".81"/>
      <stop offset=".13" stop-color="#6f6675" stop-opacity=".85"/>
      <stop offset=".27" stop-color="#ee5a25" stop-opacity=".9"/>
      <stop offset=".27" stop-color="#f15a24" stop-opacity=".9"/>
      <stop offset=".32" stop-color="#c85137" stop-opacity=".92"/>
      <stop offset=".38" stop-color="#9f484b" stop-opacity=".94"/>
      <stop offset=".44" stop-color="#7b415b" stop-opacity=".96"/>
      <stop offset=".51" stop-color="#5f3b69" stop-opacity=".97"/>
      <stop offset=".59" stop-color="#493673" stop-opacity=".99"/>
      <stop offset=".68" stop-color="#39337b" stop-opacity=".99"/>
      <stop offset=".79" stop-color="#30317f" stop-opacity="1"/>
      <stop offset="1" stop-color="#2e3181"/>
    </linearGradient>
    <linearGradient id="linear-gradient-3" x1="-64.94" y1="-111.1" x2="-64.94" y2="-111.1" gradientTransform="translate(450.06 313.3) rotate(-169.59) scale(.88 .91)" gradientUnits="userSpaceOnUse">
      <stop offset="0" stop-color="#0071bc" stop-opacity=".8"/>
      <stop offset=".04" stop-color="#1f6ea8" stop-opacity=".81"/>
      <stop offset=".13" stop-color="#6f6675" stop-opacity=".85"/>
      <stop offset=".27" stop-color="#ee5a25" stop-opacity=".9"/>
      <stop offset=".27" stop-color="#f15a24" stop-opacity=".9"/>
      <stop offset=".32" stop-color="#c35039" stop-opacity=".92"/>
      <stop offset=".37" stop-color="#9b484c" stop-opacity=".94"/>
      <stop offset=".43" stop-color="#79405d" stop-opacity=".96"/>
      <stop offset=".5" stop-color="#5d3b6a" stop-opacity=".97"/>
      <stop offset=".57" stop-color="#483674" stop-opacity=".99"/>
      <stop offset=".66" stop-color="#39337b" stop-opacity=".99"/>
      <stop offset=".77" stop-color="#30317f" stop-opacity="1"/>
      <stop offset="1" stop-color="#2e3181"/>
    </linearGradient>
    <filter id="drop-shadow-2" filterUnits="userSpaceOnUse">
      <feOffset dx="5" dy="5"/>
      <feGaussianBlur result="blur-2" stdDeviation="5"/>
      <feFlood flood-color="#000" flood-opacity=".5"/>
      <feComposite in2="blur-2" operator="in"/>
      <feComposite in="SourceGraphic"/>
    </filter>
    <linearGradient id="New_Gradient_Swatch" data-name="New Gradient Swatch" x1="266.23" y1="391.2" x2="208.63" y2="490.97" gradientTransform="translate(282.2 -374.43) rotate(39.82)" gradientUnits="userSpaceOnUse">
      <stop offset="0" stop-color="#f7931e"/>
      <stop offset="1" stop-color="#f15a24"/>
    </linearGradient>
    <linearGradient id="linear-gradient-4" x1="112.17" y1="595.8" x2="112.17" y2="536.75" gradientTransform="translate(341.98 -414.19) rotate(32.63)" gradientUnits="userSpaceOnUse">
      <stop offset="0" stop-color="#f7931e"/>
      <stop offset="1" stop-color="#f15a24"/>
    </linearGradient>
    <linearGradient id="linear-gradient-5" x1="112.53" y1="566.19" x2="60.21" y2="565.55" gradientTransform="translate(341.98 -414.19) rotate(32.63)" gradientUnits="userSpaceOnUse">
      <stop offset="0" stop-color="#fff" stop-opacity="0"/>
      <stop offset=".02" stop-color="#fff5f5" stop-opacity=".04"/>
      <stop offset=".11" stop-color="#ffbcbc" stop-opacity=".26"/>
      <stop offset=".22" stop-color="#ff8a8a" stop-opacity=".46"/>
      <stop offset=".32" stop-color="#ff5f5f" stop-opacity=".62"/>
      <stop offset=".42" stop-color="#ff3d3d" stop-opacity=".76"/>
      <stop offset=".53" stop-color="#f22" stop-opacity=".87"/>
      <stop offset=".63" stop-color="#ff0f0f" stop-opacity=".94"/>
      <stop offset=".74" stop-color="#ff0303" stop-opacity=".99"/>
      <stop offset=".85" stop-color="red"/>
    </linearGradient>
    <linearGradient id="linear-gradient-6" x1="-64.94" y1="-111.1" x2="-64.94" y2="-111.1" gradientUnits="userSpaceOnUse">
      <stop offset="0" stop-color="#0071bc" stop-opacity=".8"/>
      <stop offset=".22" stop-color="#f15a24" stop-opacity=".9"/>
      <stop offset=".22" stop-color="#ef5924" stop-opacity=".9"/>
      <stop offset=".28" stop-color="#c1503a" stop-opacity=".93"/>
      <stop offset=".33" stop-color="#9a474d" stop-opacity=".95"/>
      <stop offset=".4" stop-color="#78405d" stop-opacity=".96"/>
      <stop offset=".47" stop-color="#5d3a6a" stop-opacity=".98"/>
      <stop offset=".55" stop-color="#483674" stop-opacity=".99"/>
      <stop offset=".64" stop-color="#39337b" stop-opacity=".99"/>
      <stop offset=".76" stop-color="#30317f" stop-opacity="1"/>
      <stop offset="1" stop-color="#2e3181"/>
    </linearGradient>
    <filter id="drop-shadow-3" filterUnits="userSpaceOnUse">
      <feOffset dx="4" dy="4"/>
      <feGaussianBlur result="blur-3" stdDeviation="5"/>
      <feFlood flood-color="#000" flood-opacity=".5"/>
      <feComposite in2="blur-3" operator="in"/>
      <feComposite in="SourceGraphic"/>
    </filter>
    <linearGradient id="linear-gradient-7" x1="113.44" y1="20.05" x2="277.76" y2="311.83" gradientUnits="userSpaceOnUse">
      <stop offset="0" stop-color="#f7bb48"/>
      <stop offset=".39" stop-color="#f7931e"/>
      <stop offset="1" stop-color="#f15a24"/>
    </linearGradient>
    <filter id="drop-shadow-4" filterUnits="userSpaceOnUse">
      <feOffset dx="2" dy="2"/>
      <feGaussianBlur result="blur-4" stdDeviation="1"/>
      <feFlood flood-color="#000" flood-opacity=".5"/>
      <feComposite in2="blur-4" operator="in"/>
      <feComposite in="SourceGraphic"/>
    </filter>
  </defs>
  <g class="cls-14">
    <g id="Layer_2" data-name="Layer 2">
      <g id="UI_elements" data-name="UI elements">
        <ellipse class="cls-4" cx="335.14" cy="79.88" rx="8.69" ry="4.49"/>
      </g>
      <g id="Layer_7" data-name="Layer 7">
        <g class="cls-16">
          <g class="cls-21">
            <path class="cls-17" d="m391.92,74.34c2.45-2.33,4.21-5.39,4.86-8.94,1.68-9.13-4.59-17.94-14-19.66-4.05-.74-8.01-.05-11.35,1.7-3.47-7.8-10.73-13.85-19.94-15.54-7.54-1.38-14.9.43-20.62,4.46-4.95-7.63-13.03-13.34-22.84-15.14-8.31-1.53-16.44,0-23.2,3.78-5.29-2.68-11.06-4.67-17.21-5.8-2.07-.38-4.13-.65-6.18-.83-5.44-4.62-12.17-7.94-19.76-9.34-4.18-.77-8.33-.9-12.33-.46-5.18-3.83-11.32-6.58-18.12-7.83-23.28-4.28-45.51,10.57-49.66,33.16-.21,1.14-.36,2.28-.48,3.42-1.64-.27-3.28-.47-4.91-.61-5.44-4.62-12.17-7.94-19.76-9.34-4.18-.77-8.33-.9-12.33-.46-5.18-3.83-11.32-6.58-18.12-7.83-22.18-4.07-43.39,9.22-48.94,30.02-.21-.04-.42-.1-.64-.14-23.28-4.28-45.51,10.57-49.66,33.16-2.5,13.6,2.14,26.91,11.3,36.28-.11-.03-.22-.06-.34-.08-3.96-.73-7.75,1.8-8.45,5.64-.25,1.34-.08,2.66.4,3.85-4.13,5.12-7.08,11.27-8.34,18.14-2.5,13.6,2.14,26.91,11.3,36.28-.11-.03-.22-.06-.34-.08-3.96-.73-7.75,1.8-8.45,5.64-.39,2.14.25,4.24,1.58,5.8-2.36,3.55-4.05,7.61-4.86,12.04-2.61,14.23,4.55,28.04,16.81,34.91-.08.32-.17.64-.23.97-1.75,9.52,4.71,18.69,14.46,20.63,4.15,4.71,9.91,8.13,16.64,9.37,13.42,2.46,26.31-4.56,31.43-16.2,3.33,6.75,9.77,11.96,17.85,13.55,1.65,1.21,3.47,2.23,5.41,3.05,2.76,7.03,9.12,12.57,17.27,14.07,12.38,2.27,24.21-5.62,26.41-17.64.9-4.91,10.92,1.79,8.76-2.37.45.11.91.2,1.37.29.48.09.97.16,1.45.23,2.49,4.6,7.01,8.13,12.63,9.25,2.85,3.23,6.46,5.86,10.62,7.59,2.87,3.91,7.23,6.8,12.45,7.76,10.65,1.96,20.82-4.84,22.72-15.17.2-1.11.29-2.22.29-3.31.75-1.17,1.42-2.4,1.99-3.7,3.33,6.75,9.77,11.96,17.85,13.55,1.65,1.21,3.47,2.23,5.41,3.05,2.76,7.03,9.12,12.57,17.27,14.07,12.38,2.27,24.21-5.62,26.41-17.64.9-4.91,10.92,1.79,8.76-2.37.45.11.91.2,1.37.29,6.97,1.28,13.79-.09,19.38-3.36,1.08.58,2.18,1.12,3.3,1.62-.61,1.35-1.09,2.79-1.37,4.31-1.9,10.33,5.19,20.3,15.84,22.25s20.82-4.84,22.72-15.17c.62-3.37.27-6.69-.84-9.72,15.85-5.4,28.3-18.68,31.47-35.93,3.08-16.77-3.36-33.14-15.56-43.85,2.45-2.33,4.21-5.39,4.86-8.94,1.12-6.09-1.3-12.03-5.82-15.83,3.52-2.74,6.08-6.69,6.94-11.36.62-3.37.27-6.69-.84-9.72,15.85-5.4,28.3-18.68,31.47-35.93,3.08-16.77-3.36-33.14-15.56-43.85Zm-55.57,76.49c1.08.58,2.18,1.12,3.3,1.62-.61,1.35-1.09,2.79-1.37,4.31-.2,1.12-.3,2.23-.3,3.32-2.32-1.18-4.85-2.06-7.55-2.56-1.94-.36-3.86-.5-5.75-.45-.78-.83-1.59-1.63-2.43-2.41,5.08-.02,9.93-1.39,14.1-3.83Zm-18.24-67.53c.21-.11.42-.21.62-.32-.24.36-.47.72-.7,1.09.02-.26.06-.51.08-.77Zm-216.66,179.16c-.01.14-.01.28-.02.42-.12-.27-.13-.43.02-.42Zm139.21,13.58c-.01.14-.01.28-.02.42-.12-.27-.13-.43.02-.42Z"/>
            <path class="cls-6" d="m51.16,234.99c-2.02,2.21-3.38,5.02-3.74,8.19-.92,8.17,5.16,15.55,13.58,16.5,3.62.41,7.08-.45,9.92-2.2,3.54,6.67,10.33,11.57,18.57,12.49,6.74.76,13.13-1.3,17.93-5.21,4.84,6.44,12.33,10.97,21.1,11.96,7.43.83,14.52-1.02,20.25-4.77,4.84,2.04,10.05,3.44,15.56,4.06,1.85.21,3.69.32,5.51.35,5.09,3.74,11.24,6.26,18.03,7.02,3.74.42,7.41.28,10.92-.36,4.81,3.06,10.4,5.11,16.49,5.8,20.82,2.34,39.53-12.14,41.8-32.35.11-1.02.18-2.04.21-3.05,1.47.13,2.93.21,4.37.23,5.09,3.74,11.24,6.26,18.03,7.02,3.74.42,7.41.28,10.92-.36,4.81,3.06,10.4,5.11,16.49,5.8,19.83,2.23,37.75-10.82,41.36-29.53.19.02.38.06.57.08,20.82,2.34,39.53-12.14,41.8-32.35,1.37-12.17-3.55-23.63-12.22-31.34.1.02.2.04.3.05,3.54.4,6.73-2.07,7.12-5.51.13-1.2-.09-2.36-.59-3.37,3.33-4.78,5.55-10.39,6.24-16.54,1.37-12.17-3.55-23.63-12.22-31.34.1.02.2.04.3.05,3.54.4,6.73-2.07,7.12-5.51.22-1.91-.48-3.73-1.76-5.03,1.86-3.28,3.1-6.97,3.55-10.93,1.43-12.72-5.75-24.48-17-29.79.05-.29.11-.57.14-.87.96-8.52-5.32-16.22-14.04-17.33-3.96-3.9-9.25-6.57-15.28-7.25-12-1.35-22.95,5.65-26.75,16.25-3.36-5.76-9.36-9.96-16.6-10.86-1.54-.96-3.2-1.76-4.97-2.36-2.87-6.04-8.83-10.54-16.12-11.35-11.07-1.24-21.03,6.46-22.24,17.21-.49,4.39-9.75-.91-7.59,2.63-.4-.07-.81-.12-1.22-.17-.43-.05-.86-.08-1.29-.11-2.48-3.91-6.7-6.74-11.73-7.39-2.72-2.68-6.06-4.77-9.84-6.04-2.78-3.28-6.81-5.56-11.48-6.08-9.52-1.07-18.08,5.56-19.12,14.8-.11.99-.12,1.98-.06,2.94-.59,1.08-1.1,2.21-1.53,3.39-3.36-5.76-9.36-9.96-16.6-10.86-1.54-.96-3.2-1.76-4.97-2.36-2.87-6.04-8.83-10.54-16.12-11.35-11.07-1.24-21.03,6.46-22.24,17.21-.49,4.39-9.75-.91-7.59,2.63-.4-.07-.81-.12-1.22-.17-6.23-.7-12.17.93-16.91,4.16-.99-.44-1.99-.85-3.02-1.22.46-1.23.79-2.53.95-3.89,1.04-9.24-5.84-17.6-15.36-18.67s-18.08,5.56-19.12,14.8c-.34,3.01.18,5.93,1.34,8.53-13.66,5.75-23.84,18.24-25.57,33.67-1.68,15,5.01,29.06,16.45,37.76-2.02,2.21-3.38,5.02-3.74,8.19-.61,5.45,1.89,10.54,6.12,13.62-2.94,2.64-4.95,6.28-5.42,10.46-.34,3.01.18,5.93,1.34,8.53-13.66,5.75-23.84,18.24-25.57,33.67-1.68,15,5.01,29.06,16.45,37.76Zm44.34-70.98c-.99-.44-1.99-.85-3.02-1.22.46-1.23.79-2.53.95-3.89.11-1,.13-1.98.06-2.95,2.12.9,4.41,1.52,6.82,1.79,1.73.19,3.44.2,5.11.04.74.68,1.5,1.34,2.29,1.98-4.49.33-8.68,1.84-12.21,4.26Zm20.28,58.51c-.18.11-.36.21-.53.32.19-.33.37-.67.55-1,0,.23-.02.46-.02.68ZM296.04,50.93c0-.13,0-.25,0-.38.12.23.14.37,0,.38Zm-123.77-3.4c0-.13,0-.25,0-.38.12.23.14.37,0,.38Z"/>
            <path class="cls-13" d="m85.08,116.08c-.12-.03-.24-.06-.37-.09-4.33-.8-8.47,1.97-9.24,6.17-.43,2.34.28,4.63,1.73,6.35-2.58,3.88-4.43,8.32-5.32,13.16-2.86,15.56,4.97,30.67,18.39,38.18-.09.35-.19.7-.25,1.06-1.91,10.41,5.15,20.44,15.81,22.57,4.54,5.15,10.84,8.89,18.2,10.25,14.67,2.7,28.77-4.98,34.37-17.72,3.64,7.38,10.68,13.08,19.52,14.82,3.47,2.53,7.56,4.35,12.09,5.18,1.38.25-9.13-12.22-7.76-12.16-.87,12.17,7.83,23.38,20.47,25.7,13.54,2.49,26.47-6.15,28.89-19.29.99-5.37,11.94,1.96,9.58-2.59.49.12.99.22,1.49.31,7.62,1.4,15.08-.09,21.19-3.67,1.18.63,2.38,1.22,3.61,1.77-.67,1.48-1.19,3.05-1.5,4.71-2.08,11.3,5.68,22.2,17.32,24.33,11.64,2.14,22.77-5.29,24.84-16.59.68-3.68.29-7.32-.91-10.63,17.33-5.91,30.95-20.42,34.41-39.3,3.37-18.34-3.67-36.24-17.01-47.96,2.68-2.55,4.6-5.9,5.32-9.77,1.83-9.99-5.02-19.61-15.31-21.51-4.42-.81-8.76-.05-12.41,1.86-3.79-8.53-11.74-15.15-21.81-17-8.24-1.51-16.29.47-22.55,4.87-5.42-8.35-14.25-14.58-24.98-16.56-9.09-1.67-17.98,0-25.37,4.13-5.79-2.93-12.1-5.11-18.82-6.34-2.26-.42-4.52-.71-6.76-.9-5.95-5.05-13.31-8.69-21.61-10.21-4.57-.84-9.11-.98-13.49-.5-5.67-4.19-12.38-7.2-19.82-8.57-25.45-4.68-49.77,11.56-54.31,36.26-2.73,14.88,2.34,29.43,12.36,39.67Zm158.76,15.21c.03-.28.06-.56.09-.84.23-.12.46-.23.68-.35-.26.39-.52.79-.77,1.19Z"/>
            <g id="Main" class="cls-20">
              <path class="cls-10" d="m211.38,152.58s-87.01,21.48-106.08-85.86l13.08,2.77-4.08-13.8s31.77-7.84,61.12,9.63c19.22,11.45,37.41,33.75,44.96,76.23l34.18,5.12-34.46,41.32-8.72-35.42Z"/>
              <g>
                <polygon class="cls-9" points="195.67 115.74 182.61 116.45 181.83 129.22 169.63 132.02 170.72 143.17 157.39 146.69 152.34 144.04 165.74 139.79 164.92 128.32 177.47 125.11 178.61 111.9 191.98 110.82 190.05 98.18 205.64 97.56 208.39 102.98 193.47 103.43 195.67 115.74"/>
                <polygon class="cls-9" points="197.7 85.28 181.42 86.72 182.9 99.91 169.03 101.59 167.31 115.48 154.21 119.36 154.59 131.37 140.38 135.94 136.55 132.43 150.36 127.45 150.66 116.14 162.16 111.7 164.51 97.04 178.66 96.89 177.59 81.97 195.83 83.15 197.7 85.28"/>
              </g>
              <g>
                <path class="cls-9" d="m214.04,162.24l8.02.46-1.53-5.54,6.1-.31-.7-6.17,6.73.78-2.21-6.2,7.75-.78-.06-.02c-.09-.09-.21-.15-.34-.18l-8.9-.49,2.21,6.2-6.73-.78.7,6.17-6.1.31,1.53,5.54-6.61.55.14.46Z"/>
                <path class="cls-9" d="m248.84,146.06l-9.28,1.49c-.14,0-.25.13-.23.28l1.02,7.02c.02.14-.08.26-.22.28l-7.51.66c-.12.01-.21.1-.22.22l-.7,7.51c0,.1-.08.19-.18.21l-7.13,1.87c-.11.03-.19.13-.18.25l.42,6.46c0,.11-.06.21-.17.25l-7.27,2.35c-.2.07-.23.34-.04.44l.44,1.31c.05.03,1.88-.44,1.94-.46l7.86-1.65c.11-.03.19-.14.18-.26l-.57-6.24c-.01-.12.07-.23.19-.26l6.9-1.63c.1-.02.18-.11.19-.22l.49-7.24c0-.12.11-.22.23-.22l7.3-.45c.14,0,.25-.14.22-.28l-1.17-6.8c-.02-.14.08-.28.23-.28l7.05-3.75c.18,0,1.71-.56,1.64-.71l-.56.05c-.04-.09-.77-.21-.87-.2Z"/>
              </g>
              <circle class="cls-2" cx="143.01" cy="69.24" r="6.78"/>
              <ellipse class="cls-9" cx="143.05" cy="69.14" rx="2.99" ry="3.59" transform="translate(-15.81 71.53) rotate(-26.66)"/>
              <g class="cls-7">
                <path d="m137.21,106.42c-4.84,5.4-8.34,12.2-10.23,19.16-1.69,6.22,7.96,8.87,9.64,2.66,1.07-3.94,2.71-7.54,4.91-10.98,1.17-1.84,1.73-2.63,2.75-3.78,4.28-4.78-2.77-11.88-7.07-7.07h0Z"/>
              </g>
              <path class="cls-24" d="m127.03,95.01s-20.64,15.21,4.38,63.45c0,0-4.42-33.79,11.31-48.74,15.74-14.96-13.45-18.96-15.69-14.71Z"/>
              <path class="cls-18" d="m127.03,95.01s-20.64,15.21,4.38,63.45c0,0-4.42-33.79,11.31-48.74,15.74-14.96-13.45-18.96-15.69-14.71Z"/>
              <g class="cls-15">
                <path class="cls-2" d="m186.4,86.59c7.82,6.86,13.21,16.88,16.55,26.55,2.09,6.05,11.75,3.45,9.64-2.66-3.88-11.23-10.04-22.99-19.13-30.97-4.82-4.23-11.92,2.82-7.07,7.07h0Z"/>
              </g>
              <g class="cls-15">
                <path class="cls-2" d="m204.67,118.88c1.59,4.68,2.51,9.63,3.23,14.5.4,2.67,3.77,4.15,6.15,3.49,2.86-.79,3.89-3.47,3.49-6.15-.73-4.88-1.64-9.82-3.23-14.5-2.06-6.06-11.72-3.46-9.64,2.66h0Z"/>
              </g>
              <line class="cls-8" x1="118.44" y1="70.05" x2="106.02" y2="67.49"/>
            </g>
            <path class="cls-12" d="m305.95,146.86c.11,0,.22.02.33.02,3.79,0,6.86-2.86,6.86-6.4,0-1.97-.95-3.73-2.45-4.9,1.58-3.54,2.45-7.42,2.45-11.49,0-13.07-8.97-24.18-21.48-28.29.02-.3.05-.59.05-.9,0-8.75-7.53-15.85-16.88-15.98-4.64-3.51-10.55-5.61-16.98-5.61-12.83,0-23.56,8.35-26.31,19.53-4.22-5.46-11.07-9.04-18.81-9.13-3.32-1.54-7.07-2.41-11.03-2.41-1.21,0-2.39.08-3.56.24-1.15-10.03-10.25-17.83-21.3-17.83-11.84,0-21.43,8.95-21.43,19.99,0,4.51,1.61,8.68,4.31,12.03-.43-.02-.87-.03-1.31-.03-6.66,0-12.74,2.33-17.35,6.15-1.09-.34-2.2-.64-3.33-.9.34-1.3.54-2.65.54-4.05,0-9.5-8.25-17.19-18.43-17.19s-18.43,7.7-18.43,17.19c0,3.1.89,5.99,2.42,8.5-13.74,7.39-23,21.22-23,37.08s8.74,28.91,21.84,36.44c-1.87,2.47-2.98,5.48-2.98,8.74,0,8.39,7.29,15.19,16.29,15.19,3.87,0,7.42-1.26,10.21-3.36,4.53,6.36,12.28,10.56,21.08,10.56,7.21,0,13.7-2.82,18.31-7.33,5.88,5.98,14.32,9.73,23.7,9.73,7.94,0,15.21-2.69,20.82-7.14,5.35,1.52,11.02,2.35,16.9,2.35,1.98,0,3.93-.09,5.86-.27,5.82,3.22,12.61,5.07,19.86,5.07,4,0,7.85-.56,11.48-1.61,5.44,2.56,11.58,4,18.09,4,22.25,0,40.29-16.83,40.29-37.58,0-12.5-6.55-23.57-16.61-30.4Zm-136.61,11.34c.02.23.03.47.06.7-.17.13-.35.25-.52.38.16-.36.31-.72.47-1.08Z"/>
            <path class="cls-5" d="m290.28,147.34c.09,0,.18.01.28.01,3.21,0,5.81-1.92,5.81-4.29,0-1.32-.81-2.5-2.08-3.29,1.34-2.38,2.08-4.98,2.08-7.72,0-8.78-7.61-16.23-18.21-18.99.02-.2.04-.4.04-.6,0-5.87-6.39-10.64-14.31-10.73-3.93-2.35-8.94-3.77-14.4-3.77-10.88,0-19.98,5.6-22.31,13.11-3.58-3.66-9.38-6.07-15.95-6.13-2.82-1.03-5.99-1.62-9.35-1.62-1.02,0-2.03.06-3.01.16-.98-6.73-8.69-11.97-18.06-11.97-10.04,0-18.17,6.01-18.17,13.42,0,3.03,1.36,5.83,3.66,8.07-.37-.01-.74-.02-1.11-.02-5.65,0-10.8,1.56-14.71,4.13-.93-.23-1.87-.43-2.82-.6.29-.87.46-1.78.46-2.72,0-6.37-7-11.54-15.63-11.54s-15.63,5.17-15.63,11.54c0,2.08.75,4.02,2.06,5.71-11.65,4.96-19.5,14.25-19.5,24.89s7.41,19.41,18.52,24.46c-1.59,1.66-2.52,3.68-2.52,5.87,0,5.63,6.18,10.2,13.81,10.2,3.28,0,6.29-.85,8.66-2.26,3.84,4.27,10.41,7.09,17.87,7.09,6.11,0,11.62-1.89,15.52-4.92,4.98,4.01,12.14,6.53,20.09,6.53,6.73,0,12.89-1.81,17.65-4.8,4.53,1.02,9.35,1.57,14.33,1.57,1.68,0,3.33-.06,4.97-.18,4.93,2.16,10.69,3.4,16.84,3.4,3.39,0,6.66-.38,9.74-1.08,4.61,1.72,9.82,2.69,15.34,2.69,18.87,0,34.16-11.3,34.16-25.23,0-8.39-5.55-15.82-14.09-20.41Zm-115.84,7.61c.02.16.03.31.05.47-.15.09-.3.17-.44.26.14-.24.27-.48.4-.73Z"/>
            <ellipse class="cls-3" cx="256.84" cy="84.43" rx="14.11" ry="5.57"/>
            <ellipse class="cls-3" cx="275.68" cy="39.64" rx="11.51" ry="4.98"/>
            <ellipse class="cls-3" cx="230.35" cy="68.96" rx="4.34" ry="12.31" transform="translate(123.61 284.42) rotate(-80.31)"/>
            <ellipse class="cls-3" cx="281.69" cy="88.41" rx="3.55" ry="8.34" transform="translate(36.23 252.48) rotate(-51.18)"/>
            <ellipse class="cls-3" cx="319.62" cy="99.95" rx="5.13" ry="11.35" transform="translate(41.4 286.33) rotate(-51.18)"/>
            <ellipse class="cls-3" cx="176.19" cy="78.65" rx="11.09" ry="5.74"/>
          </g>
        </g>
        <path class="cls-23" d="m45.33,21.08v312.65c0,4.24,3.44,7.67,7.67,7.67h298.11c4.24,0,7.67-3.44,7.67-7.67V21.08c0-4.24-3.44-7.67-7.67-7.67H53.01c-4.24,0-7.67,3.44-7.67,7.67Zm285.59,299.19H73.2c-4.24,0-7.67-3.44-7.67-7.67V42.21c0-4.24,3.44-7.67,7.67-7.67h257.71c4.24,0,7.67,3.44,7.67,7.67v270.38c0,4.24-3.44,7.67-7.67,7.67Z"/>
        <g class="cls-11">
          <g>
            <path class="cls-22" d="m129.97,126.98c.31.95.46,1.42.77,2.36-3.45,1.13-5.16,1.73-8.57,3-.34.12-.61.31-.82.57-.21.26-.37.55-.47.88-.1.33-.14.68-.13,1.06.02.38.09.75.24,1.12,1.3,3.37,1.94,5.06,3.24,8.43.14.35.32.67.54.97.22.29.48.53.76.72.28.19.59.31.91.37.32.05.64.02.95-.09,1.65-.61,2.48-.91,4.14-1.49-.83-2.39-1.25-3.58-2.08-5.97-1.63.57-2.44.86-4.05,1.46-.34-.92-.51-1.38-.86-2.31,3.38-1.25,5.08-1.84,8.49-2.96,1.39,4.27,2.08,6.4,3.47,10.67-4.09,1.33-6.12,2.05-10.15,3.59-.67.26-1.33.37-1.98.32-.65-.04-1.26-.21-1.83-.51-.57-.29-1.08-.7-1.54-1.22-.46-.52-.84-1.13-1.12-1.83-1.37-3.34-2.05-5.02-3.42-8.36-.29-.71-.45-1.43-.46-2.14s.1-1.38.33-2c.23-.62.6-1.19,1.09-1.68.49-.49,1.1-.88,1.82-1.15,4.26-1.63,6.4-2.39,10.72-3.81Z"/>
            <path class="cls-22" d="m146.24,126.54c.98-.25,1.82-.38,2.53-.4.71-.02,1.31.1,1.82.36.51.26.93.68,1.26,1.25s.6,1.32.81,2.25c.97,4.25,1.45,6.38,2.41,10.63-4.65,1.06-6.97,1.65-11.57,2.98-.63.18-1.24.23-1.83.15-.59-.08-1.14-.27-1.65-.57-.51-.3-.96-.7-1.35-1.21-.39-.51-.68-1.1-.89-1.77-.2-.66-.29-1.31-.26-1.96.03-.65.18-1.25.45-1.8.27-.55.64-1.03,1.11-1.44.47-.4,1.04-.7,1.7-.89,2.9-.83,4.36-1.23,7.28-1.96-.13-.53-.2-.79-.33-1.31-.2-.8-.47-1.29-.83-1.49-.35-.2-.88-.21-1.57-.03-3.01.78-4.52,1.2-7.51,2.09-.28-.95-.43-1.43-.71-2.38,3.63-1.08,5.46-1.58,9.12-2.51Zm-1.46,8.98c-.63.17-1.14.35-1.53.55-.39.19-.67.41-.85.66-.18.25-.28.53-.29.84-.01.31.04.67.16,1.08.49,1.72,1.14,2.46,1.93,2.24,2.25-.63,3.38-.93,5.64-1.5-.49-1.95-.73-2.92-1.22-4.87-1.54.39-2.31.59-3.84,1Z"/>
            <path class="cls-22" d="m165.93,122.49c.97-.16,1.82-.21,2.53-.15.71.05,1.31.23,1.8.55.48.31.86.77,1.14,1.36.28.59.48,1.35.6,2.28.59,4.32.88,6.48,1.46,10.81-1.63.22-2.45.34-4.07.59-.65-4.2-.98-6.3-1.63-10.51-.08-.52-.18-.94-.3-1.27-.12-.33-.27-.58-.46-.75-.19-.17-.41-.27-.67-.32-.26-.04-.57-.03-.93.03-.31.05-.46.08-.77.13.88,5.24,1.32,7.86,2.2,13.11-1.26.21-1.9.32-3.16.56-.96-5.23-1.44-7.84-2.4-13.07-.91.17-1.36.25-2.27.43,1.01,5.22,1.52,7.83,2.54,13.05-1.68.33-2.52.5-4.19.86-1.33-6.17-1.99-9.25-3.32-15.42,4.74-1.02,7.12-1.47,11.9-2.23Z"/>
            <path class="cls-22" d="m186.58,120.14c1.37-.09,2.48.22,3.32.92.84.7,1.29,1.87,1.37,3.49.08,1.62-.23,2.8-.92,3.54-.69.74-1.74,1.15-3.15,1.25-2.89.19-4.34.32-7.22.61.06.56.08.84.14,1.4.06.59.14,1.06.25,1.41.11.35.26.61.47.78.2.17.47.27.79.29.32.03.72.02,1.19-.02,2.87-.26,4.31-.36,7.18-.52.05.97.08,1.46.13,2.43-3.69.2-5.54.35-9.22.71-.89.09-1.66.08-2.3-.03-.65-.11-1.2-.34-1.65-.69-.45-.35-.82-.84-1.09-1.47-.27-.63-.47-1.42-.59-2.38-.27-2.17-.4-3.25-.67-5.42-.12-.94-.11-1.75,0-2.43s.38-1.24.76-1.69c.38-.45.9-.8,1.55-1.06.65-.25,1.46-.43,2.41-.53,2.89-.29,4.34-.41,7.24-.6Zm-6.83,7.56c2.12-.21,3.18-.31,5.31-.47.34-.03.62-.07.86-.14.24-.07.43-.19.56-.36.14-.17.23-.41.27-.72.04-.31.05-.71.01-1.22-.03-.49-.09-.88-.16-1.16-.07-.28-.18-.49-.33-.63-.15-.14-.35-.22-.6-.24-.25-.02-.57-.02-.96,0-1.38.11-2.07.16-3.45.29-.39.04-.71.11-.96.21-.25.11-.44.27-.57.48-.13.21-.21.49-.23.83-.02.34,0,.76.05,1.27.08.74.11,1.12.19,1.86Z"/>
            <path class="cls-22" d="m225.89,120.92c.93.1,1.72.28,2.38.54.65.26,1.17.62,1.56,1.07.39.45.65,1.02.78,1.7.13.68.13,1.49,0,2.43-.28,2.17-.43,3.25-.71,5.42-.13.96-.33,1.75-.61,2.38-.28.63-.65,1.11-1.12,1.46-.47.35-1.03.57-1.68.68-.66.1-1.42.11-2.29.02-2.59-.28-3.89-.4-6.49-.59-.91-.07-1.68-.21-2.32-.43-.64-.22-1.15-.54-1.53-.97-.38-.42-.65-.97-.8-1.63-.15-.67-.2-1.48-.15-2.45.11-2.18.17-3.27.28-5.46.05-.95.19-1.75.42-2.39s.57-1.16,1.03-1.53c.46-.38,1.04-.63,1.75-.77.71-.14,1.55-.17,2.53-.09,2.79.21,4.19.34,6.97.64Zm-8.08,9.87c-.07.98.01,1.7.26,2.15.24.45.71.71,1.41.77,1.35.11,2.02.17,3.37.31.72.07,1.23-.09,1.54-.5.31-.4.52-1.08.62-2.02.24-2.17.35-3.26.59-5.43.1-.93.03-1.62-.2-2.06-.23-.44-.73-.71-1.48-.78-1.42-.14-2.13-.21-3.54-.32-.73-.06-1.26.11-1.58.5-.32.4-.52,1.06-.59,1.99-.16,2.16-.24,3.24-.4,5.4Z"/>
            <path class="cls-22" d="m238.13,122.57c.84,4.98,1.21,7.48,1.88,12.46.06.01.09.02.15.03,2.37-4.43,3.6-6.63,6.14-11.01,2.05.41,3.07.63,5.11,1.09-3.77,5.62-5.57,8.47-9.02,14.22-2.36-.46-3.55-.68-5.92-1.07-1.21-6.6-1.91-9.9-3.46-16.49,2.05.29,3.08.44,5.12.77Z"/>
            <path class="cls-22" d="m265.79,128.86c1.33.39,2.28,1.07,2.83,2.03.55.95.58,2.21.09,3.76-.49,1.55-1.19,2.55-2.1,3-.91.46-2.05.48-3.42.07-2.81-.83-4.22-1.22-7.04-1.95-.14.54-.21.81-.35,1.36-.15.57-.23,1.04-.25,1.41-.02.37.04.67.17.9.13.23.35.41.64.55.29.14.67.27,1.13.39,2.8.76,4.2,1.16,6.98,2.02-.29.93-.43,1.4-.72,2.33-3.57-1.1-5.37-1.61-8.98-2.54-.87-.23-1.59-.5-2.16-.83-.57-.33-1.01-.73-1.31-1.22-.3-.49-.48-1.07-.52-1.76-.04-.68.05-1.5.27-2.44.5-2.13.75-3.19,1.25-5.32.22-.93.5-1.69.85-2.28.35-.59.79-1.03,1.3-1.32.52-.29,1.13-.44,1.83-.45.7-.01,1.52.1,2.46.35,2.83.74,4.24,1.13,7.05,1.95Zm-9.08,4.72c2.08.54,3.11.82,5.18,1.41.33.09.62.15.87.17.25.02.47-.03.66-.14.19-.12.36-.31.51-.58.15-.27.29-.65.44-1.14.14-.47.22-.85.25-1.14.03-.29,0-.53-.1-.71-.09-.18-.26-.33-.48-.44-.23-.11-.53-.22-.91-.32-1.34-.38-2.02-.57-3.36-.93-.38-.1-.7-.15-.98-.13-.27.01-.51.1-.7.25-.2.15-.36.38-.5.7-.14.31-.27.72-.4,1.21-.19.72-.28,1.09-.47,1.81Z"/>
            <path class="cls-22" d="m287.56,139.18c-2.85-1.18-4.28-1.75-7.16-2.82-.59-.22-1.09-.38-1.49-.46-.4-.08-.74-.07-1.02.03-.28.11-.53.33-.73.67-.2.34-.41.81-.64,1.43-1.4,3.91-2.11,5.87-3.51,9.78-1.8-.65-2.7-.96-4.52-1.56,1.39-4.17,2.08-6.25,3.47-10.41.53-1.6,1.48-2.58,2.86-2.9,1.38-.33,3.2-.09,5.44.74,3.31,1.22,4.96,1.87,8.24,3.23-.38.92-.57,1.38-.95,2.3Z"/>
            <path class="cls-22" d="m129.35,158.54c2.63,3.05,3.92,4.59,6.44,7.7.04-.02.06-.02.11-.04-.09-4-.1-6.01-.07-10.04,1.83-.64,2.75-.94,4.6-1.53-.79,5.6-1.1,8.39-1.57,13.96.96,2.7,1.43,4.05,2.39,6.75-1.55.55-2.32.83-3.86,1.42-1.02-2.7-1.54-4.04-2.56-6.74-3.89-3.95-5.9-5.88-10.05-9.65,1.83-.76,2.74-1.12,4.58-1.83Z"/>
            <path class="cls-22" d="m153.67,155.13c.8-.2,1.5-.28,2.12-.24.62.04,1.16.21,1.63.51s.87.76,1.2,1.35c.33.6.6,1.36.81,2.29.48,2.13.72,3.2,1.21,5.33.21.94.31,1.75.29,2.43-.02.68-.16,1.25-.42,1.73-.26.47-.64.86-1.14,1.17-.5.3-1.11.55-1.84.73-2.19.55-3.28.84-5.45,1.46-.76.22-1.44.32-2.03.31-.59-.01-1.12-.16-1.57-.44s-.86-.71-1.21-1.29c-.35-.58-.67-1.33-.96-2.25-.65-2.09-.98-3.13-1.63-5.22-.28-.91-.44-1.7-.47-2.38s.07-1.26.32-1.76c.25-.5.64-.92,1.17-1.27s1.22-.64,2.04-.88c2.36-.67,3.55-.99,5.93-1.59Zm-3.29,11.82c.27.95.58,1.6.94,1.95.35.35.82.45,1.4.28,1.13-.31,1.7-.47,2.84-.76.6-.16.96-.47,1.08-.95.12-.48.06-1.18-.17-2.1-.53-2.12-.8-3.18-1.33-5.3-.23-.91-.51-1.53-.85-1.88-.34-.35-.83-.44-1.47-.27-1.2.31-1.81.47-3.01.81-.62.17-.99.5-1.12.97-.13.47-.06,1.16.19,2.06.6,2.08.9,3.12,1.49,5.21Z"/>
            <path class="cls-22" d="m164.7,152.69c.8,4.19,1.2,6.28,2,10.47.1.55.22.99.33,1.31.12.33.25.58.4.75.15.17.34.27.56.31.22.03.49.02.8-.04,1.62-.3,2.44-.43,4.06-.69-.84-5.27-1.26-7.9-2.1-13.17,1.75-.28,2.62-.41,4.37-.65.85,6.25,1.28,9.38,2.13,15.63-3.74.51-5.61.81-9.32,1.52-.77.15-1.44.2-2.01.15-.56-.05-1.06-.21-1.48-.5-.42-.29-.77-.72-1.06-1.3-.29-.58-.53-1.32-.73-2.24-.92-4.27-1.38-6.41-2.29-10.68,1.72-.37,2.58-.54,4.31-.88Z"/>
            <path class="cls-1" d="m199.39,145.07c.08,6.98.12,10.47.21,17.45,3.8-.04,5.69-.02,9.49.13-.04.97-.06,1.46-.1,2.43-5.36-.21-8.05-.22-13.41-.04-.27-7.95-.41-11.93-.68-19.88,1.8-.06,2.7-.08,4.5-.1Z"/>
            <path class="cls-1" d="m222.75,150.29c.81.09,1.5.26,2.06.5.56.25,1.01.6,1.34,1.04.33.45.55,1.01.65,1.68.1.67.09,1.48-.04,2.43-.28,2.17-.43,3.25-.71,5.42-.13.96-.32,1.75-.57,2.38-.25.63-.58,1.12-.99,1.47-.41.35-.9.59-1.46.7-.57.11-1.22.13-1.97.05-2.23-.24-3.35-.34-5.58-.51-.78-.06-1.45-.2-1.99-.41-.55-.22-.98-.53-1.31-.96-.33-.42-.55-.96-.68-1.63s-.16-1.48-.11-2.45c.11-2.18.17-3.27.28-5.46.05-.95.17-1.75.38-2.4.2-.65.5-1.16.9-1.54.4-.38.91-.64,1.52-.78.62-.14,1.35-.18,2.2-.12,2.43.18,3.64.3,6.06.55Zm-7.13,9.95c-.07.98,0,1.7.2,2.15.21.45.61.7,1.21.75,1.16.1,1.74.15,2.91.27.62.06,1.06-.11,1.34-.52.27-.41.47-1.08.57-2.03.24-2.17.35-3.26.59-5.43.1-.93.05-1.62-.14-2.06-.2-.44-.62-.7-1.28-.76-1.23-.12-1.85-.18-3.08-.28-.63-.05-1.1.12-1.38.52-.28.4-.46,1.06-.53,2-.16,2.16-.24,3.24-.4,5.4Z"/>
            <path class="cls-1" d="m243.29,153.59c-.21.97-.31,1.46-.52,2.43-3.39-.73-5.09-1.06-8.5-1.63-.48-.08-.88,0-1.19.23-.31.23-.52.69-.63,1.37-.2,1.23.2,1.93,1.2,2.09,2.3.39,3.45.6,5.73,1.06.61.12,1.13.35,1.55.68.42.33.75.73.99,1.19.24.46.38.98.43,1.56.05.57,0,1.17-.14,1.8-.35,1.55-.94,2.69-1.76,3.41-.82.72-1.86.95-3.11.7-3.85-.77-5.79-1.1-9.67-1.66.14-.96.21-1.45.35-2.41,3.59.52,5.38.82,8.94,1.52.35.07.66-.04.93-.32.27-.28.48-.76.62-1.43.14-.68.13-1.19-.02-1.54-.15-.35-.41-.56-.76-.63-2.34-.46-3.51-.67-5.86-1.05-.64-.1-1.19-.31-1.64-.62-.45-.31-.8-.7-1.05-1.17-.25-.47-.42-1-.5-1.6-.08-.6-.08-1.23.02-1.9.2-1.43.71-2.5,1.54-3.2s1.99-.94,3.47-.69c3.85.63,5.77,1,9.59,1.82Z"/>
            <path class="cls-1" d="m257.45,157.19c1.16.34,1.97.98,2.42,1.9.45.92.43,2.16-.06,3.71-.49,1.55-1.15,2.56-1.96,3.05-.81.49-1.81.55-3,.2-2.43-.71-3.64-1.05-6.09-1.68-.14.54-.21.81-.35,1.36-.15.57-.24,1.04-.27,1.41-.03.37,0,.66.12.88.11.22.29.4.54.52.25.13.58.24.97.35,2.42.65,3.62,1,6.02,1.74-.29.93-.43,1.4-.72,2.33-3.07-.94-4.62-1.38-7.72-2.19-.75-.19-1.37-.44-1.85-.75-.49-.31-.85-.7-1.1-1.17s-.38-1.05-.4-1.73c-.01-.68.09-1.49.31-2.43.5-2.13.75-3.19,1.25-5.32.22-.93.49-1.69.81-2.29.32-.6.72-1.05,1.18-1.35.46-.3,1-.47,1.62-.5.62-.03,1.33.05,2.15.27,2.46.64,3.69.98,6.14,1.7Zm-8.13,4.98c1.8.46,2.7.71,4.48,1.22.28.08.53.13.75.14.22.01.41-.04.58-.16.17-.12.32-.32.46-.6.14-.28.28-.66.42-1.15.14-.47.23-.85.26-1.14.04-.29.02-.52-.06-.7-.08-.18-.21-.31-.41-.41-.2-.1-.46-.2-.79-.29-1.17-.33-1.75-.49-2.92-.81-.33-.09-.61-.12-.85-.1-.24.02-.45.11-.63.27-.18.16-.33.39-.46.71-.13.31-.26.72-.39,1.21-.19.72-.28,1.09-.47,1.81Z"/>
            <path class="cls-1" d="m274.66,158.73c-2.11,5.43-3.17,8.15-5.28,13.58-1.87-.73-2.81-1.08-4.69-1.75,1.96-5.49,2.95-8.23,4.91-13.72,2.03.73,3.04,1.1,5.05,1.89Zm-6.01,15.46c-.48,1.23-.72,1.84-1.19,3.07-1.82-.71-2.73-1.05-4.56-1.7.44-1.24.67-1.86,1.11-3.11,1.86.67,2.79,1.01,4.64,1.73Z"/>
          </g>
        </g>
        <g id="Highlight">
          <ellipse class="cls-2" cx="56.47" cy="30.95" rx="3.64" ry="1.58" transform="translate(-6.68 43.54) rotate(-40.01)"/>
          <ellipse class="cls-2" cx="66.16" cy="25.29" rx="5.31" ry="2.42" transform="translate(-4.35 18.53) rotate(-15.45)"/>
        </g>
      </g>
    </g>
  </g>
</svg>