<?xml version="1.0" encoding="UTF-8"?>
<svg xmlns="http://www.w3.org/2000/svg" xmlns:xlink="http://www.w3.org/1999/xlink" viewBox="0 0 1920 1080">
  <defs>
    <style>
      .cls-1, .cls-2, .cls-3 {
        opacity: .8;
      }

      .cls-1, .cls-2, .cls-3, .cls-4, .cls-5 {
        mix-blend-mode: hard-light;
      }

      .cls-6 {
        fill: url(#linear-gradient-82);
      }

      .cls-6, .cls-7, .cls-8, .cls-9, .cls-10, .cls-11, .cls-12, .cls-13, .cls-14, .cls-15, .cls-16, .cls-17, .cls-18, .cls-19, .cls-20, .cls-21, .cls-22, .cls-23, .cls-24, .cls-25, .cls-26, .cls-27, .cls-28, .cls-29, .cls-30, .cls-31, .cls-32, .cls-33, .cls-34, .cls-35, .cls-36, .cls-37, .cls-38, .cls-39, .cls-40, .cls-41, .cls-42, .cls-43, .cls-44, .cls-45, .cls-46, .cls-47, .cls-48, .cls-49, .cls-50, .cls-51, .cls-52, .cls-53, .cls-54, .cls-55, .cls-56, .cls-57, .cls-58, .cls-59, .cls-60, .cls-61, .cls-62, .cls-63, .cls-64, .cls-65, .cls-66, .cls-67, .cls-68, .cls-69, .cls-70, .cls-71 {
        mix-blend-mode: screen;
      }

      .cls-7 {
        fill: url(#linear-gradient-59);
      }

      .cls-8 {
        fill: url(#linear-gradient-53);
      }

      .cls-72 {
        fill: url(#linear-gradient-5);
      }

      .cls-72, .cls-73, .cls-15, .cls-74, .cls-75, .cls-76, .cls-77, .cls-4, .cls-78, .cls-79, .cls-37, .cls-80, .cls-81, .cls-82, .cls-83, .cls-84, .cls-85, .cls-86, .cls-87, .cls-88, .cls-89, .cls-90, .cls-91, .cls-92, .cls-62, .cls-93, .cls-94, .cls-95, .cls-5, .cls-96 {
        opacity: .1;
      }

      .cls-9 {
        fill: url(#linear-gradient-52);
      }

      .cls-73 {
        fill: url(#linear-gradient-27);
        mix-blend-mode: multiply;
      }

      .cls-10 {
        fill: url(#linear-gradient-88);
      }

      .cls-11 {
        fill: url(#linear-gradient-33);
      }

      .cls-12 {
        fill: url(#linear-gradient-54);
      }

      .cls-13 {
        fill: url(#linear-gradient-71);
      }

      .cls-14 {
        fill: url(#linear-gradient-65);
      }

      .cls-15 {
        fill: url(#linear-gradient-10);
      }

      .cls-16 {
        fill: url(#linear-gradient-45);
      }

      .cls-17 {
        fill: url(#linear-gradient-75);
      }

      .cls-18 {
        fill: url(#linear-gradient-30);
      }

      .cls-97 {
        mask: url(#mask-2);
      }

      .cls-19 {
        fill: url(#linear-gradient-67);
      }

      .cls-98 {
        isolation: isolate;
      }

      .cls-74 {
        fill: url(#linear-gradient-13);
      }

      .cls-74, .cls-78, .cls-82, .cls-87, .cls-88, .cls-93, .cls-94, .cls-95 {
        mix-blend-mode: color-dodge;
      }

      .cls-75 {
        fill: url(#linear-gradient-23);
      }

      .cls-75, .cls-76, .cls-86, .cls-99, .cls-96 {
        mix-blend-mode: overlay;
      }

      .cls-76 {
        fill: #ffafcb;
      }

      .cls-20 {
        fill: url(#linear-gradient-91);
      }

      .cls-77 {
        fill: url(#linear-gradient-4);
      }

      .cls-21 {
        fill: url(#linear-gradient-34);
      }

      .cls-100 {
        fill: #090035;
      }

      .cls-22 {
        fill: url(#linear-gradient-86);
      }

      .cls-23 {
        fill: url(#linear-gradient-37);
      }

      .cls-24 {
        fill: url(#linear-gradient-85);
      }

      .cls-25 {
        fill: url(#linear-gradient-48);
      }

      .cls-26 {
        fill: url(#linear-gradient-74);
      }

      .cls-27 {
        fill: url(#linear-gradient-87);
      }

      .cls-2, .cls-4 {
        fill: url(#linear-gradient-22);
      }

      .cls-28 {
        fill: url(#linear-gradient-38);
      }

      .cls-29 {
        fill: url(#linear-gradient-81);
      }

      .cls-3 {
        fill: url(#linear-gradient-25);
      }

      .cls-101 {
        fill: url(#radial-gradient);
      }

      .cls-30 {
        fill: url(#linear-gradient-61);
      }

      .cls-31 {
        fill: url(#linear-gradient-47);
      }

      .cls-32 {
        fill: url(#linear-gradient-51);
      }

      .cls-78 {
        fill: url(#linear-gradient-12);
      }

      .cls-33 {
        fill: url(#linear-gradient-56);
      }

      .cls-34 {
        fill: url(#linear-gradient-70);
      }

      .cls-79 {
        fill: url(#linear-gradient-18);
      }

      .cls-35 {
        fill: url(#linear-gradient-36);
      }

      .cls-36 {
        fill: url(#linear-gradient-44);
      }

      .cls-37 {
        fill: url(#linear-gradient-28);
      }

      .cls-80 {
        fill: url(#linear-gradient-7);
      }

      .cls-38 {
        fill: url(#linear-gradient-55);
      }

      .cls-102 {
        fill: #8cf4ff;
      }

      .cls-81 {
        fill: url(#linear-gradient-19);
      }

      .cls-39 {
        fill: url(#linear-gradient-89);
      }

      .cls-82 {
        fill: url(#linear-gradient-15);
      }

      .cls-40 {
        fill: url(#linear-gradient-90);
      }

      .cls-83 {
        fill: url(#linear-gradient-6);
      }

      .cls-41 {
        fill: url(#linear-gradient-68);
      }

      .cls-42 {
        fill: url(#linear-gradient-43);
      }

      .cls-103 {
        fill: url(#linear-gradient);
        stroke: #000;
      }

      .cls-103, .cls-91 {
        stroke-miterlimit: 10;
      }

      .cls-43 {
        fill: url(#linear-gradient-60);
      }

      .cls-44 {
        fill: url(#linear-gradient-42);
      }

      .cls-85 {
        fill: url(#linear-gradient-8);
      }

      .cls-45 {
        fill: url(#linear-gradient-46);
      }

      .cls-87 {
        fill: url(#linear-gradient-24);
      }

      .cls-46 {
        fill: url(#linear-gradient-57);
      }

      .cls-47 {
        fill: url(#linear-gradient-62);
      }

      .cls-48 {
        fill: url(#linear-gradient-80);
      }

      .cls-49 {
        fill: url(#linear-gradient-78);
      }

      .cls-50 {
        fill: url(#linear-gradient-40);
      }

      .cls-88 {
        fill: url(#linear-gradient-14);
      }

      .cls-51 {
        fill: url(#linear-gradient-58);
      }

      .cls-89 {
        fill: url(#linear-gradient-20);
      }

      .cls-52 {
        fill: url(#linear-gradient-83);
      }

      .cls-53 {
        fill: url(#linear-gradient-76);
      }

      .cls-54 {
        fill: url(#linear-gradient-73);
      }

      .cls-104 {
        filter: url(#luminosity-noclip);
      }

      .cls-90 {
        fill: url(#linear-gradient-3);
      }

      .cls-55 {
        fill: url(#linear-gradient-79);
      }

      .cls-105 {
        mask: url(#mask-1);
      }

      .cls-106 {
        mask: url(#mask);
      }

      .cls-56 {
        fill: url(#linear-gradient-49);
      }

      .cls-57 {
        fill: url(#linear-gradient-35);
      }

      .cls-58 {
        fill: url(#linear-gradient-32);
      }

      .cls-59 {
        fill: url(#linear-gradient-77);
      }

      .cls-91 {
        fill: none;
        stroke: rgba(255, 255, 255, .85);
        stroke-linecap: round;
        stroke-width: 15px;
      }

      .cls-92 {
        fill: url(#linear-gradient-2);
      }

      .cls-60 {
        fill: url(#linear-gradient-63);
      }

      .cls-61 {
        fill: url(#linear-gradient-29);
      }

      .cls-62 {
        fill: url(#linear-gradient-9);
      }

      .cls-63 {
        fill: url(#linear-gradient-39);
      }

      .cls-93 {
        fill: url(#linear-gradient-16);
      }

      .cls-94 {
        fill: url(#linear-gradient-11);
      }

      .cls-64 {
        fill: url(#linear-gradient-69);
      }

      .cls-65 {
        fill: url(#linear-gradient-41);
      }

      .cls-66 {
        fill: url(#linear-gradient-66);
      }

      .cls-67 {
        fill: url(#linear-gradient-50);
      }

      .cls-68 {
        fill: url(#linear-gradient-72);
      }

      .cls-95 {
        fill: url(#linear-gradient-21);
      }

      .cls-5 {
        fill: url(#linear-gradient-17);
      }

      .cls-107 {
        filter: url(#luminosity-noclip-2);
      }

      .cls-69 {
        fill: url(#linear-gradient-84);
      }

      .cls-70 {
        fill: url(#linear-gradient-31);
      }

      .cls-71 {
        fill: url(#linear-gradient-64);
      }

      .cls-96 {
        fill: #fff;
      }

      .cls-108 {
        fill: url(#linear-gradient-26);
      }
    </style>
    <linearGradient id="linear-gradient" x1="959.5" y1="-.5" x2="959.5" y2="1079.5" gradientUnits="userSpaceOnUse">
      <stop offset="0" stop-color="#141414"/>
      <stop offset="1" stop-color="#141423"/>
    </linearGradient>
    <radialGradient id="radial-gradient" cx="960" cy="540" fx="960" fy="540" r="540" gradientUnits="userSpaceOnUse">
      <stop offset="0" stop-color="#fff"/>
      <stop offset="1" stop-color="#fff" stop-opacity="0"/>
    </radialGradient>
    <linearGradient id="linear-gradient-2" x1="638" y1="362" x2="638" y2="210" gradientUnits="userSpaceOnUse">
      <stop offset="0" stop-color="#5fbaa0"/>
      <stop offset="1" stop-color="#f6ee1e"/>
    </linearGradient>
    <linearGradient id="linear-gradient-3" x1="638" y1="350" x2="638" y2="222" gradientUnits="userSpaceOnUse">
      <stop offset="0" stop-color="#5fbaa0"/>
      <stop offset="1" stop-color="#f6ee1e"/>
    </linearGradient>
    <linearGradient id="linear-gradient-4" y1="338" y2="234" xlink:href="#linear-gradient-3"/>
    <linearGradient id="linear-gradient-5" y1="326" y2="246" xlink:href="#linear-gradient-2"/>
    <linearGradient id="linear-gradient-6" x1="1308" y1="830" x2="1308" y2="732" gradientUnits="userSpaceOnUse">
      <stop offset="0" stop-color="#cd4557"/>
      <stop offset="1" stop-color="#e3b019"/>
    </linearGradient>
    <linearGradient id="linear-gradient-7" y1="818" y2="744" xlink:href="#linear-gradient-6"/>
    <linearGradient id="linear-gradient-8" y1="806" y2="756" xlink:href="#linear-gradient-6"/>
    <linearGradient id="linear-gradient-9" x1="1289" y1="370" x2="1289" y2="330" gradientUnits="userSpaceOnUse">
      <stop offset="0" stop-color="#c838e7"/>
      <stop offset="1" stop-color="#1f2ad5" stop-opacity=".1"/>
    </linearGradient>
    <linearGradient id="linear-gradient-10" x1="634" y1="758" x2="634" y2="718" gradientUnits="userSpaceOnUse">
      <stop offset="0" stop-color="#c838e7"/>
      <stop offset="1" stop-color="#1f2ad5" stop-opacity=".1"/>
    </linearGradient>
    <linearGradient id="linear-gradient-11" x1="1420" y1="527" x2="1420" y2="507" gradientUnits="userSpaceOnUse">
      <stop offset="0" stop-color="#5fbaa0"/>
      <stop offset="1" stop-color="#f6ee1e" stop-opacity="0"/>
    </linearGradient>
    <linearGradient id="linear-gradient-12" x1="960" y1="232" x2="960" y2="212" xlink:href="#linear-gradient-11"/>
    <linearGradient id="linear-gradient-13" x1="872" y1="840" x2="872" y2="820" xlink:href="#linear-gradient-11"/>
    <linearGradient id="linear-gradient-14" x1="872" y1="527" x2="872" y2="507" xlink:href="#linear-gradient-11"/>
    <linearGradient id="linear-gradient-15" x1="1028" y1="491" x2="1028" y2="471" xlink:href="#linear-gradient-11"/>
    <linearGradient id="linear-gradient-16" x1="562" y1="527" x2="562" y2="507" xlink:href="#linear-gradient-11"/>
    <linearGradient id="linear-gradient-17" x1="1100.01" y1="680.01" x2="819.99" y2="399.99" gradientUnits="userSpaceOnUse">
      <stop offset="0" stop-color="#feaecc" stop-opacity="0"/>
      <stop offset="1" stop-color="#e678ff"/>
    </linearGradient>
    <linearGradient id="linear-gradient-18" x1="991.54" y1="720.28" x2="959.46" y2="538.34" gradientUnits="userSpaceOnUse">
      <stop offset="0" stop-color="#4268db"/>
      <stop offset=".19" stop-color="#436bdb"/>
      <stop offset=".36" stop-color="#4976de"/>
      <stop offset=".52" stop-color="#5388e3"/>
      <stop offset=".67" stop-color="#60a2e9"/>
      <stop offset=".82" stop-color="#72c3f2"/>
      <stop offset=".97" stop-color="#87eafc"/>
      <stop offset="1" stop-color="#8cf4ff"/>
    </linearGradient>
    <linearGradient id="linear-gradient-19" x1="991.14" y1="720.35" x2="969.33" y2="596.63" gradientUnits="userSpaceOnUse">
      <stop offset="0" stop-color="#de009f"/>
      <stop offset=".13" stop-color="#de16a8"/>
      <stop offset=".41" stop-color="#df51c2"/>
      <stop offset=".81" stop-color="#e0adea"/>
      <stop offset="1" stop-color="#e1deff"/>
    </linearGradient>
    <linearGradient id="linear-gradient-20" x1="873.3" y1="594.35" x2="866.6" y2="539.77" gradientUnits="userSpaceOnUse">
      <stop offset="0" stop-color="#4268db"/>
      <stop offset=".27" stop-color="#5a96e6"/>
      <stop offset=".61" stop-color="#75c8f3"/>
      <stop offset=".86" stop-color="#85e8fb"/>
      <stop offset="1" stop-color="#8cf4ff"/>
    </linearGradient>
    <linearGradient id="linear-gradient-21" x1="1028" y1="723" x2="1228" y2="723" gradientUnits="userSpaceOnUse">
      <stop offset="0" stop-color="#1f2ad5"/>
      <stop offset="1" stop-color="#c838e7"/>
    </linearGradient>
    <linearGradient id="linear-gradient-22" x1="1022.59" y1="711.97" x2="897.41" y2="368.03" gradientUnits="userSpaceOnUse">
      <stop offset="0" stop-color="#dfff3b"/>
      <stop offset=".02" stop-color="#dfff40" stop-opacity=".94"/>
      <stop offset=".09" stop-color="#e4ff59" stop-opacity=".66"/>
      <stop offset=".16" stop-color="#e7ff6e" stop-opacity=".42"/>
      <stop offset=".22" stop-color="#eaff7e" stop-opacity=".24"/>
      <stop offset=".28" stop-color="#ecff8a" stop-opacity=".11"/>
      <stop offset=".32" stop-color="#edff91" stop-opacity=".03"/>
      <stop offset=".36" stop-color="#eeff94" stop-opacity="0"/>
    </linearGradient>
    <linearGradient id="linear-gradient-23" x1="1100.01" y1="680.01" x2="819.99" y2="399.99" gradientUnits="userSpaceOnUse">
      <stop offset="0" stop-color="#fff" stop-opacity="0"/>
      <stop offset="1" stop-color="#fff"/>
    </linearGradient>
    <filter id="luminosity-noclip" x="634.33" y="303.24" width="654.82" height="480.27" color-interpolation-filters="sRGB" filterUnits="userSpaceOnUse">
      <feFlood flood-color="#fff" result="bg"/>
      <feBlend in="SourceGraphic" in2="bg"/>
    </filter>
    <mask id="mask" x="634.33" y="303.24" width="654.82" height="480.27" maskUnits="userSpaceOnUse">
      <g class="cls-104">
        <path class="cls-1" d="m1100.99,446.27c-30.69-43.73-81.49-72.32-138.97-72.32-93.7,0-169.66,75.96-169.66,169.66,0,39.06,13.21,75.03,35.39,103.71l273.24-201.05Z"/>
      </g>
    </mask>
    <linearGradient id="linear-gradient-24" x1="1029.46" y1="624.08" x2="894.02" y2="462.67" gradientUnits="userSpaceOnUse">
      <stop offset="0" stop-color="#cb5180"/>
      <stop offset=".13" stop-color="#c6507e"/>
      <stop offset=".27" stop-color="#b94f7b"/>
      <stop offset=".42" stop-color="#a44d75"/>
      <stop offset=".57" stop-color="#864b6c"/>
      <stop offset=".72" stop-color="#604862"/>
      <stop offset=".87" stop-color="#314455"/>
      <stop offset=".88" stop-color="#2e4454"/>
    </linearGradient>
    <linearGradient id="linear-gradient-25" x1="1015.66" y1="690.97" x2="908.39" y2="396.25" xlink:href="#linear-gradient-22"/>
    <linearGradient id="linear-gradient-26" x1="1015.66" y1="690.97" x2="908.39" y2="396.25" xlink:href="#linear-gradient-22"/>
    <mask id="mask-1" x="659.18" y="346.94" width="654.82" height="480.27" maskUnits="userSpaceOnUse">
      <g>
        <circle id="Low_Yellow-2" data-name="Low Yellow" class="cls-3" cx="962.03" cy="543.61" r="156.81"/>
        <path class="cls-1" d="m1100.14,444.55c-30.69-43.73-81.49-72.32-138.97-72.32-93.7,0-169.66,75.96-169.66,169.66,0,39.06,13.21,75.03,35.39,103.71l273.24-201.05Z"/>
        <circle id="Low_Yellow-3" data-name="Low Yellow" class="cls-108" cx="962.03" cy="543.61" r="156.81"/>
        <circle id="Low_Yellow-4" data-name="Low Yellow" class="cls-2" cx="960" cy="540" r="183"/>
      </g>
    </mask>
    <linearGradient id="linear-gradient-27" x1="1054.31" y1="667.78" x2="918.87" y2="506.37" gradientUnits="userSpaceOnUse">
      <stop offset="0" stop-color="#cb5180"/>
      <stop offset=".1" stop-color="#bd4b77"/>
      <stop offset=".27" stop-color="#9b3d61"/>
      <stop offset=".51" stop-color="#62273e"/>
      <stop offset=".8" stop-color="#16080d"/>
      <stop offset=".88" stop-color="#000"/>
    </linearGradient>
    <filter id="luminosity-noclip-2" x="634.33" y="303.24" width="654.82" height="480.27" color-interpolation-filters="sRGB" filterUnits="userSpaceOnUse">
      <feFlood flood-color="#fff" result="bg"/>
      <feBlend in="SourceGraphic" in2="bg"/>
    </filter>
    <mask id="mask-2" x="634.33" y="303.24" width="654.82" height="480.27" maskUnits="userSpaceOnUse">
      <g class="cls-107">
        <path class="cls-1" d="m1100.99,446.27c-30.69-43.73-81.49-72.32-138.97-72.32-93.7,0-169.66,75.96-169.66,169.66,0,39.06,13.21,75.03,35.39,103.71l273.24-201.05Z"/>
      </g>
    </mask>
    <linearGradient id="linear-gradient-28" x1="1029.46" y1="624.08" x2="894.02" y2="462.67" xlink:href="#linear-gradient-27"/>
    <linearGradient id="linear-gradient-29" x1="843" y1="578" x2="843" y2="558" xlink:href="#linear-gradient-11"/>
    <linearGradient id="linear-gradient-30" x1="892" y1="580" x2="892" y2="560" xlink:href="#linear-gradient-11"/>
    <linearGradient id="linear-gradient-31" x1="833" y1="628" x2="833" y2="608" xlink:href="#linear-gradient-11"/>
    <linearGradient id="linear-gradient-32" x1="888" y1="638" x2="888" y2="618" xlink:href="#linear-gradient-11"/>
    <linearGradient id="linear-gradient-33" x1="936" y1="628" x2="936" y2="608" xlink:href="#linear-gradient-11"/>
    <linearGradient id="linear-gradient-34" x1="902" y1="618" x2="902" y2="598" xlink:href="#linear-gradient-11"/>
    <linearGradient id="linear-gradient-35" x1="912" y1="648" x2="912" y2="628" xlink:href="#linear-gradient-11"/>
    <linearGradient id="linear-gradient-36" x1="868" y1="624" x2="868" y2="604" xlink:href="#linear-gradient-11"/>
    <linearGradient id="linear-gradient-37" x1="940" y1="600" x2="940" y2="580" xlink:href="#linear-gradient-11"/>
    <linearGradient id="linear-gradient-38" x1="990" y1="578" x2="990" y2="558" xlink:href="#linear-gradient-11"/>
    <linearGradient id="linear-gradient-39" x1="1013" y1="586" x2="1013" y2="566" xlink:href="#linear-gradient-11"/>
    <linearGradient id="linear-gradient-40" x1="970" y1="610" x2="970" y2="590" xlink:href="#linear-gradient-11"/>
    <linearGradient id="linear-gradient-41" x1="1032" y1="567" x2="1032" y2="547" xlink:href="#linear-gradient-11"/>
    <linearGradient id="linear-gradient-42" x1="1073" y1="624" x2="1073" y2="604" xlink:href="#linear-gradient-11"/>
    <linearGradient id="linear-gradient-43" x1="1093" y1="604" x2="1093" y2="584" xlink:href="#linear-gradient-11"/>
    <linearGradient id="linear-gradient-44" x1="1108" y1="633" x2="1108" y2="613" xlink:href="#linear-gradient-11"/>
    <linearGradient id="linear-gradient-45" x1="1042" y1="648" x2="1042" y2="628" xlink:href="#linear-gradient-11"/>
    <linearGradient id="linear-gradient-46" x1="1063" y1="685" x2="1063" y2="665" xlink:href="#linear-gradient-11"/>
    <linearGradient id="linear-gradient-47" x1="1028" y1="705" x2="1028" y2="685" xlink:href="#linear-gradient-11"/>
    <linearGradient id="linear-gradient-48" x1="1003" y1="669" x2="1003" y2="649" xlink:href="#linear-gradient-11"/>
    <linearGradient id="linear-gradient-49" x1="966" y1="695" x2="966" y2="675" xlink:href="#linear-gradient-11"/>
    <linearGradient id="linear-gradient-50" x1="843" y1="675" x2="843" y2="655" xlink:href="#linear-gradient-11"/>
    <linearGradient id="linear-gradient-51" x1="878" y1="682" x2="878" y2="662" xlink:href="#linear-gradient-11"/>
    <linearGradient id="linear-gradient-52" x1="853" y1="649" x2="853" y2="629" xlink:href="#linear-gradient-11"/>
    <linearGradient id="linear-gradient-53" x1="920" y1="710" x2="920" y2="690" xlink:href="#linear-gradient-11"/>
    <linearGradient id="linear-gradient-54" x1="1039" y1="551" x2="1039" y2="531" xlink:href="#linear-gradient-11"/>
    <linearGradient id="linear-gradient-55" x1="1073" y1="550" x2="1073" y2="530" xlink:href="#linear-gradient-11"/>
    <linearGradient id="linear-gradient-56" x1="1128" y1="575" x2="1128" y2="545" xlink:href="#linear-gradient-11"/>
    <linearGradient id="linear-gradient-57" x1="1000" y1="700" x2="1000" y2="670" xlink:href="#linear-gradient-11"/>
    <linearGradient id="linear-gradient-58" x1="1052" y1="578" x2="1052" y2="548" xlink:href="#linear-gradient-11"/>
    <linearGradient id="linear-gradient-59" x1="814" y1="589" x2="814" y2="559" xlink:href="#linear-gradient-11"/>
    <linearGradient id="linear-gradient-60" x1="867" y1="590" x2="867" y2="570" xlink:href="#linear-gradient-11"/>
    <linearGradient id="linear-gradient-61" x1="809" y1="614" x2="809" y2="594" xlink:href="#linear-gradient-11"/>
    <linearGradient id="linear-gradient-62" x1="818.54" y1="586.93" x2="818.54" y2="577.38" xlink:href="#linear-gradient-11"/>
    <linearGradient id="linear-gradient-63" x1="867.95" y1="563.89" x2="867.95" y2="554.33" xlink:href="#linear-gradient-11"/>
    <linearGradient id="linear-gradient-64" x1="847.76" y1="608.82" x2="847.76" y2="599.27" xlink:href="#linear-gradient-11"/>
    <linearGradient id="linear-gradient-65" x1="814.04" y1="632.6" x2="814.04" y2="623.04" xlink:href="#linear-gradient-11"/>
    <linearGradient id="linear-gradient-66" x1="960.97" y1="714.82" x2="960.97" y2="705.27" xlink:href="#linear-gradient-11"/>
    <linearGradient id="linear-gradient-67" x1="884.73" y1="609.04" x2="884.73" y2="599.49" xlink:href="#linear-gradient-11"/>
    <linearGradient id="linear-gradient-68" x1="872.51" y1="643.38" x2="872.51" y2="633.82" xlink:href="#linear-gradient-11"/>
    <linearGradient id="linear-gradient-69" x1="1067.47" y1="544.56" x2="1067.47" y2="535" gradientTransform="translate(322.75 -288.98) rotate(23.68)" xlink:href="#linear-gradient-11"/>
    <linearGradient id="linear-gradient-70" x1="1027.88" y1="670.44" x2="1027.88" y2="660.89" xlink:href="#linear-gradient-11"/>
    <linearGradient id="linear-gradient-71" x1="911.77" y1="574.93" x2="911.77" y2="565.38" xlink:href="#linear-gradient-11"/>
    <linearGradient id="linear-gradient-72" x1="919.76" y1="600.76" x2="919.76" y2="591.2" xlink:href="#linear-gradient-11"/>
    <linearGradient id="linear-gradient-73" x1="987.22" y1="705.22" x2="987.22" y2="695.67" xlink:href="#linear-gradient-11"/>
    <linearGradient id="linear-gradient-74" x1="933.84" y1="608.68" x2="933.84" y2="599.12" xlink:href="#linear-gradient-11"/>
    <linearGradient id="linear-gradient-75" x1="981.43" y1="665.91" x2="981.43" y2="656.36" xlink:href="#linear-gradient-11"/>
    <linearGradient id="linear-gradient-76" x1="995.98" y1="588.36" x2="995.98" y2="578.8" xlink:href="#linear-gradient-11"/>
    <linearGradient id="linear-gradient-77" x1="977.15" y1="631.21" x2="977.15" y2="621.66" xlink:href="#linear-gradient-11"/>
    <linearGradient id="linear-gradient-78" x1="1011.62" y1="551.38" x2="1011.62" y2="541.82" xlink:href="#linear-gradient-11"/>
    <linearGradient id="linear-gradient-79" x1="955.65" y1="656.06" x2="955.65" y2="646.5" xlink:href="#linear-gradient-11"/>
    <linearGradient id="linear-gradient-80" x1="938.93" y1="665.61" x2="938.93" y2="656.06" xlink:href="#linear-gradient-11"/>
    <linearGradient id="linear-gradient-81" x1="926.98" y1="648.41" x2="926.98" y2="638.86" xlink:href="#linear-gradient-11"/>
    <linearGradient id="linear-gradient-82" x1="909.31" y1="660.83" x2="909.31" y2="651.28" xlink:href="#linear-gradient-11"/>
    <linearGradient id="linear-gradient-83" x1="829.54" y1="654.28" x2="829.54" y2="644.72" xlink:href="#linear-gradient-11"/>
    <linearGradient id="linear-gradient-84" x1="858.26" y1="683.62" x2="858.26" y2="674.07" xlink:href="#linear-gradient-11"/>
    <linearGradient id="linear-gradient-85" x1="1073.32" y1="659.86" x2="1073.32" y2="650.3" xlink:href="#linear-gradient-11"/>
    <linearGradient id="linear-gradient-86" x1="942.33" y1="705" x2="942.33" y2="695.44" xlink:href="#linear-gradient-11"/>
    <linearGradient id="linear-gradient-87" x1="959.18" y1="575.03" x2="959.18" y2="565.48" xlink:href="#linear-gradient-11"/>
    <linearGradient id="linear-gradient-88" x1="972.43" y1="586.56" x2="972.43" y2="577" xlink:href="#linear-gradient-11"/>
    <linearGradient id="linear-gradient-89" x1="986.71" y1="601.11" x2="986.71" y2="591.56" xlink:href="#linear-gradient-11"/>
    <linearGradient id="linear-gradient-90" x1="851.01" y1="590.67" x2="851.01" y2="581.11" xlink:href="#linear-gradient-11"/>
    <linearGradient id="linear-gradient-91" x1="1049.29" y1="622.13" x2="1049.29" y2="612.58" xlink:href="#linear-gradient-11"/>
  </defs>
  <g class="cls-98">
    <g id="Layer_3" data-name="Layer 3">
      <rect class="cls-103" x="-.5" y="-.5" width="1920" height="1080"/>
    </g>
    <g id="Background" class="cls-84">
      <g>
        <rect class="cls-100" x=".5" y=".5" width="1919" height="1079"/>
        <path d="m1919,1v1078H1V1h1918m1-1H0v1080h1920V0h0Z"/>
      </g>
      <g class="cls-99">
        <circle class="cls-101" cx="960" cy="540" r="540"/>
      </g>
    </g>
    <g id="Layer_2" data-name="Layer 2">
      <path class="cls-76" d="m960,342c-109.35,0-198,88.65-198,198s88.65,198,198,198,198-88.65,198-198-88.65-198-198-198Zm0,381c-100.91,0-183-82.09-183-183s82.09-183,183-183,183,82.09,183,183-82.09,183-183,183Z"/>
      <circle class="cls-92" cx="638" cy="286" r="76"/>
      <circle class="cls-90" cx="638" cy="286" r="64"/>
      <circle class="cls-77" cx="638" cy="286" r="52"/>
      <circle class="cls-72" cx="638" cy="286" r="40"/>
      <circle class="cls-83" cx="1308" cy="781" r="49"/>
      <circle class="cls-80" cx="1308" cy="781" r="37"/>
      <circle class="cls-85" cx="1308" cy="781" r="25"/>
      <circle class="cls-62" cx="1289" cy="350" r="20"/>
      <circle class="cls-15" cx="634" cy="738" r="20"/>
      <circle class="cls-94" cx="1420" cy="517" r="10"/>
      <circle class="cls-78" cx="960" cy="222" r="10"/>
      <circle class="cls-74" cx="872" cy="830" r="10"/>
      <circle class="cls-88" cx="872" cy="517" r="10"/>
      <circle class="cls-82" cx="1028" cy="481" r="10"/>
      <circle class="cls-93" cx="562" cy="517" r="10"/>
      <g class="cls-86">
        <path class="cls-102" d="m418.57,383.09l-.71-8.91c-.03-.43-.35-.79-.78-.87l-8.77-1.72c-1.1-.22-1.01-1.83.11-1.92l8.91-.71c.43-.03.79-.35.87-.78l1.72-8.77c.22-1.1,1.83-1.01,1.92.11l.71,8.91c.03.43.35.79.78.87l8.77,1.72c1.1.22,1.01,1.83-.11,1.92l-8.91.71c-.43.03-.79.35-.87.78l-1.72,8.77c-.22,1.1-1.83,1.01-1.92-.11Z"/>
      </g>
      <g class="cls-86">
        <path class="cls-102" d="m957.2,296.37l-1.12-14.02c-.05-.68-.56-1.24-1.23-1.38l-13.8-2.71c-1.74-.34-1.59-2.88.17-3.02l14.02-1.12c.68-.05,1.24-.56,1.38-1.23l2.71-13.8c.34-1.74,2.88-1.59,3.02.17l1.12,14.02c.05.68.56,1.24,1.23,1.38l13.8,2.71c1.74.34,1.59,2.88-.17,3.02l-14.02,1.12c-.68.05-1.24.56-1.38,1.23l-2.71,13.8c-.34,1.74-2.88,1.59-3.02-.17Z"/>
      </g>
      <g class="cls-86">
        <path class="cls-102" d="m1250.9,575.11l-.91-11.42c-.04-.55-.45-1.01-1-1.12l-11.24-2.21c-1.42-.28-1.3-2.34.14-2.46l11.42-.91c.55-.04,1.01-.45,1.12-1l2.21-11.24c.28-1.42,2.34-1.3,2.46.14l.91,11.42c.04.55.45,1.01,1,1.12l11.24,2.21c1.42.28,1.3,2.34-.14,2.46l-11.42.91c-.55.04-1.01.45-1.12,1l-2.21,11.24c-.28,1.42-2.34,1.3-2.46-.14Z"/>
      </g>
      <g class="cls-86">
        <path class="cls-102" d="m752.1,881.93l-1.55-19.46c-.08-.95-.77-1.73-1.7-1.91l-19.15-3.77c-2.41-.47-2.21-3.99.24-4.19l19.46-1.55c.95-.08,1.73-.77,1.91-1.7l3.77-19.15c.47-2.41,3.99-2.21,4.19.24l1.55,19.46c.08.95.77,1.73,1.7,1.91l19.15,3.77c2.41.47,2.21,3.99-.24,4.19l-19.46,1.55c-.95.08-1.73.77-1.91,1.7l-3.77,19.15c-.47,2.41-3.99,2.21-4.19-.24Z"/>
      </g>
      <g class="cls-86">
        <path class="cls-102" d="m1283.98,978.09l-2.3-19.43c-.11-.94-.83-1.75-1.75-1.97l-19.04-4.51c-2.4-.57-2.34-4.06.07-4.16l19.13-.77c.93-.04,1.67-.7,1.81-1.62l2.95-18.91c.37-2.38,3.85-2.04,4.14.41l2.3,19.43c.11.94.83,1.75,1.75,1.97l19.04,4.51c2.4.57,2.34,4.06-.07,4.16l-19.13.77c-.93.04-1.67.7-1.81,1.62l-2.95,18.91c-.37,2.38-3.85,2.04-4.14-.41Z"/>
      </g>
      <g class="cls-86">
        <path class="cls-102" d="m677.44,499.81c-2.93,2.93-7.68,2.93-10.61,0s-2.93-7.68,0-10.61,47.73-37.12,47.73-37.12c0,0-34.19,44.8-37.12,47.73Z"/>
      </g>
      <g class="cls-86">
        <path class="cls-102" d="m848.58,221.23c-4.79,4.79-12.55,4.79-17.33,0s-4.79-12.55,0-17.33,77.99-60.66,77.99-60.66c0,0-55.87,73.2-60.66,77.99Z"/>
      </g>
      <g class="cls-86">
        <path class="cls-102" d="m877.97,792.45c-1.47,1.47-3.84,1.47-5.31,0s-1.47-3.84,0-5.31,23.9-18.59,23.9-18.59c0,0-17.12,22.43-18.59,23.9Z"/>
      </g>
      <g class="cls-86">
        <path class="cls-102" d="m1375.32,452.23c-1.68,1.68-4.4,1.68-6.07,0s-1.68-4.4,0-6.07,27.33-21.26,27.33-21.26c0,0-19.58,25.65-21.26,27.33Z"/>
      </g>
      <g class="cls-86">
        <path class="cls-102" d="m1151.44,244.81c-2.93,2.93-7.68,2.93-10.61,0-2.93-2.93-2.93-7.68,0-10.61,2.93-2.93,47.73-37.12,47.73-37.12,0,0-34.19,44.8-37.12,47.73Z"/>
      </g>
      <g class="cls-86">
        <path class="cls-102" d="m939.64,964.73c-2.45,2.45-6.43,2.45-8.89,0s-2.45-6.43,0-8.89,39.99-31.1,39.99-31.1c0,0-28.65,37.53-31.1,39.99Z"/>
      </g>
      <circle id="Base" class="cls-5" cx="960" cy="540" r="198"/>
      <path class="cls-79" d="m1142.95,535.94c0-.16-.01-.32-.01-.49-.03-1.25-.07-2.5-.13-3.74,0,0,0-.01,0-.02-.13-2.74-.31-5.47-.56-8.18-31.49-7.08-66.36-6.23-96.99-.26-8.1,1.58-15.9,3.51-23.26,5.75-30.16,9.18-46.02,21.37-62.46,33.04-10.61,7.53-21.45,14.83-36.54,20.96-31.65,12.86-76.71,18.43-141.65-3.33.15.66.3,1.32.45,1.98.12.5.23,1,.35,1.5.19.78.39,1.55.59,2.32.13.49.25.99.38,1.48.2.77.42,1.53.63,2.3.14.49.27.98.41,1.47.22.76.45,1.52.68,2.28.15.48.29.97.44,1.45.24.76.49,1.52.73,2.27.16.48.31.95.47,1.43.25.76.52,1.51.78,2.26.16.47.32.94.49,1.41.27.75.55,1.49.83,2.24.17.46.34.93.52,1.39.29.74.58,1.48.88,2.22.18.46.36.92.55,1.38.3.73.61,1.46.92,2.19.19.46.38.91.58,1.37.32.73.64,1.45.97,2.17.2.45.4.9.6,1.35.33.72.67,1.43,1.01,2.15.21.44.42.89.63,1.33.34.71.7,1.41,1.05,2.11.22.44.44.89.66,1.33.36.7.73,1.4,1.1,2.1.23.43.45.87.68,1.3.37.7.76,1.39,1.14,2.08.24.43.47.86.71,1.28.39.69.79,1.36,1.18,2.04.25.42.49.85.74,1.27.4.68.81,1.35,1.23,2.02.25.42.5.83.76,1.25.41.67.84,1.33,1.26,1.99.26.41.52.83.79,1.24.43.66.87,1.31,1.3,1.96.27.41.54.82.82,1.22.44.65.89,1.28,1.34,1.92.28.4.56.81.85,1.21.45.63.91,1.26,1.37,1.88.29.4.58.81.88,1.2.46.62.94,1.24,1.41,1.85.3.39.6.79.9,1.18.48.61.96,1.22,1.45,1.83.31.39.61.78.92,1.16.49.6.98,1.19,1.47,1.78.32.38.63.77.96,1.15.5.59,1,1.17,1.51,1.75.33.38.65.76.98,1.13.51.58,1.03,1.15,1.54,1.72.33.37.66.74,1,1.11.52.57,1.05,1.12,1.58,1.68.34.36.68.73,1.03,1.09.53.55,1.07,1.1,1.61,1.65.35.36.7.72,1.05,1.08.54.54,1.09,1.07,1.63,1.6.36.35.72.71,1.08,1.06.55.53,1.1,1.04,1.65,1.56.37.35.74.7,1.12,1.05.55.51,1.12,1.02,1.68,1.52.38.34.76.69,1.14,1.03.56.5,1.13.98,1.69,1.47.4.34.79.69,1.19,1.03.57.48,1.14.95,1.71,1.42.41.34.81.68,1.22,1.01.58.47,1.16.93,1.75,1.4.41.33.82.66,1.23.98.59.46,1.18.9,1.77,1.35.42.32.84.64,1.26.96.59.44,1.18.87,1.77,1.3.44.32.87.64,1.31.96.59.43,1.2.84,1.8,1.26.44.31.88.62,1.33.93.61.41,1.22.82,1.83,1.23.45.3.89.6,1.34.9.61.4,1.23.79,1.85,1.18.46.29.91.59,1.37.88.62.39,1.24.76,1.87,1.14.47.28.93.57,1.4.85.62.37,1.25.73,1.88,1.1.48.28.95.56,1.43.83.63.36,1.26.7,1.89,1.05.49.27.97.54,1.46.81.63.34,1.27.67,1.91,1.01.5.26.99.53,1.49.78.64.33,1.3.65,1.94.98.5.25.99.5,1.49.75.65.32,1.3.62,1.96.93.51.24,1.01.49,1.52.72.66.3,1.32.59,1.98.89.51.23,1.02.47,1.54.69.66.29,1.32.56,1.99.84.52.22,1.04.45,1.57.66.65.27,1.3.52,1.96.78.55.22,1.09.44,1.64.65.65.25,1.31.49,1.97.74.55.21,1.1.42,1.66.62.66.24,1.33.47,2,.7.55.19,1.11.39,1.66.58.68.23,1.36.45,2.04.67.55.18,1.1.37,1.66.54.69.22,1.38.42,2.08.63.55.17,1.1.34,1.66.5.69.2,1.38.39,2.07.58.57.16,1.13.32,1.7.48.68.18,1.37.35,2.05.53.58.15,1.16.3,1.75.45.68.17,1.37.32,2.06.48.59.14,1.18.28,1.77.41.69.15,1.38.29,2.07.44.6.13,1.19.26,1.79.38.69.14,1.38.26,2.08.39.6.11,1.21.23,1.81.34.72.13,1.44.24,2.16.36.58.1,1.17.2,1.75.29.74.11,1.48.21,2.21.32.58.08,1.15.17,1.73.25.74.1,1.48.18,2.22.27.58.07,1.17.15,1.75.21.74.08,1.49.15,2.23.22.59.06,1.17.12,1.76.17.74.07,1.49.12,2.24.17.59.05,1.19.1,1.78.14.8.05,1.6.09,2.41.13.55.03,1.09.07,1.63.09.83.04,1.66.06,2.49.08.52.02,1.05.04,1.57.05,1.36.03,2.72.04,4.08.04,100.91,0,183-82.09,183-183,0-1.36-.02-2.71-.05-4.06Z"/>
      <path class="cls-81" d="m1139.6,575.14c-33.11-2.21-78.8.1-124.6,20.86-46.96,21.29-46.8,40.58-83,54-48.13,17.85-92.36.06-130.65-18.87,31.63,54.86,90.9,91.87,158.65,91.87,88.89,0,163.17-63.71,179.6-147.86Z"/>
      <path class="cls-89" d="m923,583c15.08-6.13,25.93-13.44,36.54-20.96-9.51.89-18.71-.21-27.54-4.04-7.2-3.12-13.67-7.84-28-12-3.08-.89-43.19-12.03-80,2-16.41,6.26-30.94,17.06-42.79,31.08.04.2.09.39.14.59,64.94,21.76,110,16.19,141.65,3.33Z"/>
      <circle class="cls-95" cx="1128" cy="723" r="100"/>
      <path class="cls-96" d="m1010.2,364c44.19,33.44,72.8,86.44,72.8,146,0,100.91-82.09,183-183,183-17.4,0-34.24-2.44-50.2-7,30.68,23.21,68.86,37,110.2,37,100.91,0,183-82.09,183-183,0-83.5-56.22-154.12-132.8-176Z"/>
      <circle id="Low_Yellow" data-name="Low Yellow" class="cls-4" cx="960" cy="540" r="183"/>
      <circle id="Shine" class="cls-75" cx="960" cy="540" r="198"/>
      <g class="cls-106">
        <path class="cls-87" d="m1284.03,317.7c-31.67-45.23-201.64,19.15-379.63,143.78-178,124.64-296.62,262.34-264.95,307.56,31.67,45.23,201.64-19.15,379.63-143.78,178-124.64,296.62-262.34,264.95-307.56Zm-274.51,293.91c-167.83,117.51-325.27,182.22-351.66,144.53-26.39-37.69,88.27-163.51,256.09-281.02,167.83-117.51,325.27-182.22,351.66-144.53,26.39,37.69-88.27,163.51-256.09,281.02Z"/>
      </g>
      <g class="cls-105">
        <path class="cls-73" d="m1308.88,361.4c-31.67-45.23-201.64,19.15-379.63,143.78-178,124.64-296.62,262.34-264.95,307.56,31.67,45.23,201.64-19.15,379.63-143.78,178-124.64,296.62-262.34,264.95-307.56Zm-274.51,293.91c-167.83,117.51-325.27,182.22-351.66,144.53-26.39-37.69,88.27-163.51,256.09-281.02,167.83-117.51,325.27-182.22,351.66-144.53,26.39,37.69-88.27,163.51-256.09,281.02Z"/>
      </g>
      <g class="cls-97">
        <path class="cls-37" d="m1284.03,317.7c-31.67-45.23-201.64,19.15-379.63,143.78-178,124.64-296.62,262.34-264.95,307.56,31.67,45.23,201.64-19.15,379.63-143.78,178-124.64,296.62-262.34,264.95-307.56Zm-274.51,293.91c-167.83,117.51-325.27,182.22-351.66,144.53-26.39-37.69,88.27-163.51,256.09-281.02,167.83-117.51,325.27-182.22,351.66-144.53,26.39,37.69-88.27,163.51-256.09,281.02Z"/>
      </g>
      <path class="cls-91" d="m838.49,464.68c5.57-8.96,12.11-17.25,19.45-24.75"/>
      <path class="cls-91" d="m872.38,427.06c19.93-15.5,44.05-25.84,70.35-29.02"/>
      <g class="cls-84">
        <circle class="cls-61" cx="843" cy="568" r="10"/>
        <circle class="cls-18" cx="892" cy="570" r="10"/>
        <circle class="cls-70" cx="833" cy="618" r="10"/>
        <circle class="cls-58" cx="888" cy="628" r="10"/>
        <circle class="cls-11" cx="936" cy="618" r="10"/>
        <circle class="cls-21" cx="902" cy="608" r="10"/>
        <circle class="cls-57" cx="912" cy="638" r="10"/>
        <circle class="cls-35" cx="868" cy="614" r="10"/>
        <circle class="cls-23" cx="940" cy="590" r="10"/>
        <circle class="cls-28" cx="990" cy="568" r="10"/>
        <circle class="cls-63" cx="1013" cy="576" r="10"/>
        <circle class="cls-50" cx="970" cy="600" r="10"/>
        <circle class="cls-65" cx="1032" cy="557" r="10"/>
        <circle class="cls-44" cx="1073" cy="614" r="10"/>
        <circle class="cls-42" cx="1093" cy="594" r="10"/>
        <circle class="cls-36" cx="1108" cy="623" r="10"/>
        <circle class="cls-16" cx="1042" cy="638" r="10"/>
        <circle class="cls-45" cx="1063" cy="675" r="10"/>
        <circle class="cls-31" cx="1028" cy="695" r="10"/>
        <circle class="cls-25" cx="1003" cy="659" r="10"/>
        <circle class="cls-56" cx="966" cy="685" r="10"/>
        <circle class="cls-67" cx="843" cy="665" r="10"/>
        <circle class="cls-32" cx="878" cy="672" r="10"/>
        <circle class="cls-9" cx="853" cy="639" r="10"/>
        <circle class="cls-8" cx="920" cy="700" r="10"/>
        <circle class="cls-12" cx="1039" cy="541" r="10"/>
        <circle class="cls-38" cx="1073" cy="540" r="10"/>
        <circle class="cls-33" cx="1128" cy="560" r="15"/>
        <circle class="cls-46" cx="1000" cy="685" r="15"/>
        <circle class="cls-51" cx="1052" cy="563" r="15"/>
        <circle class="cls-7" cx="814" cy="574" r="15"/>
        <circle class="cls-43" cx="867" cy="580" r="10"/>
        <circle class="cls-30" cx="809" cy="604" r="10"/>
        <circle class="cls-47" cx="818.54" cy="582.16" r="4.78"/>
        <circle class="cls-60" cx="867.95" cy="559.11" r="4.78"/>
        <circle class="cls-71" cx="847.76" cy="604.04" r="4.78"/>
        <circle class="cls-14" cx="814.04" cy="627.82" r="4.78"/>
        <circle class="cls-66" cx="960.97" cy="710.04" r="4.78"/>
        <circle class="cls-19" cx="884.73" cy="604.27" r="4.78"/>
        <circle class="cls-41" cx="872.51" cy="638.6" r="4.78"/>
        <circle class="cls-64" cx="1083.48" cy="634.13" r="4.78"/>
        <circle class="cls-34" cx="1027.88" cy="665.67" r="4.78"/>
        <circle class="cls-13" cx="911.77" cy="570.16" r="4.78"/>
        <circle class="cls-68" cx="919.76" cy="595.98" r="4.78"/>
        <circle class="cls-54" cx="987.22" cy="700.44" r="4.78"/>
        <circle class="cls-26" cx="933.84" cy="603.9" r="4.78"/>
        <circle class="cls-17" cx="981.43" cy="661.13" r="4.78"/>
        <circle class="cls-53" cx="995.98" cy="583.58" r="4.78"/>
        <circle class="cls-59" cx="977.15" cy="626.43" r="4.78"/>
        <circle class="cls-49" cx="1011.62" cy="546.6" r="4.78"/>
        <circle class="cls-55" cx="955.65" cy="651.28" r="4.78"/>
        <circle class="cls-48" cx="938.93" cy="660.83" r="4.78"/>
        <circle class="cls-29" cx="926.98" cy="643.63" r="4.78"/>
        <circle class="cls-6" cx="909.31" cy="656.06" r="4.78"/>
        <circle class="cls-52" cx="829.54" cy="649.5" r="4.78"/>
        <circle class="cls-69" cx="858.26" cy="678.84" r="4.78"/>
        <circle class="cls-24" cx="1073.32" cy="655.08" r="4.78"/>
        <circle class="cls-22" cx="942.33" cy="700.22" r="4.78"/>
        <circle class="cls-27" cx="959.18" cy="570.26" r="4.78"/>
        <circle class="cls-10" cx="972.43" cy="581.78" r="4.78"/>
        <circle class="cls-39" cx="986.71" cy="596.33" r="4.78"/>
        <circle class="cls-40" cx="851.01" cy="585.89" r="4.78"/>
        <circle class="cls-20" cx="1049.29" cy="617.36" r="4.78"/>
      </g>
    </g>
  </g>
</svg>