<?xml version="1.0" encoding="UTF-8"?>
<svg xmlns="http://www.w3.org/2000/svg" xmlns:xlink="http://www.w3.org/1999/xlink" viewBox="0 0 86.18 64">
  <defs>
    <style>
      .cls-1 {
        fill: url(#linear-gradient-2);
      }

      .cls-2, .cls-3, .cls-4 {
        fill: #fff;
      }

      .cls-5, .cls-6 {
        opacity: .51;
      }

      .cls-7, .cls-6, .cls-8 {
        stroke: #000;
        stroke-miterlimit: 10;
      }

      .cls-9 {
        fill: url(#New_Gradient_Swatch);
      }

      .cls-10 {
        isolation: isolate;
      }

      .cls-3, .cls-11 {
        opacity: .49;
      }

      .cls-12 {
        opacity: .65;
      }

      .cls-13 {
        fill: url(#linear-gradient-5);
        mix-blend-mode: multiply;
      }

      .cls-6, .cls-8 {
        fill: none;
        stroke-linecap: round;
      }

      .cls-4 {
        opacity: .79;
      }

      .cls-14 {
        fill: url(#linear-gradient-3);
      }

      .cls-15 {
        fill: url(#linear-gradient);
      }

      .cls-8 {
        opacity: .5;
        stroke-width: 2px;
      }

      .cls-16 {
        fill: url(#linear-gradient-4);
      }
    </style>
    <linearGradient id="linear-gradient" x1="52.85" y1="10.42" x2="29.41" y2="59.91" gradientUnits="userSpaceOnUse">
      <stop offset="0" stop-color="#0071bc" stop-opacity=".8"/>
      <stop offset="1" stop-color="#2e3181"/>
    </linearGradient>
    <linearGradient id="linear-gradient-2" x1="-2745.82" y1="21.33" x2="-2745.82" y2="11.52" gradientTransform="translate(2621.48 957.33) rotate(20.58)" gradientUnits="userSpaceOnUse">
      <stop offset="0" stop-color="#f7931e"/>
      <stop offset="1" stop-color="#f15a24"/>
    </linearGradient>
    <linearGradient id="linear-gradient-3" x1="-2749.11" y1="22.71" x2="-2749.11" y2="9.32" xlink:href="#linear-gradient-2"/>
    <linearGradient id="New_Gradient_Swatch" data-name="New Gradient Swatch" x1="-2722.59" y1="11.19" x2="-2752.26" y2="62.59" gradientTransform="translate(2621.48 957.33) rotate(20.58)" gradientUnits="userSpaceOnUse">
      <stop offset="0" stop-color="#f7931e"/>
      <stop offset="1" stop-color="#f15a24"/>
    </linearGradient>
    <linearGradient id="linear-gradient-4" x1="-2700.9" y1="-127.83" x2="-2700.9" y2="-158.25" gradientTransform="translate(2616.51 806.14) rotate(13.39)" xlink:href="#linear-gradient-2"/>
    <linearGradient id="linear-gradient-5" x1="-2700.71" y1="-143.09" x2="-2727.66" y2="-143.42" gradientTransform="translate(2616.51 806.14) rotate(13.39)" gradientUnits="userSpaceOnUse">
      <stop offset="0" stop-color="#fff" stop-opacity="0"/>
      <stop offset=".02" stop-color="#fff5f5" stop-opacity=".04"/>
      <stop offset=".11" stop-color="#ffbcbc" stop-opacity=".26"/>
      <stop offset=".22" stop-color="#ff8a8a" stop-opacity=".46"/>
      <stop offset=".32" stop-color="#ff5f5f" stop-opacity=".62"/>
      <stop offset=".42" stop-color="#ff3d3d" stop-opacity=".76"/>
      <stop offset=".53" stop-color="#f22" stop-opacity=".87"/>
      <stop offset=".63" stop-color="#ff0f0f" stop-opacity=".94"/>
      <stop offset=".74" stop-color="#ff0303" stop-opacity=".99"/>
      <stop offset=".85" stop-color="red"/>
    </linearGradient>
  </defs>
  <g class="cls-10">
    <g id="Layer_2" data-name="Layer 2">
      <g id="Navicon">
        <path class="cls-15" d="m67.3,35.21s.06,0,.09,0c1,0,1.82-1.21,1.82-2.71,0-.83-.25-1.58-.65-2.07.42-1.5.65-3.14.65-4.87,0-5.54-2.37-10.24-5.69-11.98,0-.13.01-.25.01-.38,0-3.7-1.99-6.71-4.47-6.77-1.23-1.48-2.79-2.38-4.5-2.38-3.4,0-6.24,3.53-6.97,8.27-1.12-2.31-2.93-3.83-4.98-3.87-.88-.65-1.87-1.02-2.92-1.02-.32,0-.63.04-.94.1-.31-4.25-2.71-7.55-5.64-7.55-3.13,0-5.67,3.79-5.67,8.47,0,1.91.43,3.68,1.14,5.09-.12,0-.23-.01-.35-.01-1.76,0-3.37.99-4.59,2.6-.29-.14-.58-.27-.88-.38.09-.55.14-1.12.14-1.72,0-4.02-2.18-7.28-4.88-7.28s-4.88,3.26-4.88,7.28c0,1.31.24,2.54.64,3.6-3.64,3.13-6.09,8.99-6.09,15.7s2.31,12.24,5.78,15.43c-.49,1.05-.79,2.32-.79,3.7,0,3.55,1.93,6.43,4.31,6.43,1.02,0,1.96-.53,2.7-1.42,1.2,2.69,3.25,4.47,5.58,4.47,1.91,0,3.63-1.19,4.85-3.1,1.56,2.53,3.79,4.12,6.27,4.12,2.1,0,4.03-1.14,5.51-3.03,1.42.64,2.92.99,4.48.99.52,0,1.04-.04,1.55-.12,1.54,1.36,3.34,2.15,5.26,2.15,1.06,0,2.08-.24,3.04-.68,1.44,1.08,3.07,1.7,4.79,1.7,5.89,0,10.67-7.13,10.67-15.92,0-5.29-1.73-9.98-4.4-12.87Zm-36.17,4.8c0,.1,0,.2.02.3-.05.05-.09.11-.14.16.04-.15.08-.3.12-.46Z"/>
        <ellipse class="cls-3" cx="61.12" cy="9.94" rx="1.16" ry="2.87" transform="translate(4.13 34.16) rotate(-32.26)"/>
        <ellipse class="cls-3" cx="54.29" cy="7.86" rx="3.74" ry="2.36"/>
        <g id="Main">
          <path class="cls-1" d="m51.94,4.88s-8.06,1.69-7.16,7.75l-6.27-3.62c2.47-5.74,13.62-4.1,13.62-4.1"/>
          <path class="cls-8" d="m45.5,5.03s-1.72.77-3.11,3.32"/>
          <path class="cls-14" d="m51.48,2.38s-10.99,2.31-9.76,10.57l-8.54-4.94C36.56.18,51.75,2.41,51.75,2.41"/>
          <path class="cls-9" d="m66.18,42.24S27.52,67.46.02,18.5l6.83-.87-4.33-6.02s14.12-9.21,31.36-5.69c11.29,2.3,23.92,10.06,34.8,29.44l17.49-3.31-9.74,25.94-10.25-15.74Z"/>
          <g>
            <polygon class="cls-7" points="52.29 26.99 46.06 29.56 47.85 35.9 42.39 39.33 44.81 44.57 38.93 48.55 36.02 48.11 41.82 43.77 39.47 38.33 45.03 34.64 43.34 28.03 49.66 25.23 46.58 19.41 54.05 16.46 56.31 18.63 49.13 21.38 52.29 26.99"/>
            <polygon class="cls-7" points="48.1 11.84 40.43 15.3 43.39 21.46 36.93 24.64 38.45 31.69 32.74 35.8 34.96 41.57 28.83 46.21 26.37 45.15 32.24 40.38 30.47 34.83 35.3 30.72 33.96 23.19 40.82 20.72 37.76 13.64 46.83 11.12 48.1 11.84"/>
          </g>
          <g>
            <path class="cls-7" d="m69.12,46.49l3.98-1.14-1.69-2.43,2.92-1.19-1.39-2.88,3.41-.76-2.13-2.64,3.64-1.7h-.03c-.06-.03-.13-.04-.19-.03l-4.41,1.27,2.13,2.64-3.41.76,1.39,2.88-2.92,1.19,1.69,2.43-3.12,1.39.14.2Z"/>
            <path class="cls-7" d="m83.29,32.71l-4.26,2.3c-.07.03-.1.11-.06.17l1.69,3.24c.03.06,0,.14-.06.17l-3.54,1.6c-.05.02-.08.09-.07.14l.94,3.77c.01.05,0,.1-.05.13l-3.15,2.12s-.07.1-.05.15l1.3,3.07c.02.05,0,.11-.04.15l-3.14,2.38c-.09.07-.05.21.06.22l.44.56s.84-.54.87-.55l3.54-2.14s.07-.1.04-.15l-1.34-2.94c-.03-.06,0-.12.05-.16l3.08-1.96s.07-.09.05-.14l-.99-3.6c-.02-.06.01-.12.07-.15l3.47-1.46c.07-.03.1-.11.06-.18l-1.72-3.11c-.04-.07,0-.15.06-.18l2.79-3.02c.08-.03.74-.56.67-.63l-.26.12s-.41.03-.46.05Z"/>
          </g>
          <circle class="cls-11" cx="18.98" cy="13.39" r="3.6"/>
          <circle class="cls-2" cx="18.78" cy="13.32" r="3.49"/>
          <ellipse class="cls-7" cx="17.04" cy="13.88" rx="1.54" ry="1.85" transform="translate(-4.78 16.46) rotate(-45.9)"/>
          <g class="cls-5">
            <path d="m19.78,32.18c-1.41,3.41-1.9,7.45-1.65,11.1.18,2.69,2.17,5,5,5,2.57,0,5.18-2.29,5-5-.21-3.05.1-5.56,1.29-8.44,1.04-2.5-1.12-5.5-3.49-6.15-2.88-.79-5.11.99-6.15,3.49h0Z"/>
          </g>
          <path class="cls-16" d="m15.39,28.57s-7.45,10.9,12.9,30.11c0,0-7.89-15.68-2.77-25.63,5.11-9.94-9.76-6.94-10.13-4.49Z"/>
          <path class="cls-13" d="m15.39,28.57s-7.45,10.9,12.9,30.11c0,0-7.89-15.68-2.77-25.63,5.11-9.94-9.76-6.94-10.13-4.49Z"/>
          <line class="cls-6" x1="6.97" y1="17.89" x2=".5" y2="18.75"/>
          <g class="cls-12">
            <path class="cls-2" d="m55.78,29.06c-1.63-2.08.16.28.53.85.99,1.5,1.89,3.05,2.72,4.64,1.22,2.32,4.64,3.21,6.84,1.79,2.36-1.52,3.1-4.36,1.79-6.84-1.39-2.65-2.97-5.16-4.82-7.52-1.62-2.07-5.4-1.82-7.07,0-2.02,2.2-1.73,4.86,0,7.07h0Z"/>
          </g>
          <g class="cls-12">
            <path class="cls-2" d="m43.62,13.28c4.67,1.89,9.65,6.39,13.01,10.64,1,1.26,2.76-.52,1.77-1.77-3.69-4.66-8.53-9.02-14.11-11.28-1.49-.6-2.14,1.81-.66,2.41h0Z"/>
          </g>
        </g>
        <path class="cls-4" d="m63.15,35.41s.05,0,.07,0c.85,0,1.54-.81,1.54-1.82,0-.56-.21-1.06-.55-1.39.35-1.01.55-2.11.55-3.27,0-3.72-2.01-6.87-4.82-8.04,0-.09.01-.17.01-.26,0-2.49-1.69-4.5-3.79-4.54-1.04-1-2.37-1.59-3.81-1.59-2.88,0-5.29,2.37-5.91,5.55-.95-1.55-2.48-2.57-4.22-2.6-.75-.44-1.59-.68-2.48-.68-.27,0-.54.02-.8.07-.26-2.85-2.3-5.07-4.78-5.07-2.66,0-4.81,2.54-4.81,5.68,0,1.28.36,2.47.97,3.42-.1,0-.2,0-.29,0-1.5,0-2.86.66-3.9,1.75-.25-.1-.49-.18-.75-.26.08-.37.12-.75.12-1.15,0-2.7-1.85-4.89-4.14-4.89s-4.14,2.19-4.14,4.89c0,.88.2,1.7.54,2.42-3.08,2.1-5.16,6.03-5.16,10.54s1.96,8.22,4.9,10.36c-.42.7-.67,1.56-.67,2.48,0,2.39,1.64,4.32,3.66,4.32.87,0,1.66-.36,2.29-.96,1.02,1.81,2.76,3,4.73,3,1.62,0,3.08-.8,4.11-2.08,1.32,1.7,3.21,2.76,5.32,2.76,1.78,0,3.41-.77,4.67-2.03,1.2.43,2.47.67,3.79.67.44,0,.88-.03,1.31-.08,1.31.91,2.83,1.44,4.46,1.44.9,0,1.76-.16,2.58-.46,1.22.73,2.6,1.14,4.06,1.14,5,0,9.04-4.78,9.04-10.68,0-3.55-1.47-6.7-3.73-8.64Zm-30.67,3.22c0,.07,0,.13.01.2-.04.04-.08.07-.12.11.04-.1.07-.2.1-.31Z"/>
      </g>
    </g>
  </g>
</svg>