<?xml version="1.0" encoding="UTF-8"?>
<svg xmlns="http://www.w3.org/2000/svg" xmlns:xlink="http://www.w3.org/1999/xlink" viewBox="0 0 416 296.42">
  <defs>
    <style>
      .cls-1 {
        fill: url(#linear-gradient-2);
      }

      .cls-2 {
        fill: #fff;
      }

      .cls-3, .cls-4 {
        opacity: .51;
      }

      .cls-5 {
        fill: url(#linear-gradient-4);
        mix-blend-mode: multiply;
      }

      .cls-6, .cls-4, .cls-7 {
        stroke: #000;
        stroke-miterlimit: 10;
      }

      .cls-8 {
        fill: url(#New_Gradient_Swatch);
      }

      .cls-9 {
        isolation: isolate;
      }

      .cls-10 {
        opacity: .65;
      }

      .cls-4, .cls-7 {
        fill: none;
        stroke-linecap: round;
      }

      .cls-11 {
        opacity: .49;
      }

      .cls-12 {
        fill: url(#linear-gradient-3);
      }

      .cls-13 {
        fill: url(#linear-gradient);
      }

      .cls-7 {
        opacity: .5;
        stroke-width: 2px;
      }
    </style>
    <linearGradient id="linear-gradient" x1="187" y1="58.45" x2="187" y2="10.68" gradientUnits="userSpaceOnUse">
      <stop offset="0" stop-color="#f7931e"/>
      <stop offset="1" stop-color="#f15a24"/>
    </linearGradient>
    <linearGradient id="linear-gradient-2" x1="171" y1="65.13" x2="171" y2="0" xlink:href="#linear-gradient"/>
    <linearGradient id="New_Gradient_Swatch" data-name="New Gradient Swatch" x1="300.02" y1="9.1" x2="155.64" y2="259.17" gradientUnits="userSpaceOnUse">
      <stop offset="0" stop-color="#f7931e"/>
      <stop offset="1" stop-color="#f15a24"/>
    </linearGradient>
    <linearGradient id="linear-gradient-3" x1="163.75" y1="272.6" x2="163.75" y2="124.6" gradientTransform="translate(-46.73 52.53) rotate(-7.19)" xlink:href="#linear-gradient"/>
    <linearGradient id="linear-gradient-4" x1="164.65" y1="198.37" x2="33.53" y2="196.78" gradientTransform="translate(-46.73 52.53) rotate(-7.19)" gradientUnits="userSpaceOnUse">
      <stop offset="0" stop-color="#fff" stop-opacity="0"/>
      <stop offset=".02" stop-color="#fff5f5" stop-opacity=".04"/>
      <stop offset=".11" stop-color="#ffbcbc" stop-opacity=".26"/>
      <stop offset=".22" stop-color="#ff8a8a" stop-opacity=".46"/>
      <stop offset=".32" stop-color="#ff5f5f" stop-opacity=".62"/>
      <stop offset=".42" stop-color="#ff3d3d" stop-opacity=".76"/>
      <stop offset=".53" stop-color="#f22" stop-opacity=".87"/>
      <stop offset=".63" stop-color="#ff0f0f" stop-opacity=".94"/>
      <stop offset=".74" stop-color="#ff0303" stop-opacity=".99"/>
      <stop offset=".85" stop-color="red"/>
    </linearGradient>
  </defs>
  <g class="cls-9">
    <g id="Layer_2" data-name="Layer 2">
      <g id="Fish">
        <g id="Main">
          <path class="cls-13" d="m213.57,10.9s-33.81,21.5-19.33,47.55l-34.74-5.79c1.45-30.39,55-41.97,55-41.97"/>
          <path class="cls-7" d="m184.5,22.61s-6.5,6.46-8.5,20.46"/>
          <path class="cls-1" d="m207.23.29s-46.1,29.31-26.36,64.84l-47.37-7.89C135.47,15.79,208.5,0,208.5,0"/>
          <path class="cls-8" d="m342.37,156.73S209.37,337.73.37,161.73l29.63-15.67L0,126.07S48.56,59.97,133.12,46.5c55.37-8.82,126.18,4.92,208.88,74.57l74-45v134.83l-73.63-54.17Z"/>
          <g>
            <polygon class="cls-6" points="253 111.04 229 133.37 248 159.21 229 184.18 249 203.88 229 232.07 215 235.07 234 205.38 214 184.61 233 158.29 214 131.05 238 107.5 214 86.27 243 60.07 257 66.07 229 90.89 253 111.04"/>
            <polygon class="cls-6" points="208 49.16 179 78.07 203 101.07 179 126.57 198 156.07 179 184.58 199 207.07 179 238.68 166 238.07 184.57 206.32 167 184.07 182 157.07 163 125.07 190 102.07 164 75.07 201 48.07 208 49.16"/>
          </g>
          <g>
            <path class="cls-6" d="m363,171.07l16.17-11.98-11.84-8.21,11.25-10.4-11.25-10.76,14.21-9.3-14.21-8.39,13.67-13.95-.15.05c-.32-.03-.65.04-.93.2l-17.92,13.33,14.21,8.39-14.21,9.3,11.25,10.76-11.25,10.4,11.84,8.21-11.84,11.68,1,.67Z"/>
            <path class="cls-6" d="m404,84.07l-15.46,17.77c-.26.24-.26.66,0,.9l13.23,11.87c.26.23.27.63.02.88l-13.39,13.32c-.21.21-.24.53-.07.77l10.72,15.58c.14.21.14.49,0,.69l-10.71,15.04c-.17.24-.15.56.05.77l11.17,11.76c.19.2.22.51.07.74l-10.22,16.19c-.29.45.12,1.03.64.91l2.95,1.81c.15-.03,2.91-3.88,3-4l12.47-15.8c.17-.24.14-.57-.07-.78l-11.11-11.09c-.21-.21-.24-.55-.06-.79l10.66-14.2c.16-.21.16-.5,0-.72l-10.67-14.71c-.18-.25-.15-.59.07-.8l13.33-12.57c.26-.25.25-.67-.02-.9l-13.16-11.2c-.28-.24-.28-.67-.01-.91l7.56-18.53c.33-.29,2.4-3.82,2-4l-1,1c-.22-.1-1.82.84-2,1Z"/>
          </g>
          <circle class="cls-11" cx="78" cy="106.07" r="17.5"/>
          <circle class="cls-2" cx="77" cy="106.07" r="17"/>
          <ellipse class="cls-6" cx="70" cy="111.57" rx="7.5" ry="9" transform="translate(-60.23 131.23) rotate(-66.48)"/>
          <g class="cls-3">
            <path d="m133,188.07c-.63,16.84,3.63,34.36,10.68,49.52,2.71,5.83,11.33.76,8.63-5.05-6.31-13.57-9.88-29.43-9.32-44.48.24-6.44-9.76-6.43-10,0h0Z"/>
          </g>
          <path class="cls-12" d="m87.61,181.32s-15.31,62.41,110.28,115.1c0,0-62.75-57.93-56.46-111.98s-56.31-14.9-53.81-3.12Z"/>
          <path class="cls-5" d="m87.61,181.32s-15.31,62.41,110.28,115.1c0,0-62.75-57.93-56.46-111.98s-56.31-14.9-53.81-3.12Z"/>
        </g>
        <g class="cls-10">
          <path class="cls-2" d="m189.5,62.34c7.78.17,15.62,1.69,23.17,3.43,19.41,4.48,37.82,12.22,54.8,22.61,5.5,3.37,10.53-5.28,5.05-8.63-24.27-14.85-54.11-26.78-83.02-27.4-6.44-.14-6.44,9.86,0,10h0Z"/>
        </g>
        <g class="cls-10">
          <path class="cls-2" d="m279.98,96.66c10.22,6.22,19.59,13.99,28.49,21.94,4.79,4.28,11.88-2.77,7.07-7.07-9.51-8.5-19.59-16.85-30.51-23.5-5.51-3.36-10.54,5.29-5.05,8.63h0Z"/>
        </g>
        <line class="cls-4" x1="31" y1="147.07" x2="3" y2="162.07"/>
      </g>
    </g>
  </g>
</svg>