<?xml version="1.0" encoding="UTF-8"?>
<svg xmlns="http://www.w3.org/2000/svg" xmlns:xlink="http://www.w3.org/1999/xlink" viewBox="0 0 313.46 328">
  <defs>
    <style>
      .cls-1 {
        fill: #fc1515;
      }

      .cls-2, .cls-3, .cls-4, .cls-5 {
        fill: #fff;
      }

      .cls-6 {
        fill: url(#linear-gradient-2);
        opacity: .9;
      }

      .cls-7, .cls-8 {
        opacity: .51;
      }

      .cls-3 {
        opacity: .39;
      }

      .cls-9, .cls-8 {
        stroke: #000;
        stroke-miterlimit: 10;
      }

      .cls-10 {
        fill: url(#New_Gradient_Swatch);
      }

      .cls-11 {
        filter: url(#drop-shadow-4);
      }

      .cls-12 {
        fill: url(#linear-gradient-6);
      }

      .cls-13 {
        fill: url(#linear-gradient-3);
        opacity: .95;
      }

      .cls-14 {
        isolation: isolate;
      }

      .cls-4 {
        opacity: .49;
      }

      .cls-15 {
        opacity: .65;
      }

      .cls-5 {
        filter: url(#drop-shadow-3);
      }

      .cls-16 {
        filter: url(#outer-glow-1);
      }

      .cls-17 {
        fill: url(#linear-gradient);
        opacity: .85;
      }

      .cls-18 {
        fill: url(#linear-gradient-5);
        mix-blend-mode: multiply;
      }

      .cls-8 {
        stroke-linecap: round;
      }

      .cls-8, .cls-19 {
        fill: none;
      }

      .cls-20 {
        filter: url(#drop-shadow-2);
      }

      .cls-21 {
        clip-path: url(#clippath);
      }

      .cls-22 {
        fill: #00267c;
      }

      .cls-23 {
        fill: url(#linear-gradient-7);
      }

      .cls-24 {
        fill: url(#linear-gradient-4);
      }
    </style>
    <filter id="outer-glow-1" filterUnits="userSpaceOnUse">
      <feOffset dx="0" dy="0"/>
      <feGaussianBlur result="blur" stdDeviation="5"/>
      <feFlood flood-color="#fff" flood-opacity="1"/>
      <feComposite in2="blur" operator="in"/>
      <feComposite in="SourceGraphic"/>
    </filter>
    <clipPath id="clippath">
      <rect class="cls-19" x="25.93" y="26.23" width="262.3" height="275.53"/>
    </clipPath>
    <linearGradient id="linear-gradient" x1="570.73" y1="-124.5" x2="570.73" y2="-124.5" gradientUnits="userSpaceOnUse">
      <stop offset="0" stop-color="#0071bc" stop-opacity=".8"/>
      <stop offset=".04" stop-color="#1f6ea8" stop-opacity=".81"/>
      <stop offset=".13" stop-color="#6f6675" stop-opacity=".85"/>
      <stop offset=".27" stop-color="#ee5a25" stop-opacity=".9"/>
      <stop offset=".27" stop-color="#f15a24" stop-opacity=".9"/>
      <stop offset=".32" stop-color="#c35039" stop-opacity=".92"/>
      <stop offset=".37" stop-color="#9b484c" stop-opacity=".94"/>
      <stop offset=".43" stop-color="#79405d" stop-opacity=".96"/>
      <stop offset=".5" stop-color="#5d3b6a" stop-opacity=".97"/>
      <stop offset=".57" stop-color="#483674" stop-opacity=".99"/>
      <stop offset=".66" stop-color="#39337b" stop-opacity=".99"/>
      <stop offset=".77" stop-color="#30317f" stop-opacity="1"/>
      <stop offset="1" stop-color="#2e3181"/>
    </linearGradient>
    <linearGradient id="linear-gradient-2" x1="-789.61" y1="-172" x2="-789.61" y2="-172" gradientTransform="translate(387.05 237.39) rotate(176)" gradientUnits="userSpaceOnUse">
      <stop offset="0" stop-color="#0071bc" stop-opacity=".8"/>
      <stop offset=".04" stop-color="#1f6ea8" stop-opacity=".81"/>
      <stop offset=".13" stop-color="#6f6675" stop-opacity=".85"/>
      <stop offset=".27" stop-color="#ee5a25" stop-opacity=".9"/>
      <stop offset=".27" stop-color="#f15a24" stop-opacity=".9"/>
      <stop offset=".32" stop-color="#c85137" stop-opacity=".92"/>
      <stop offset=".38" stop-color="#9f484b" stop-opacity=".94"/>
      <stop offset=".44" stop-color="#7b415b" stop-opacity=".96"/>
      <stop offset=".51" stop-color="#5f3b69" stop-opacity=".97"/>
      <stop offset=".59" stop-color="#493673" stop-opacity=".99"/>
      <stop offset=".68" stop-color="#39337b" stop-opacity=".99"/>
      <stop offset=".79" stop-color="#30317f" stop-opacity="1"/>
      <stop offset="1" stop-color="#2e3181"/>
    </linearGradient>
    <linearGradient id="linear-gradient-3" x1="-875.15" y1="10.55" x2="-875.15" y2="10.55" gradientTransform="translate(367.89 280.71) rotate(-169.59) scale(.88 .91)" gradientUnits="userSpaceOnUse">
      <stop offset="0" stop-color="#0071bc" stop-opacity=".8"/>
      <stop offset=".04" stop-color="#1f6ea8" stop-opacity=".81"/>
      <stop offset=".13" stop-color="#6f6675" stop-opacity=".85"/>
      <stop offset=".27" stop-color="#ee5a25" stop-opacity=".9"/>
      <stop offset=".27" stop-color="#f15a24" stop-opacity=".9"/>
      <stop offset=".32" stop-color="#c35039" stop-opacity=".92"/>
      <stop offset=".37" stop-color="#9b484c" stop-opacity=".94"/>
      <stop offset=".43" stop-color="#79405d" stop-opacity=".96"/>
      <stop offset=".5" stop-color="#5d3b6a" stop-opacity=".97"/>
      <stop offset=".57" stop-color="#483674" stop-opacity=".99"/>
      <stop offset=".66" stop-color="#39337b" stop-opacity=".99"/>
      <stop offset=".77" stop-color="#30317f" stop-opacity="1"/>
      <stop offset="1" stop-color="#2e3181"/>
    </linearGradient>
    <filter id="drop-shadow-2" filterUnits="userSpaceOnUse">
      <feOffset dx="5" dy="5"/>
      <feGaussianBlur result="blur-2" stdDeviation="5"/>
      <feFlood flood-color="#000" flood-opacity=".5"/>
      <feComposite in2="blur-2" operator="in"/>
      <feComposite in="SourceGraphic"/>
    </filter>
    <linearGradient id="New_Gradient_Swatch" data-name="New Gradient Swatch" x1="220.9" y1="377.79" x2="163.29" y2="477.57" gradientTransform="translate(263.1 -348.51) rotate(39.82)" gradientUnits="userSpaceOnUse">
      <stop offset="0" stop-color="#f7931e"/>
      <stop offset="1" stop-color="#f15a24"/>
    </linearGradient>
    <linearGradient id="linear-gradient-4" x1="66.84" y1="582.4" x2="66.84" y2="523.35" gradientTransform="translate(327.59 -391.86) rotate(32.63)" gradientUnits="userSpaceOnUse">
      <stop offset="0" stop-color="#f7931e"/>
      <stop offset="1" stop-color="#f15a24"/>
    </linearGradient>
    <linearGradient id="linear-gradient-5" x1="67.2" y1="552.78" x2="14.88" y2="552.15" gradientTransform="translate(327.59 -391.86) rotate(32.63)" gradientUnits="userSpaceOnUse">
      <stop offset="0" stop-color="#fff" stop-opacity="0"/>
      <stop offset=".02" stop-color="#fff5f5" stop-opacity=".04"/>
      <stop offset=".11" stop-color="#ffbcbc" stop-opacity=".26"/>
      <stop offset=".22" stop-color="#ff8a8a" stop-opacity=".46"/>
      <stop offset=".32" stop-color="#ff5f5f" stop-opacity=".62"/>
      <stop offset=".42" stop-color="#ff3d3d" stop-opacity=".76"/>
      <stop offset=".53" stop-color="#f22" stop-opacity=".87"/>
      <stop offset=".63" stop-color="#ff0f0f" stop-opacity=".94"/>
      <stop offset=".74" stop-color="#ff0303" stop-opacity=".99"/>
      <stop offset=".85" stop-color="red"/>
    </linearGradient>
    <linearGradient id="linear-gradient-6" x1="570.73" y1="-124.5" x2="570.73" y2="-124.5" gradientUnits="userSpaceOnUse">
      <stop offset="0" stop-color="#0071bc" stop-opacity=".8"/>
      <stop offset=".22" stop-color="#f15a24" stop-opacity=".9"/>
      <stop offset=".22" stop-color="#ef5924" stop-opacity=".9"/>
      <stop offset=".28" stop-color="#c1503a" stop-opacity=".93"/>
      <stop offset=".33" stop-color="#9a474d" stop-opacity=".95"/>
      <stop offset=".4" stop-color="#78405d" stop-opacity=".96"/>
      <stop offset=".47" stop-color="#5d3a6a" stop-opacity=".98"/>
      <stop offset=".55" stop-color="#483674" stop-opacity=".99"/>
      <stop offset=".64" stop-color="#39337b" stop-opacity=".99"/>
      <stop offset=".76" stop-color="#30317f" stop-opacity="1"/>
      <stop offset="1" stop-color="#2e3181"/>
    </linearGradient>
    <filter id="drop-shadow-3" filterUnits="userSpaceOnUse">
      <feOffset dx="4" dy="4"/>
      <feGaussianBlur result="blur-3" stdDeviation="5"/>
      <feFlood flood-color="#000" flood-opacity=".5"/>
      <feComposite in2="blur-3" operator="in"/>
      <feComposite in="SourceGraphic"/>
    </filter>
    <linearGradient id="linear-gradient-7" x1="68.11" y1="6.64" x2="232.43" y2="298.42" gradientUnits="userSpaceOnUse">
      <stop offset="0" stop-color="#f7bb48"/>
      <stop offset=".39" stop-color="#f7931e"/>
      <stop offset="1" stop-color="#f15a24"/>
    </linearGradient>
    <filter id="drop-shadow-4" filterUnits="userSpaceOnUse">
      <feOffset dx="2" dy="2"/>
      <feGaussianBlur result="blur-4" stdDeviation="1"/>
      <feFlood flood-color="#000" flood-opacity=".5"/>
      <feComposite in2="blur-4" operator="in"/>
      <feComposite in="SourceGraphic"/>
    </filter>
  </defs>
  <g class="cls-14">
    <g id="Layer_2" data-name="Layer 2">
      <g id="UI_elements" data-name="UI elements">
        <ellipse class="cls-4" cx="289.81" cy="66.48" rx="8.69" ry="4.49"/>
      </g>
      <g id="Layer_7" data-name="Layer 7">
        <g class="cls-16">
          <g class="cls-21">
            <path class="cls-17" d="m346.59,60.94c2.45-2.33,4.21-5.39,4.86-8.94,1.68-9.13-4.59-17.94-14-19.66-4.05-.74-8.01-.05-11.35,1.7-3.47-7.8-10.73-13.85-19.94-15.54-7.54-1.38-14.9.43-20.62,4.46-4.95-7.63-13.03-13.34-22.84-15.14-8.31-1.53-16.44,0-23.2,3.78-5.29-2.68-11.06-4.67-17.21-5.8-2.07-.38-4.13-.65-6.18-.83-5.44-4.62-12.17-7.94-19.76-9.34-4.18-.77-8.33-.9-12.33-.46-5.18-3.83-11.32-6.58-18.12-7.83-23.28-4.28-45.51,10.57-49.66,33.16-.21,1.14-.36,2.28-.48,3.42-1.64-.27-3.28-.47-4.91-.61-5.44-4.62-12.17-7.94-19.76-9.34-4.18-.77-8.33-.9-12.33-.46-5.18-3.83-11.32-6.58-18.12-7.83C38.46,1.59,17.24,14.88,11.7,35.68c-.21-.04-.42-.1-.64-.14-23.28-4.28-45.51,10.57-49.66,33.16-2.5,13.6,2.14,26.91,11.3,36.28-.11-.03-.22-.06-.34-.08-3.96-.73-7.75,1.8-8.45,5.64-.25,1.34-.08,2.66.4,3.85-4.13,5.12-7.08,11.27-8.34,18.14-2.5,13.6,2.14,26.91,11.3,36.28-.11-.03-.22-.06-.34-.08-3.96-.73-7.75,1.8-8.45,5.64-.39,2.14.25,4.24,1.58,5.8-2.36,3.55-4.05,7.61-4.86,12.04-2.61,14.23,4.55,28.04,16.81,34.91-.08.32-.17.64-.23.97-1.75,9.52,4.71,18.69,14.46,20.63,4.15,4.71,9.91,8.13,16.64,9.37,13.42,2.46,26.31-4.56,31.43-16.2,3.33,6.75,9.77,11.96,17.85,13.55,1.65,1.21,3.47,2.23,5.41,3.05,2.76,7.03,9.12,12.57,17.27,14.07,12.38,2.27,24.21-5.62,26.41-17.64.9-4.91,10.92,1.79,8.76-2.37.45.11.91.2,1.37.29.48.09.97.16,1.45.23,2.49,4.6,7.01,8.13,12.63,9.25,2.85,3.23,6.46,5.86,10.62,7.59,2.87,3.91,7.23,6.8,12.45,7.76,10.65,1.96,20.82-4.84,22.72-15.17.2-1.11.29-2.22.29-3.31.75-1.17,1.42-2.4,1.99-3.7,3.33,6.75,9.77,11.96,17.85,13.55,1.65,1.21,3.47,2.23,5.41,3.05,2.76,7.03,9.12,12.57,17.27,14.07,12.38,2.27,24.21-5.62,26.41-17.64.9-4.91,10.92,1.79,8.76-2.37.45.11.91.2,1.37.29,6.97,1.28,13.79-.09,19.38-3.36,1.08.58,2.18,1.12,3.3,1.62-.61,1.35-1.09,2.79-1.37,4.31-1.9,10.33,5.19,20.3,15.84,22.25s20.82-4.84,22.72-15.17c.62-3.37.27-6.69-.84-9.72,15.85-5.4,28.3-18.68,31.47-35.93,3.08-16.77-3.36-33.14-15.56-43.85,2.45-2.33,4.21-5.39,4.86-8.94,1.12-6.09-1.3-12.03-5.82-15.83,3.52-2.74,6.08-6.69,6.94-11.36.62-3.37.27-6.69-.84-9.72,15.85-5.4,28.3-18.68,31.47-35.93,3.08-16.77-3.36-33.14-15.56-43.85Zm-55.57,76.49c1.08.58,2.18,1.12,3.3,1.62-.61,1.35-1.09,2.79-1.37,4.31-.2,1.12-.3,2.23-.3,3.32-2.32-1.18-4.85-2.06-7.55-2.56-1.94-.36-3.86-.5-5.75-.45-.78-.83-1.59-1.63-2.43-2.41,5.08-.02,9.93-1.39,14.1-3.83Zm-18.24-67.53c.21-.11.42-.21.62-.32-.24.36-.47.72-.7,1.09.02-.26.06-.51.08-.77ZM56.12,249.07c-.01.14-.01.28-.02.42-.12-.27-.13-.43.02-.42Zm139.21,13.58c-.01.14-.01.28-.02.42-.12-.27-.13-.43.02-.42Z"/>
            <path class="cls-6" d="m5.83,221.59c-2.02,2.21-3.38,5.02-3.74,8.19-.92,8.17,5.16,15.55,13.58,16.5,3.62.41,7.08-.45,9.92-2.2,3.54,6.67,10.33,11.57,18.57,12.49,6.74.76,13.13-1.3,17.93-5.21,4.84,6.44,12.33,10.97,21.1,11.96,7.43.83,14.52-1.02,20.25-4.77,4.84,2.04,10.05,3.44,15.56,4.06,1.85.21,3.69.32,5.51.35,5.09,3.74,11.24,6.26,18.03,7.02,3.74.42,7.41.28,10.92-.36,4.81,3.06,10.4,5.11,16.49,5.8,20.82,2.34,39.53-12.14,41.8-32.35.11-1.02.18-2.04.21-3.05,1.47.13,2.93.21,4.37.23,5.09,3.74,11.24,6.26,18.03,7.02,3.74.42,7.41.28,10.92-.36,4.81,3.06,10.4,5.11,16.49,5.8,19.83,2.23,37.75-10.82,41.36-29.53.19.02.38.06.57.08,20.82,2.34,39.53-12.14,41.8-32.35,1.37-12.17-3.55-23.63-12.22-31.34.1.02.2.04.3.05,3.54.4,6.73-2.07,7.12-5.51.13-1.2-.09-2.36-.59-3.37,3.33-4.78,5.55-10.39,6.24-16.54,1.37-12.17-3.55-23.63-12.22-31.34.1.02.2.04.3.05,3.54.4,6.73-2.07,7.12-5.51.22-1.91-.48-3.73-1.76-5.03,1.86-3.28,3.1-6.97,3.55-10.93,1.43-12.72-5.75-24.48-17-29.79.05-.29.11-.57.14-.87.96-8.52-5.32-16.22-14.04-17.33-3.96-3.9-9.25-6.57-15.28-7.25-12-1.35-22.95,5.65-26.75,16.25-3.36-5.76-9.36-9.96-16.6-10.86-1.54-.96-3.2-1.76-4.97-2.36-2.87-6.04-8.83-10.54-16.12-11.35-11.07-1.24-21.03,6.46-22.24,17.21-.49,4.39-9.75-.91-7.59,2.63-.4-.07-.81-.12-1.22-.17-.43-.05-.86-.08-1.29-.11-2.48-3.91-6.7-6.74-11.73-7.39-2.72-2.68-6.06-4.77-9.84-6.04-2.78-3.28-6.81-5.56-11.48-6.08-9.52-1.07-18.08,5.56-19.12,14.8-.11.99-.12,1.98-.06,2.94-.59,1.08-1.1,2.21-1.53,3.39-3.36-5.76-9.36-9.96-16.6-10.86-1.54-.96-3.2-1.76-4.97-2.36-2.87-6.04-8.83-10.54-16.12-11.35-11.07-1.24-21.03,6.46-22.24,17.21-.49,4.39-9.75-.91-7.59,2.63-.4-.07-.81-.12-1.22-.17-6.23-.7-12.17.93-16.91,4.16-.99-.44-1.99-.85-3.02-1.22.46-1.23.79-2.53.95-3.89,1.04-9.24-5.84-17.6-15.36-18.67s-18.08,5.56-19.12,14.8c-.34,3.01.18,5.93,1.34,8.53C12.12,43.66,1.95,56.15.21,71.58c-1.68,15,5.01,29.06,16.45,37.76-2.02,2.21-3.38,5.02-3.74,8.19-.61,5.45,1.89,10.54,6.12,13.62-2.94,2.64-4.95,6.28-5.42,10.46-.34,3.01.18,5.93,1.34,8.53-13.66,5.75-23.84,18.24-25.57,33.67-1.68,15,5.01,29.06,16.45,37.76Zm44.34-70.98c-.99-.44-1.99-.85-3.02-1.22.46-1.23.79-2.53.95-3.89.11-1,.13-1.98.06-2.95,2.12.9,4.41,1.52,6.82,1.79,1.73.19,3.44.2,5.11.04.74.68,1.5,1.34,2.29,1.98-4.49.33-8.68,1.84-12.21,4.26Zm20.28,58.51c-.18.11-.36.21-.53.32.19-.33.37-.67.55-1,0,.23-.02.46-.02.68ZM250.71,37.52c0-.13,0-.25,0-.38.12.23.14.37,0,.38Zm-123.77-3.4c0-.13,0-.25,0-.38.12.23.14.37,0,.38Z"/>
            <path class="cls-13" d="m39.75,102.68c-.12-.03-.24-.06-.37-.09-4.33-.8-8.47,1.97-9.24,6.17-.43,2.34.28,4.63,1.73,6.35-2.58,3.88-4.43,8.32-5.32,13.16-2.86,15.56,4.97,30.67,18.39,38.18-.09.35-.19.7-.25,1.06-1.91,10.41,5.15,20.44,15.81,22.57,4.54,5.15,10.84,8.89,18.2,10.25,14.67,2.7,28.77-4.98,34.37-17.72,3.64,7.38,10.68,13.08,19.52,14.82,3.47,2.53,7.56,4.35,12.09,5.18,1.38.25-9.13-12.22-7.76-12.16-.87,12.17,7.83,23.38,20.47,25.7,13.54,2.49,26.47-6.15,28.89-19.29.99-5.37,11.94,1.96,9.58-2.59.49.12.99.22,1.49.31,7.62,1.4,15.08-.09,21.19-3.67,1.18.63,2.38,1.22,3.61,1.77-.67,1.48-1.19,3.05-1.5,4.71-2.08,11.3,5.68,22.2,17.32,24.33,11.64,2.14,22.77-5.29,24.84-16.59.68-3.68.29-7.32-.91-10.63,17.33-5.91,30.95-20.42,34.41-39.3,3.37-18.34-3.67-36.24-17.01-47.96,2.68-2.55,4.6-5.9,5.32-9.77,1.83-9.99-5.02-19.61-15.31-21.51-4.42-.81-8.76-.05-12.41,1.86-3.79-8.53-11.74-15.15-21.81-17-8.24-1.51-16.29.47-22.55,4.87-5.42-8.35-14.25-14.58-24.98-16.56-9.09-1.67-17.98,0-25.37,4.13-5.79-2.93-12.1-5.11-18.82-6.34-2.26-.42-4.52-.71-6.76-.9-5.95-5.05-13.31-8.69-21.61-10.21-4.57-.84-9.11-.98-13.49-.5-5.67-4.19-12.38-7.2-19.82-8.57-25.45-4.68-49.77,11.56-54.31,36.26-2.73,14.88,2.34,29.43,12.36,39.67Zm158.76,15.21c.03-.28.06-.56.09-.84.23-.12.46-.23.68-.35-.26.39-.52.79-.77,1.19Z"/>
            <g id="Main" class="cls-20">
              <path class="cls-10" d="m166.05,139.17s-87.01,21.48-106.08-85.86l13.08,2.77-4.08-13.8s31.77-7.84,61.12,9.63c19.22,11.45,37.41,33.75,44.96,76.23l34.18,5.12-34.46,41.32-8.72-35.42Z"/>
              <g>
                <polygon class="cls-9" points="150.34 102.33 137.28 103.04 136.5 115.82 124.3 118.61 125.39 129.76 112.06 133.29 107 130.63 120.41 126.39 119.59 114.91 132.14 111.7 133.28 98.5 146.65 97.41 144.72 84.78 160.3 84.16 163.06 89.57 148.14 90.03 150.34 102.33"/>
                <polygon class="cls-9" points="152.37 71.87 136.09 73.32 137.57 86.5 123.7 88.18 121.98 102.08 108.87 105.96 109.26 117.96 95.05 122.54 91.22 119.03 105.03 114.04 105.33 102.74 116.82 98.29 119.18 83.63 133.33 83.49 132.26 68.57 150.5 69.75 152.37 71.87"/>
              </g>
              <g>
                <path class="cls-9" d="m168.71,148.84l8.02.46-1.53-5.54,6.1-.31-.7-6.17,6.73.78-2.21-6.2,7.75-.78-.06-.02c-.09-.09-.21-.15-.34-.18l-8.9-.49,2.21,6.2-6.73-.78.7,6.17-6.1.31,1.53,5.54-6.61.55.14.46Z"/>
                <path class="cls-9" d="m203.51,132.65l-9.28,1.49c-.14,0-.25.13-.23.28l1.02,7.02c.02.14-.08.26-.22.28l-7.51.66c-.12.01-.21.1-.22.22l-.7,7.51c0,.1-.08.19-.18.21l-7.13,1.87c-.11.03-.19.13-.18.25l.42,6.46c0,.11-.06.21-.17.25l-7.27,2.35c-.2.07-.23.34-.04.44l.44,1.31c.05.03,1.88-.44,1.94-.46l7.86-1.65c.11-.03.19-.14.18-.26l-.57-6.24c-.01-.12.07-.23.19-.26l6.9-1.63c.1-.02.18-.11.19-.22l.49-7.24c0-.12.11-.22.23-.22l7.3-.45c.14,0,.25-.14.22-.28l-1.17-6.8c-.02-.14.08-.28.23-.28l7.05-3.75c.18,0,1.71-.56,1.64-.71l-.56.05c-.04-.09-.77-.21-.87-.2Z"/>
              </g>
              <circle class="cls-2" cx="97.68" cy="55.83" r="6.78"/>
              <ellipse class="cls-9" cx="97.72" cy="55.73" rx="2.99" ry="3.59" transform="translate(-14.62 49.77) rotate(-26.66)"/>
              <g class="cls-7">
                <path d="m91.88,93.02c-4.84,5.4-8.34,12.2-10.23,19.16-1.69,6.22,7.96,8.87,9.64,2.66,1.07-3.94,2.71-7.54,4.91-10.98,1.17-1.84,1.73-2.63,2.75-3.78,4.28-4.78-2.77-11.88-7.07-7.07h0Z"/>
              </g>
              <path class="cls-24" d="m81.7,81.61s-20.64,15.21,4.38,63.45c0,0-4.42-33.79,11.31-48.74,15.74-14.96-13.45-18.96-15.69-14.71Z"/>
              <path class="cls-18" d="m81.7,81.61s-20.64,15.21,4.38,63.45c0,0-4.42-33.79,11.31-48.74,15.74-14.96-13.45-18.96-15.69-14.71Z"/>
              <g class="cls-15">
                <path class="cls-2" d="m141.07,73.19c7.82,6.86,13.21,16.88,16.55,26.55,2.09,6.05,11.75,3.45,9.64-2.66-3.88-11.23-10.04-22.99-19.13-30.97-4.82-4.23-11.92,2.82-7.07,7.07h0Z"/>
              </g>
              <g class="cls-15">
                <path class="cls-2" d="m159.34,105.47c1.59,4.68,2.51,9.63,3.23,14.5.4,2.67,3.77,4.15,6.15,3.49,2.86-.79,3.89-3.47,3.49-6.15-.73-4.88-1.64-9.82-3.23-14.5-2.06-6.06-11.72-3.46-9.64,2.66h0Z"/>
              </g>
              <line class="cls-8" x1="73.11" y1="56.64" x2="60.69" y2="54.09"/>
            </g>
            <path class="cls-12" d="m260.62,133.46c.11,0,.22.02.33.02,3.79,0,6.86-2.86,6.86-6.4,0-1.97-.95-3.73-2.45-4.9,1.58-3.54,2.45-7.42,2.45-11.49,0-13.07-8.97-24.18-21.48-28.29.02-.3.05-.59.05-.9,0-8.75-7.53-15.85-16.88-15.98-4.64-3.51-10.55-5.61-16.98-5.61-12.83,0-23.56,8.35-26.31,19.53-4.22-5.46-11.07-9.04-18.81-9.13-3.32-1.54-7.07-2.41-11.03-2.41-1.21,0-2.39.08-3.56.24-1.15-10.03-10.25-17.83-21.3-17.83-11.84,0-21.43,8.95-21.43,19.99,0,4.51,1.61,8.68,4.31,12.03-.43-.02-.87-.03-1.31-.03-6.66,0-12.74,2.33-17.35,6.15-1.09-.34-2.2-.64-3.33-.9.34-1.3.54-2.65.54-4.05,0-9.5-8.25-17.19-18.43-17.19s-18.43,7.7-18.43,17.19c0,3.1.89,5.99,2.42,8.5-13.74,7.39-23,21.22-23,37.08s8.74,28.91,21.84,36.44c-1.87,2.47-2.98,5.48-2.98,8.74,0,8.39,7.29,15.19,16.29,15.19,3.87,0,7.42-1.26,10.21-3.36,4.53,6.36,12.28,10.56,21.08,10.56,7.21,0,13.7-2.82,18.31-7.33,5.88,5.98,14.32,9.73,23.7,9.73,7.94,0,15.21-2.69,20.82-7.14,5.35,1.52,11.02,2.35,16.9,2.35,1.98,0,3.93-.09,5.86-.27,5.82,3.22,12.61,5.07,19.86,5.07,4,0,7.85-.56,11.48-1.61,5.44,2.56,11.58,4,18.09,4,22.25,0,40.29-16.83,40.29-37.58,0-12.5-6.55-23.57-16.61-30.4Zm-136.61,11.34c.02.23.03.47.06.7-.17.13-.35.25-.52.38.16-.36.31-.72.47-1.08Z"/>
            <path class="cls-5" d="m244.95,133.94c.09,0,.18.01.28.01,3.21,0,5.81-1.92,5.81-4.29,0-1.32-.81-2.5-2.08-3.29,1.34-2.38,2.08-4.98,2.08-7.72,0-8.78-7.61-16.23-18.21-18.99.02-.2.04-.4.04-.6,0-5.87-6.39-10.64-14.31-10.73-3.93-2.35-8.94-3.77-14.4-3.77-10.88,0-19.98,5.6-22.31,13.11-3.58-3.66-9.38-6.07-15.95-6.13-2.82-1.03-5.99-1.62-9.35-1.62-1.02,0-2.03.06-3.01.16-.98-6.73-8.69-11.97-18.06-11.97-10.04,0-18.17,6.01-18.17,13.42,0,3.03,1.36,5.83,3.66,8.07-.37-.01-.74-.02-1.11-.02-5.65,0-10.8,1.56-14.71,4.13-.93-.23-1.87-.43-2.82-.6.29-.87.46-1.78.46-2.72,0-6.37-7-11.54-15.63-11.54s-15.63,5.17-15.63,11.54c0,2.08.75,4.02,2.06,5.71-11.65,4.96-19.5,14.25-19.5,24.89s7.41,19.41,18.52,24.46c-1.59,1.66-2.52,3.68-2.52,5.87,0,5.63,6.18,10.2,13.81,10.2,3.28,0,6.29-.85,8.66-2.26,3.84,4.27,10.41,7.09,17.87,7.09,6.11,0,11.62-1.89,15.52-4.92,4.98,4.01,12.14,6.53,20.09,6.53,6.73,0,12.89-1.81,17.65-4.8,4.53,1.02,9.35,1.57,14.33,1.57,1.68,0,3.33-.06,4.97-.18,4.93,2.16,10.69,3.4,16.84,3.4,3.39,0,6.66-.38,9.74-1.08,4.61,1.72,9.82,2.69,15.34,2.69,18.87,0,34.16-11.3,34.16-25.23,0-8.39-5.55-15.82-14.09-20.41Zm-115.84,7.61c.02.16.03.31.05.47-.15.09-.3.17-.44.26.14-.24.27-.48.4-.73Z"/>
            <ellipse class="cls-3" cx="211.51" cy="71.03" rx="14.11" ry="5.57"/>
            <ellipse class="cls-3" cx="230.34" cy="26.23" rx="11.51" ry="4.98"/>
            <ellipse class="cls-3" cx="185.02" cy="55.56" rx="4.34" ry="12.31" transform="translate(99.12 228.59) rotate(-80.31)"/>
            <ellipse class="cls-3" cx="236.36" cy="75.01" rx="3.55" ry="8.34" transform="translate(29.76 212.16) rotate(-51.18)"/>
            <ellipse class="cls-3" cx="274.29" cy="86.54" rx="5.13" ry="11.35" transform="translate(34.93 246.01) rotate(-51.18)"/>
            <ellipse class="cls-3" cx="130.86" cy="65.24" rx="11.09" ry="5.74"/>
          </g>
        </g>
        <path class="cls-23" d="m0,7.67v312.65c0,4.24,3.44,7.67,7.67,7.67h298.11c4.24,0,7.67-3.44,7.67-7.67V7.67c0-4.24-3.44-7.67-7.67-7.67H7.67C3.44,0,0,3.44,0,7.67Zm285.59,299.19H27.87c-4.24,0-7.67-3.44-7.67-7.67V28.81c0-4.24,3.44-7.67,7.67-7.67h257.71c4.24,0,7.67,3.44,7.67,7.67v270.38c0,4.24-3.44,7.67-7.67,7.67Z"/>
        <g class="cls-11">
          <g>
            <path class="cls-22" d="m94.34,129.31c-1.3.78-3.88,2.21-7.12,3.32-3.63,1.25-6.83,1.74-9.77,1.13-2.59-.54-4.81-2.18-5.84-4.71-1.98-4.84,1.77-10.69,10.5-13.67,3.01-1.03,5.52-1.34,6.75-1.34-.11.81-.16,1.21-.26,2.02-1.51.03-3.35.26-5.95,1.14-6.28,2.14-9.34,6.27-7.71,10.38,1.64,4.15,6.25,5.12,11.89,3.19,2.05-.7,3.39-1.35,4.03-1.83-.64-2-.96-3-1.6-5-2.03.65-3.04.99-5.06,1.69-.24-.69-.36-1.04-.6-1.73,3.3-1.14,4.96-1.68,8.29-2.69.98,3.24,1.48,4.86,2.46,8.1Z"/>
            <path class="cls-22" d="m109.26,126.16c-.24-.6-.37-.9-.61-1.5-.04.01-.07.02-.11.03-.77,1.19-2.46,2.5-4.96,3.14-3.55.91-5.84-.29-6.34-2.05-.84-2.94,2.59-5.74,9.67-7.34-.02-.1-.04-.15-.06-.26-.23-1.02-1.08-2.79-4.87-1.84-1.72.43-3.42,1.26-4.56,2.17-.46-.5-.7-.75-1.16-1.25,1.34-1.08,3.46-2.11,5.81-2.69,5.7-1.41,7.66.94,8.19,3.42.4,1.85.59,2.77.99,4.62.23,1.07.53,2.1.93,2.9-1.17.25-1.75.38-2.92.64Zm-1.92-6.18c-3.62.78-7.57,2.29-6.94,4.66.39,1.44,1.95,1.75,3.6,1.33,2.3-.58,3.53-1.93,3.81-3.1.06-.26.07-.53.02-.76-.2-.86-.29-1.28-.49-2.14Z"/>
            <path class="cls-22" d="m115.39,115.48c-.24-1.28-.48-2.33-.79-3.33,1.2-.23,1.8-.33,2.99-.54.2.79.3,1.19.51,1.98.05,0,.07-.01.12-.02.84-1.37,2.41-2.78,5.54-3.24,2.58-.38,4.68.42,5.67,1.8.03,0,.05,0,.08,0,.5-.77,1.17-1.4,1.91-1.88,1.07-.7,2.3-1.15,4.1-1.31,2.51-.23,6.33.6,6.61,4.98.19,2.97.29,4.46.48,7.43-1.28.08-1.91.13-3.19.23-.23-2.85-.34-4.28-.57-7.14-.19-2.42-1.64-3.79-4.4-3.51-1.95.19-3.36,1.33-3.81,2.51-.12.33-.18.76-.13,1.17.37,3.1.55,4.65.92,7.76-1.27.15-1.91.23-3.18.4-.4-3-.6-4.51-1-7.51-.27-1.99-1.78-3.28-4.38-2.89-2.13.32-3.49,1.72-3.83,2.95-.13.37-.14.77-.08,1.15.52,3.01.78,4.51,1.3,7.52-1.26.22-1.9.33-3.16.57-.68-3.63-1.02-5.44-1.7-9.06Z"/>
            <path class="cls-22" d="m149.55,115.08c.17,3.1,3.06,4.29,6.35,4.28,2.36,0,3.78-.27,5.03-.61.21.66.32.99.52,1.66-1.16.34-3.14.71-5.99.73-5.53.03-8.95-2.33-9.13-6.14-.18-3.81,3.07-7.01,8.63-7.05,6.23-.04,7.78,3.72,7.71,6.04-.01.47-.1.83-.14,1.07-5.19-.14-7.79-.14-12.98.02Zm9.88-1.73c.06-1.46-.85-3.78-4.72-3.75-3.48.03-4.95,2.24-5.17,3.84,3.95-.12,5.93-.14,9.89-.09Z"/>
            <path class="cls-22" d="m191.6,117.28c-.75,4.62-5.63,5.89-9.95,5.38-4.84-.58-8.38-3.35-8.07-7.33.33-4.22,4.7-6.39,9.95-5.76,5.45.66,8.69,3.9,8.07,7.71Zm-14.62-1.74c-.26,2.76,1.82,5.04,5.02,5.42,3.13.38,5.76-1.31,6.17-4.13.31-2.12-.88-5.07-4.93-5.56-4.05-.49-6.04,1.87-6.26,4.27Z"/>
            <path class="cls-22" d="m197.97,112.09c.95,3.07,1.41,4.61,2.26,7.68.37,1.25.64,2.37.79,3.47.04,0,.07.01.11.02.62-.94,1.36-1.85,2.21-2.84,2.02-2.47,3.05-3.69,5.16-6.11,1.42.34,2.13.51,3.54.87-4.17,4.16-6.18,6.28-10.03,10.62-1.23-.27-1.84-.4-3.07-.65-1.68-5.5-2.61-8.25-4.63-13.73,1.46.25,2.2.38,3.66.65Z"/>
            <path class="cls-22" d="m214.92,122.93c-.76,3.02,1.67,5.01,4.85,5.99,2.28.7,3.73.89,5.04.94,0,.7.01,1.04.01,1.74-1.23-.03-3.25-.27-6.01-1.11-5.35-1.64-7.93-4.91-6.97-8.6s5.04-5.78,10.42-4.14c6.02,1.83,6.41,5.89,5.65,8.09-.15.44-.34.77-.46.98-4.98-1.71-7.49-2.49-12.54-3.89Zm10.04,1.31c.49-1.38.3-3.87-3.45-5-3.37-1.02-5.43.65-6.12,2.11,3.85,1.07,5.76,1.65,9.57,2.89Z"/>
            <path class="cls-22" d="m232.51,125.64c.51-1.4.91-2.61,1.2-3.76,1.16.42,1.73.64,2.89,1.07-.31.94-.46,1.42-.77,2.36.06.02.09.03.15.06,1.42-1.28,3.79-1.51,5.99-.61.37.15.62.28.9.46-.33.8-.5,1.2-.83,2-.31-.19-.63-.35-1.07-.53-2.28-.93-4.36-.41-5.42,1.03-.18.27-.39.58-.53.95-.96,2.52-1.45,3.78-2.41,6.29-1.23-.47-1.84-.7-3.08-1.15,1.19-3.27,1.79-4.9,2.99-8.17Z"/>
            <path class="cls-22" d="m101.94,160.59c-.9-2.85-1.35-4.28-2.24-7.13-3.93-3.01-5.96-4.47-10.15-7.28,1.32-.47,1.97-.7,3.3-1.14,1.89,1.41,2.82,2.13,4.65,3.59,1.25,1,2.22,1.82,3.25,2.79.03,0,.04-.01.07-.02.28-1.29.69-2.61,1.17-4.14.73-2.24,1.11-3.36,1.91-5.59,1.34-.37,2.01-.54,3.36-.89-2.07,4.7-3.02,7.06-4.76,11.8.86,2.87,1.28,4.31,2.14,7.19-1.08.32-1.62.49-2.7.83Z"/>
            <path class="cls-22" d="m124.08,148.6c.8,4.61-2.72,7.3-6.36,8.09-4.07.89-7.82-.7-8.83-4.57-1.07-4.09,1.81-7.43,6.28-8.4,4.64-1.01,8.25,1.07,8.92,4.88Zm-12.36,2.73c.66,2.69,3.06,4.24,5.76,3.65,2.64-.57,4.24-2.97,3.7-5.77-.4-2.1-2.28-4.54-5.72-3.79-3.44.75-4.32,3.57-3.75,5.91Z"/>
            <path class="cls-22" d="m141.15,149.4c.11,1.3.24,2.44.41,3.43-.99.08-1.48.12-2.46.22-.14-.82-.21-1.22-.36-2.04-.03,0-.04,0-.06,0-.64,1.09-2.11,2.56-4.81,2.9-2.39.3-5.41-.35-6.1-4.74-.45-2.92-.68-4.38-1.13-7.3,1.18-.18,1.77-.27,2.96-.44.39,2.77.58,4.16.97,6.93.33,2.38,1.44,3.84,3.99,3.54,1.88-.23,3.07-1.42,3.49-2.49.13-.35.18-.78.14-1.2-.3-3.09-.46-4.63-.76-7.72,1.19-.12,1.78-.17,2.97-.27.3,3.67.46,5.5.76,9.16Z"/>
            <path class="cls-1" d="m152.51,134.65c1.21-.02,1.81-.03,3.03-.04.03,6.28.04,9.42.07,15.7,3.69-.02,5.54.02,9.22.19-.03.76-.05,1.14-.09,1.91-4.75-.22-7.13-.25-11.88-.15-.14-7.04-.21-10.56-.35-17.6Z"/>
            <path class="cls-1" d="m181.97,147.53c-.64,4.63-4.81,6.12-8.5,5.77-4.13-.39-7.19-3.05-6.98-7.04.23-4.23,3.96-6.53,8.49-6.1,4.7.45,7.51,3.53,6.99,7.36Zm-12.56-1.16c-.19,2.76,1.61,4.97,4.35,5.23,2.67.25,4.92-1.54,5.27-4.37.26-2.13-.79-5.02-4.27-5.35-3.49-.33-5.18,2.09-5.34,4.49Z"/>
            <path class="cls-1" d="m184.57,152.03c.76.57,2.14,1.27,3.53,1.51,2.02.35,3.12-.28,3.32-1.3.21-1.08-.48-1.85-2.46-2.82-2.65-1.3-3.83-2.72-3.6-4.22.31-2.01,2.69-3.36,6.17-2.72,1.64.3,3.01.95,3.83,1.54-.43.6-.64.89-1.06,1.49-.57-.43-1.65-1.07-3.14-1.35-1.73-.32-2.82.3-2.98,1.23-.17,1.03.71,1.65,2.64,2.64,2.58,1.33,3.73,2.7,3.35,4.55-.45,2.17-2.82,3.26-6.42,2.63-1.66-.29-3.14-.87-4.13-1.55.38-.65.57-.98.96-1.62Z"/>
            <path class="cls-1" d="m199.85,151.41c-.66,3.04,1.43,4.85,4.16,5.58,1.96.53,3.22.59,4.35.55,0,.69,0,1.03,0,1.72-1.06.07-2.8-.01-5.17-.64-4.6-1.23-6.81-4.3-5.98-8.02.83-3.72,4.35-6.06,9.02-4.82,5.23,1.38,5.54,5.35,4.87,7.57-.14.45-.3.78-.41,1-4.31-1.3-6.47-1.89-10.83-2.92Zm8.69.58c.44-1.4.28-3.83-2.97-4.69-2.92-.77-4.71,1.02-5.31,2.52,3.32.79,4.98,1.23,8.27,2.17Z"/>
            <path class="cls-1" d="m212.29,159.62c.29-.9,1.27-1.3,2.32-.95,1.12.37,1.6,1.26,1.3,2.15-.3.86-1.22,1.29-2.32.93-1.06-.35-1.58-1.26-1.3-2.13Zm1.92-3.3c1.38-4.83,2.06-7.24,3.41-12.08,1.29.42,1.93.63,3.21,1.07-1.81,4.68-2.71,7.03-4.49,11.72-.85-.29-1.28-.43-2.13-.71Z"/>
          </g>
        </g>
        <g id="Highlight">
          <ellipse class="cls-2" cx="11.14" cy="17.54" rx="3.64" ry="1.58" transform="translate(-8.67 11.26) rotate(-40.01)"/>
          <ellipse class="cls-2" cx="20.83" cy="11.89" rx="5.31" ry="2.42" transform="translate(-2.41 5.98) rotate(-15.45)"/>
        </g>
      </g>
    </g>
  </g>
</svg>