<?xml version="1.0" encoding="UTF-8"?>
<svg id="Layer_2" data-name="Layer 2" xmlns="http://www.w3.org/2000/svg" xmlns:xlink="http://www.w3.org/1999/xlink" viewBox="0 0 96.39 43.88">
  <defs>
    <style>
      .cls-1 {
        fill: #fff;
      }

      .cls-2 {
        fill: url(#New_Gradient_Swatch_copy_2);
      }

      .cls-3 {
        fill: none;
        stroke: #000;
        stroke-miterlimit: 10;
        stroke-width: .25px;
      }
    </style>
    <linearGradient id="New_Gradient_Swatch_copy_2" data-name="New Gradient Swatch copy 2" x1="29.18" y1="-11.82" x2="67.21" y2="55.7" gradientUnits="userSpaceOnUse">
      <stop offset="0" stop-color="#8cc63f"/>
      <stop offset=".49" stop-color="#39b54a"/>
      <stop offset="1" stop-color="#006837"/>
    </linearGradient>
  </defs>
  <g id="UI_elements" data-name="UI elements">
    <g id="Green_button" data-name="Green button">
      <rect class="cls-2" x="2.14" y="2.32" width="92.1" height="39.23" rx="2.6" ry="2.6"/>
      <g id="Highlight">
        <ellipse class="cls-1" cx="6.84" cy="9.61" rx="1.97" ry=".86" transform="translate(-4.57 6.65) rotate(-40.01)"/>
        <ellipse class="cls-1" cx="12.09" cy="6.55" rx="2.88" ry="1.31" transform="translate(-1.31 3.46) rotate(-15.45)"/>
      </g>
      <path class="cls-3" d="m.12,2.37v39.14c0,1.24,1,2.24,2.24,2.24h91.65c1.24,0,2.24-1,2.24-2.24V2.37c0-1.24-1-2.24-2.24-2.24H2.37C1.13.12.12,1.13.12,2.37Zm91.73,39.36H4.54c-1.32,0-2.39-1.1-2.39-2.45V4.59c0-1.35,1.07-2.45,2.39-2.45h87.32c1.32,0,2.39,1.1,2.39,2.45v34.69c0,1.35-1.07,2.45-2.39,2.45Z"/>
      <g>
        <path class="cls-1" d="m17.01,20.29c0,1.76-.86,3.26-2.18,3.96l2.52,3.69h-3.67l-1.84-3.04h-2.16v3.04h-2.95v-12.24h5.92c2.48,0,4.36,1.93,4.36,4.59Zm-7.33-1.85v3.73h2.54c1.01,0,1.82-.85,1.82-1.87s-.81-1.85-1.8-1.85h-2.56Z"/>
        <path class="cls-1" d="m28.83,15.69v2.74h-6.43v2.11h5.37v2.56h-5.37v2.11h6.43v2.74h-9.38v-12.24h9.38Z"/>
        <path class="cls-1" d="m40.71,19.57h-2.94c0-.61-.72-1.44-1.98-1.44-.88,0-1.96.4-1.96,1.1,0,.59.81.83,2.54,1.28,1.93.5,4.65,1.15,4.65,3.85,0,2.34-2.05,3.8-4.92,3.8-3.84,0-5.44-2.59-5.44-4.5h2.94s.23,1.94,2.67,1.94c1.31,0,1.8-.56,1.8-1.08,0-.77-1.03-1.04-2.16-1.31-1.84-.43-5.06-1.12-5.06-3.83,0-2.23,2.2-3.89,4.99-3.89,3.19,0,4.88,2.18,4.88,4.09Z"/>
        <path class="cls-1" d="m53.58,18.43h-4.34v9.51h-2.99v-9.51h-4.34v-2.74h11.67v2.74Z"/>
        <path class="cls-1" d="m62.2,26.03h-5.91l-.81,1.91h-3.13l5.24-12.24h3.29l5.26,12.24h-3.15l-.79-1.91Zm-1.03-2.41l-1.91-4.57-1.94,4.57h3.85Z"/>
        <path class="cls-1" d="m78.42,20.29c0,1.76-.86,3.26-2.18,3.96l2.52,3.69h-3.67l-1.84-3.04h-2.16v3.04h-2.95v-12.24h5.92c2.48,0,4.36,1.93,4.36,4.59Zm-7.33-1.85v3.73h2.54c1.01,0,1.82-.85,1.82-1.87s-.81-1.85-1.8-1.85h-2.56Z"/>
        <path class="cls-1" d="m91.1,18.43h-4.34v9.51h-2.99v-9.51h-4.34v-2.74h11.67v2.74Z"/>
      </g>
    </g>
  </g>
</svg>