<?xml version="1.0" encoding="UTF-8"?>
<svg id="Layer_2" data-name="Layer 2" xmlns="http://www.w3.org/2000/svg" xmlns:xlink="http://www.w3.org/1999/xlink" viewBox="0 0 313.46 328">
  <defs>
    <style>
      .cls-1 {
        fill: #fff;
      }

      .cls-2 {
        filter: url(#drop-shadow-1);
      }

      .cls-3 {
        fill: #2e3192;
      }

      .cls-4 {
        fill: #009245;
      }

      .cls-4, .cls-5 {
        stroke: #000;
        stroke-miterlimit: 10;
        stroke-width: .25px;
      }

      .cls-6 {
        filter: url(#drop-shadow-2);
      }

      .cls-5 {
        fill: #00267c;
      }

      .cls-7 {
        fill: url(#linear-gradient);
      }
    </style>
    <linearGradient id="linear-gradient" x1="68.11" y1="6.64" x2="232.43" y2="298.42" gradientUnits="userSpaceOnUse">
      <stop offset="0" stop-color="#f7bb48"/>
      <stop offset=".39" stop-color="#f7931e"/>
      <stop offset="1" stop-color="#f15a24"/>
    </linearGradient>
    <filter id="drop-shadow-1" filterUnits="userSpaceOnUse">
      <feOffset dx="2" dy="2"/>
      <feGaussianBlur result="blur" stdDeviation="1"/>
      <feFlood flood-color="#000" flood-opacity=".5"/>
      <feComposite in2="blur" operator="in"/>
      <feComposite in="SourceGraphic"/>
    </filter>
    <filter id="drop-shadow-2" filterUnits="userSpaceOnUse">
      <feOffset dx="5" dy="5"/>
      <feGaussianBlur result="blur-2" stdDeviation="4"/>
      <feFlood flood-color="#000" flood-opacity=".25"/>
      <feComposite in2="blur-2" operator="in"/>
      <feComposite in="SourceGraphic"/>
    </filter>
  </defs>
  <g id="UI_elements" data-name="UI elements">
    <rect class="cls-1" x="21" y="21" width="272.26" height="285.99"/>
    <path class="cls-7" d="m0,7.67v312.65c0,4.24,3.44,7.67,7.67,7.67h298.11c4.24,0,7.67-3.44,7.67-7.67V7.67c0-4.24-3.44-7.67-7.67-7.67H7.67C3.44,0,0,3.44,0,7.67Zm285.59,299.19H27.87c-4.24,0-7.67-3.44-7.67-7.67V28.81c0-4.24,3.44-7.67,7.67-7.67h257.71c4.24,0,7.67,3.44,7.67,7.67v270.38c0,4.24-3.44,7.67-7.67,7.67Z"/>
    <g id="Highlight">
      <ellipse class="cls-1" cx="10.91" cy="14.54" rx="3.64" ry="1.58" transform="translate(-6.8 10.41) rotate(-40.01)"/>
      <ellipse class="cls-1" cx="20.6" cy="8.89" rx="5.31" ry="2.42" transform="translate(-1.62 5.81) rotate(-15.45)"/>
    </g>
  </g>
  <g id="Layer_7" data-name="Layer 7">
    <g class="cls-2">
      <g>
        <path class="cls-5" d="m85.86,51.44c-5.97,1.82-8.93,2.83-14.8,5.05,1.65,4.36,2.48,6.54,4.13,10.9,4.66-1.76,7.01-2.58,11.73-4.08,1.36,4.3,2.05,6.45,3.41,10.76-4.49,1.42-6.72,2.2-11.15,3.88,2.34,6.18,3.51,9.27,5.85,15.45-2.25.85-3.37,1.3-5.6,2.22-6.47-15.66-12.95-31.32-19.42-46.97,8.89-3.68,13.41-5.29,22.53-8.08,1.33,4.35,1.99,6.52,3.32,10.87Z"/>
        <path class="cls-5" d="m107.63,86.35c-2.31.57-3.47.88-5.77,1.52-4.57-16.32-9.13-32.63-13.7-48.95,2.89-.81,4.34-1.19,7.24-1.91,4.08,16.45,8.15,32.89,12.23,49.34Z"/>
        <path class="cls-5" d="m127.67,47.41c-2.75.33-4.12.52-6.86.93-.38-2.51-2.61-5.67-5.62-5.15-2.11.36-4.37,2.46-3.82,5.32.46,2.42,2.55,2.99,6.8,4.18,4.75,1.33,11.23,3.25,12.53,14.39,1.13,9.65-2.25,16.1-7.9,17.05-7.57,1.27-13.05-8.41-14.79-16.14,2.52-.56,3.78-.83,6.3-1.32,0,0,2.01,7.77,7.07,6.93,2.73-.45,3.41-2.88,3.1-5.02-.47-3.18-2.85-3.98-5.51-4.66-4.29-1.1-11.99-2.37-14.44-13.39-2.01-9.05,1.93-17.01,8.9-18.2,7.96-1.36,13.3,7.21,14.24,15.07Z"/>
        <path class="cls-5" d="m150.3,50.21c3.97,10.03,7.83,20.03,10.94,30.37-3.07-.09-4.61-.1-7.69-.07-2.77-8.37-4.3-12.54-7.63-20.81-1.7,3.91-2.51,5.87-4.04,9.8.3,4.57.45,6.85.74,11.41-2.36.15-3.54.25-5.9.47-1.6-16.87-3.2-33.74-4.8-50.6,2.96-.28,4.44-.4,7.41-.59.58,8.92.87,13.38,1.45,22.31,3.7-9.2,5.77-13.77,10.32-22.79,3.73-.07,5.6-.07,9.33,0-4.4,8.11-6.42,12.22-10.13,20.49Z"/>
        <path class="cls-4" d="m193.05,76c-4.86-.89-7.3-1.27-12.2-1.87-1.06,3.06-1.57,4.6-2.58,7.67-2.5-.29-3.75-.41-6.26-.62,5.12-16.69,10.87-33,17.32-49.22,3.29.45,4.94.7,8.22,1.26,1.32,17.41,1.93,34.7,1.85,52.16-2.48-.56-3.72-.82-6.21-1.3-.03-3.23-.05-4.85-.13-8.09Zm-.4-10.25c-.35-7.77-.6-11.66-1.25-19.44-2.98,7.22-4.4,10.86-7.1,18.16,3.34.45,5.01.7,8.34,1.28Z"/>
        <path class="cls-4" d="m234.57,54.49c-5.91-2.07-8.89-3.01-14.89-4.68-1.25,4.49-1.88,6.74-3.13,11.23,4.76,1.33,7.13,2.06,11.84,3.65-1.45,4.28-2.17,6.41-3.62,10.69-4.47-1.51-6.72-2.21-11.25-3.47-1.78,6.37-2.66,9.55-4.44,15.91-2.3-.64-3.45-.95-5.77-1.52,4.06-16.45,8.12-32.9,12.19-49.35,9.23,2.28,13.81,3.64,22.84,6.81-1.5,4.29-2.26,6.43-3.76,10.72Z"/>
        <path class="cls-4" d="m234.08,89.82c-1.48,3.59-4.23,6.01-6.1,5.28-1.77-.69-2.16-4.35-.81-7.99,1.43-3.86,4.26-6.4,6.16-5.65,2.01.79,2.32,4.56.75,8.36Zm3.2-10.24c-2.17-.89-3.26-1.32-5.45-2.14,3.85-10.61,7.69-21.23,11.52-31.85,2.86,1.07,4.29,1.63,7.12,2.8-4.41,10.39-8.8,20.79-13.19,31.19Z"/>
      </g>
    </g>
    <g class="cls-6">
      <g>
        <path class="cls-3" d="m45.39,110.81c-1.26.11-1.9.16-3.16.28-.05-.61-.9-1.37-2.26-1.24-.95.09-2.08.59-2.02,1.29.05.59.95.74,2.85,1.02,2.12.32,5.1.71,5.33,3.4.2,2.33-1.87,3.97-4.93,4.25-4.1.37-6.06-2.04-6.24-3.94,1.26-.12,1.89-.18,3.15-.29,0,0,.43,1.91,3.03,1.68,1.41-.13,1.88-.73,1.83-1.25-.07-.77-1.19-.94-2.44-1.1-2.01-.25-5.54-.61-5.79-3.32-.21-2.22,2.01-4.1,5.02-4.37,3.44-.31,5.46,1.71,5.62,3.61Z"/>
        <path class="cls-3" d="m57.5,116.31c-2.53.2-3.8.3-6.33.5-.28.79-.43,1.18-.71,1.97-1.34.11-2.01.17-3.35.28,1.83-5.07,2.75-7.6,4.62-12.67,1.42-.12,2.14-.17,3.56-.28,2.65,4.7,3.97,7.06,6.58,11.78-1.35.1-2.02.15-3.37.25-.4-.74-.6-1.1-1-1.84Zm-1.29-2.32c-.96-1.76-1.44-2.64-2.41-4.4-.69,1.89-1.04,2.84-1.73,4.73,1.66-.13,2.48-.2,4.14-.33Z"/>
        <path class="cls-3" d="m72.47,117.15c-1.39.09-2.08.14-3.47.23-2.66-4.73-3.99-7.09-6.69-11.8,1.41-.1,2.11-.15,3.52-.25,1.89,3.38,2.83,5.07,4.69,8.45,1.39-3.6,2.09-5.4,3.5-9,1.41-.09,2.11-.13,3.53-.22-2.05,5.03-3.07,7.55-5.08,12.59Z"/>
        <path class="cls-3" d="m89.82,103.87c.06,1.09.08,1.64.14,2.73-2.78.14-4.16.22-6.94.38.05.84.07,1.26.12,2.1,2.31-.13,3.47-.2,5.78-.32.05,1.02.08,1.53.13,2.55-2.31.12-3.46.18-5.77.32.05.84.07,1.26.12,2.1,2.76-.16,4.14-.23,6.9-.37.06,1.09.08,1.64.14,2.73-4.02.21-6.03.32-10.05.56-.29-4.89-.44-7.33-.73-12.22,4.06-.24,6.09-.35,10.15-.56Z"/>
        <path class="cls-3" d="m108.97,105.76c-1.87.07-2.81.11-4.69.18.15,3.8.23,5.7.39,9.5-1.28.05-1.92.08-3.21.13-.16-3.8-.25-5.7-.41-9.5-1.87.08-2.81.12-4.69.21-.05-1.09-.08-1.64-.13-2.73,5.05-.24,7.58-.34,12.63-.53.04,1.09.06,1.64.1,2.73Z"/>
        <path class="cls-3" d="m123.61,114.82c-1.27.03-1.91.05-3.19.09-.05-1.9-.08-2.85-.13-4.75-2.32.07-3.48.1-5.8.18.06,1.9.09,2.85.16,4.75-1.27.04-1.9.06-3.17.11-.17-4.89-.26-7.34-.43-12.24,1.28-.05,1.92-.07,3.2-.11.06,1.9.09,2.85.16,4.75,2.32-.08,3.48-.11,5.81-.18-.05-1.9-.08-2.85-.13-4.75,1.29-.04,1.93-.05,3.22-.09.13,4.9.19,7.34.32,12.24Z"/>
        <path class="cls-3" d="m136.41,102.3c.02,1.09.03,1.64.04,2.74-2.78.04-4.17.07-6.95.13.02.84.03,1.26.04,2.11,2.32-.05,3.47-.07,5.79-.11.02,1.02.03,1.53.04,2.56-2.31.04-3.47.06-5.78.11.02.84.03,1.26.04,2.11,2.76-.06,4.15-.08,6.91-.13.02,1.09.03,1.64.04,2.74-4.03.06-6.04.1-10.06.2-.12-4.9-.17-7.34-.29-12.24,4.06-.1,6.1-.14,10.16-.2Z"/>
        <path class="cls-3" d="m156.46,108.26c0,3.49-3.05,6.34-6.78,6.36-3.77.02-6.81-2.79-6.85-6.28-.04-3.47,2.97-6.37,6.78-6.39,3.76-.02,6.85,2.84,6.85,6.32Zm-10.71.05c.02,2,1.77,3.59,3.92,3.57,2.11-.01,3.85-1.62,3.84-3.62,0-1.98-1.76-3.58-3.88-3.57-2.16.01-3.9,1.63-3.88,3.61Z"/>
        <path class="cls-3" d="m171.19,111.49c-1.2,1.82-3.4,3.15-6.18,3.13-4.11-.03-7.11-2.83-7.1-6.45,0-3.4,3.03-6.25,7.18-6.22,2.83.02,5.04,1.26,6.21,3.11-1.09.57-1.63.86-2.72,1.43-.61-1.12-1.83-1.87-3.51-1.88-2.32-.01-3.94,1.55-3.94,3.56,0,1.94,1.59,3.66,3.9,3.67,1.63.01,2.83-.75,3.48-1.83,1.07.59,1.61.88,2.68,1.47Z"/>
        <path class="cls-3" d="m183.59,102.41c-.02,1.09-.03,1.64-.06,2.74-2.78-.06-4.17-.08-6.95-.12-.01.84-.02,1.26-.03,2.11,2.32.03,3.47.05,5.79.1-.02,1.02-.03,1.53-.05,2.56-2.31-.04-3.47-.06-5.78-.1-.01.84-.02,1.26-.03,2.11,2.76.04,4.15.07,6.91.12-.02,1.09-.03,1.64-.06,2.74-4.03-.08-6.04-.11-10.06-.17.06-4.9.09-7.35.15-12.24,4.06.05,6.1.08,10.16.17Z"/>
        <path class="cls-3" d="m195.76,113.05c-2.54-.08-3.81-.11-6.34-.17-.37.75-.55,1.13-.92,1.89-1.34-.03-2.02-.05-3.36-.08,2.35-4.85,3.54-7.27,5.94-12.1,1.43.04,2.14.06,3.57.1,2.14,4.96,3.19,7.44,5.29,12.41-1.35-.04-2.03-.07-3.38-.11-.32-.77-.48-1.16-.79-1.93Zm-1.03-2.44c-.77-1.85-1.15-2.78-1.93-4.63-.89,1.81-1.33,2.71-2.22,4.52,1.66.04,2.49.07,4.15.11Z"/>
        <path class="cls-3" d="m214.89,115.68c-1.27-.06-1.91-.08-3.19-.14-2.53-3.11-3.8-4.66-6.36-7.75-.11,2.99-.17,4.49-.28,7.49-1.27-.05-1.91-.07-3.19-.11.17-4.89.25-7.34.42-12.24,1.29.04,1.93.07,3.22.12,2.57,3.09,3.85,4.63,6.39,7.73.13-2.99.19-4.48.32-7.47,1.29.05,1.93.08,3.22.14-.22,4.89-.33,7.34-.55,12.23Z"/>
        <path class="cls-3" d="m220.98,114.45c-.05.94-.93,1.68-2,1.63-1-.05-1.84-.88-1.79-1.82.05-.99.95-1.76,1.96-1.71,1.06.05,1.88.9,1.83,1.89Zm-.34-2.59c-1.14-.06-1.71-.08-2.85-.14.08-3.26.11-4.89.19-8.16,1.29.06,1.94.09,3.23.16-.23,3.26-.35,4.88-.58,8.14Z"/>
        <path class="cls-3" d="m240.02,117.05c-1.27-.08-1.91-.12-3.18-.2.12-1.9.18-2.85.29-4.74-2.32-.14-3.47-.21-5.79-.34-.11,1.9-.16,2.85-.27,4.75-1.27-.07-1.9-.11-3.16-.18.27-4.89.4-7.33.67-12.22,1.28.07,1.92.11,3.19.18-.11,1.9-.16,2.85-.27,4.75,2.32.13,3.48.2,5.8.35.12-1.9.18-2.85.29-4.74,1.29.08,1.93.12,3.21.2l-.79,12.22Z"/>
        <path class="cls-3" d="m253.91,105.74c-.08,1.09-.12,1.64-.2,2.73-2.77-.21-4.16-.31-6.93-.5-.06.84-.09,1.26-.15,2.1,2.31.16,3.47.24,5.78.41-.07,1.02-.11,1.53-.19,2.55-2.31-.17-3.46-.25-5.77-.41-.06.84-.09,1.26-.15,2.1,2.76.19,4.14.29,6.9.49-.08,1.09-.12,1.64-.2,2.73-4.02-.3-6.03-.44-10.05-.71.33-4.89.49-7.33.81-12.22,4.06.27,6.09.41,10.14.71Z"/>
        <path class="cls-3" d="m258.94,115.65c2.76.22,4.14.33,6.89.56-.09,1.09-.14,1.64-.23,2.73-4.02-.34-6.02-.5-10.04-.81.37-4.88.56-7.32.93-12.21,1.28.1,1.91.15,3.19.25-.3,3.79-.45,5.69-.75,9.48Z"/>
        <path class="cls-3" d="m279.48,112.63c-.23,2.4-2.09,4.57-5.45,4.27-1.14-.1-1.71-.15-2.86-.26-.1,1.1-.15,1.66-.24,2.76-1.27-.11-1.91-.17-3.18-.28.42-4.88.63-7.32,1.05-12.2,2.44.21,3.66.32,6.11.54,3.38.31,4.8,2.79,4.57,5.16Zm-7.71-2.69c-.14,1.6-.21,2.4-.35,4,1.01.09,1.51.13,2.51.22,1.28.12,2.21-.5,2.33-1.83.12-1.31-.69-2.04-1.97-2.17-1.01-.09-1.51-.14-2.52-.23Z"/>
        <path class="cls-3" d="m62.92,131.8c.13,1.76-.67,3.32-2.01,4.12,1.18,1.39,1.76,2.09,2.93,3.48-1.55.11-2.32.17-3.87.29-.87-1.15-1.3-1.73-2.17-2.88-.91.07-1.37.11-2.28.18.1,1.21.15,1.82.24,3.03-1.24.1-1.86.15-3.11.25-.4-4.88-.6-7.32-1.01-12.2,2.52-.21,3.78-.31,6.3-.5,2.64-.2,4.77,1.57,4.97,4.23Zm-7.91-1.25c.12,1.49.18,2.23.3,3.72,1.07-.09,1.61-.13,2.68-.21,1.07-.08,1.86-.99,1.78-2.02-.08-1-1-1.78-2.05-1.7-1.08.08-1.63.13-2.71.21Z"/>
        <path class="cls-3" d="m75.16,126.35c.07,1.09.1,1.64.17,2.73-2.73.17-4.09.27-6.82.45.06.84.09,1.26.15,2.1,2.27-.16,3.41-.23,5.68-.38.07,1.02.1,1.53.17,2.55-2.27.15-3.4.22-5.67.38.06.84.09,1.26.15,2.1,2.71-.19,4.07-.28,6.78-.45.07,1.09.1,1.64.17,2.73-3.95.25-5.93.39-9.88.67-.35-4.88-.53-7.33-.88-12.21,3.99-.29,5.98-.42,9.98-.68Z"/>
        <path class="cls-3" d="m94.36,137.53c-1.25.06-1.88.09-3.13.16-.13-2.5-.19-3.74-.32-6.24-1.11,2.56-1.67,3.84-2.77,6.4-1.39.08-2.08.11-3.47.19-1.38-2.42-2.07-3.64-3.46-6.06.15,2.49.22,3.74.37,6.24-1.24.07-1.87.11-3.11.19-.3-4.89-.45-7.33-.76-12.22,1.39-.09,2.09-.13,3.49-.21,2.03,3.48,3.04,5.22,5.04,8.71,1.6-3.69,2.4-5.53,4.02-9.21,1.4-.07,2.1-.11,3.51-.18.24,4.89.36,7.34.6,12.23Z"/>
        <path class="cls-3" d="m109.48,130.75c.13,3.49-2.76,6.44-6.43,6.6-3.7.16-6.8-2.54-6.96-6.03-.17-3.47,2.69-6.48,6.43-6.63,3.7-.16,6.84,2.59,6.97,6.07Zm-10.53.44c.09,2,1.88,3.52,3.99,3.43,2.07-.09,3.72-1.76,3.64-3.75-.08-1.98-1.86-3.51-3.95-3.42-2.12.09-3.77,1.77-3.68,3.75Z"/>
        <path class="cls-3" d="m120.09,136.52c-1.37.04-2.05.06-3.42.1-2.44-4.82-3.67-7.23-6.16-12.04,1.39-.05,2.08-.07,3.47-.12,1.74,3.44,2.6,5.17,4.31,8.62,1.49-3.55,2.24-5.32,3.76-8.86,1.39-.04,2.08-.06,3.47-.09-2.2,4.95-3.28,7.43-5.43,12.39Z"/>
        <path class="cls-3" d="m137.61,123.89c.02,1.09.02,1.64.04,2.74-2.73.04-4.1.07-6.83.12.02.84.03,1.26.04,2.11,2.28-.05,3.42-.07,5.69-.1.02,1.02.02,1.53.04,2.56-2.27.04-3.41.06-5.68.1.02.84.03,1.26.04,2.11,2.72-.06,4.08-.08,6.8-.12.02,1.09.02,1.64.04,2.74-3.96.06-5.94.1-9.9.19-.11-4.9-.17-7.34-.28-12.24,4-.09,5.99-.13,9.99-.19Z"/>
        <path class="cls-3" d="m156.36,126.48c-1.84,0-2.77,0-4.61.01.02,3.8.02,5.7.04,9.51-1.26,0-1.89,0-3.15.02-.03-3.8-.04-5.7-.06-9.51-1.84.01-2.77.02-4.61.04-.01-1.09-.02-1.64-.03-2.74,4.97-.05,7.46-.06,12.43-.07,0,1.09,0,1.64,0,2.74Z"/>
        <path class="cls-3" d="m170.42,136.05c-1.25-.01-1.88-.02-3.13-.03.02-1.9.02-2.85.04-4.75-2.28-.02-3.42-.02-5.7-.03,0,1.9-.01,2.85-.02,4.75-1.25,0-1.87,0-3.12,0,0-4.9,0-7.35.01-12.24,1.26,0,1.89,0,3.15,0,0,1.9-.01,2.85-.02,4.75,2.29,0,3.43.01,5.71.03.02-1.9.02-2.85.04-4.75,1.27.01,1.9.02,3.16.03-.05,4.9-.08,7.35-.13,12.24Z"/>
        <path class="cls-3" d="m183.45,124.01c-.02,1.09-.03,1.64-.06,2.74-2.73-.06-4.1-.08-6.83-.12-.01.84-.02,1.26-.03,2.11,2.28.03,3.42.05,5.69.1-.02,1.02-.03,1.53-.05,2.56-2.27-.04-3.41-.06-5.68-.1-.01.84-.02,1.26-.03,2.11,2.72.04,4.08.07,6.8.12-.02,1.09-.03,1.64-.06,2.74-3.96-.08-5.94-.11-9.9-.16.06-4.9.09-7.35.16-12.24,4,.05,6,.08,9.99.17Z"/>
        <path class="cls-3" d="m202.1,127.27c-1.84-.06-2.77-.1-4.61-.15-.12,3.8-.18,5.7-.3,9.5-1.26-.04-1.89-.06-3.15-.1.11-3.8.17-5.7.28-9.5-1.84-.05-2.77-.08-4.61-.13.03-1.09.04-1.64.07-2.74,4.97.13,7.45.2,12.42.38-.04,1.09-.06,1.64-.1,2.73Z"/>
        <path class="cls-3" d="m215.07,129.65c-.08,1.76-1.06,3.21-2.48,3.85,1,1.52,1.5,2.28,2.5,3.81-1.55-.07-2.32-.1-3.87-.17-.72-1.25-1.08-1.87-1.81-3.12-.91-.04-1.37-.06-2.28-.09-.05,1.22-.07,1.82-.12,3.04-1.25-.05-1.87-.07-3.11-.12.18-4.89.27-7.34.45-12.23,2.52.09,3.78.14,6.31.25,2.65.11,4.55,2.13,4.43,4.79Zm-7.7-2.18c-.06,1.49-.09,2.23-.15,3.72,1.08.04,1.61.06,2.69.11,1.07.04,1.96-.76,2.01-1.79.04-1.01-.78-1.89-1.83-1.93-1.09-.04-1.63-.07-2.72-.11Z"/>
        <path class="cls-3" d="m227.03,136c-2.49-.14-3.74-.2-6.23-.33-.38.75-.57,1.12-.95,1.86-1.32-.07-1.98-.1-3.3-.16,2.44-4.79,3.67-7.18,6.15-11.96,1.4.07,2.1.11,3.51.18,1.97,5.01,2.95,7.52,4.88,12.54-1.33-.08-1.99-.12-3.32-.19-.29-.78-.44-1.17-.73-1.95Zm-.95-2.47c-.71-1.87-1.06-2.81-1.78-4.67-.92,1.78-1.38,2.68-2.3,4.46,1.63.08,2.44.13,4.07.21Z"/>
        <path class="cls-3" d="m242.41,130.46c-1.24-.08-1.87-.12-3.11-.2.04-.61-.67-1.49-2.01-1.57-.94-.06-2.11.27-2.15.97-.04.59.81.88,2.61,1.44,2.01.63,4.85,1.47,4.66,4.17-.16,2.34-2.42,3.64-5.43,3.45-4.04-.25-5.58-2.94-5.47-4.84,1.24.07,1.86.11,3.1.19,0,0,.13,1.95,2.69,2.12,1.39.09,1.94-.44,1.97-.96.05-.77-1.02-1.11-2.2-1.46-1.91-.55-5.29-1.44-5.13-4.15.13-2.23,2.57-3.75,5.53-3.56,3.39.21,5.05,2.51,4.92,4.42Z"/>
        <path class="cls-3" d="m256.35,139.86c-1.25-.1-1.88-.15-3.13-.24.14-1.9.22-2.84.36-4.74-2.28-.17-3.41-.26-5.69-.42-.14,1.9-.2,2.84-.34,4.74-1.24-.09-1.87-.13-3.11-.22.34-4.89.5-7.33.84-12.21,1.26.09,1.88.13,3.14.22-.14,1.9-.2,2.84-.34,4.74,2.28.16,3.42.25,5.7.42.14-1.9.22-2.84.36-4.74,1.26.1,1.89.14,3.16.24-.38,4.88-.57,7.32-.96,12.21Z"/>
        <path class="cls-3" d="m262.82,139.81c-1.45,1.23-2.18,1.85-3.63,3.08-.7-.62-1.06-.93-1.76-1.55,1.18-1.47,1.76-2.2,2.95-3.67.98.85,1.47,1.28,2.44,2.13Z"/>
        <path class="cls-3" d="m59.65,149.1c-1.54,5.03-2.3,7.55-3.81,12.58-1.25.1-1.88.15-3.13.26-1.33-3.09-2-4.63-3.35-7.72-.93,3.28-1.39,4.92-2.3,8.21-1.27.11-1.9.17-3.17.28-2.13-4.72-3.2-7.08-5.36-11.8,1.32-.12,1.97-.19,3.29-.31,1.35,3.07,2.02,4.6,3.36,7.67.87-3.27,1.32-4.9,2.21-8.17,1.35-.12,2.02-.18,3.37-.29,1.3,3.06,1.95,4.59,3.24,7.66.92-3.25,1.39-4.87,2.32-8.12,1.32-.11,1.99-.16,3.31-.26Z"/>
        <path class="cls-3" d="m65.74,160.92c-1.22.09-1.83.14-3.06.23l-.92-12.21c1.23-.09,1.85-.14,3.09-.23.36,4.88.54,7.33.89,12.21Z"/>
        <path class="cls-3" d="m79.32,150.48c-1.81.11-2.72.17-4.53.29.25,3.79.37,5.69.62,9.49-1.24.08-1.86.12-3.1.21-.26-3.79-.39-5.69-.64-9.48-1.81.12-2.72.19-4.53.32-.08-1.09-.12-1.64-.2-2.73,4.88-.35,7.32-.51,12.2-.81.07,1.09.1,1.64.17,2.73Z"/>
        <path class="cls-3" d="m93.71,159.19c-1.23.06-1.85.09-3.08.16-.1-1.9-.15-2.85-.25-4.75-2.24.12-3.36.18-5.6.31.11,1.9.16,2.85.27,4.75-1.22.07-1.84.11-3.06.18-.29-4.89-.44-7.33-.74-12.22,1.24-.07,1.85-.11,3.09-.18.11,1.9.16,2.85.27,4.75,2.24-.13,3.37-.19,5.61-.31-.1-1.9-.15-2.85-.25-4.75,1.24-.07,1.86-.1,3.11-.16.25,4.89.37,7.34.62,12.23Z"/>
        <path class="cls-3" d="m108.58,152.4c.13,3.49-2.7,6.45-6.3,6.6-3.64.16-6.69-2.54-6.86-6.03-.17-3.47,2.63-6.48,6.3-6.64,3.64-.16,6.73,2.59,6.86,6.06Zm-10.35.44c.09,2,1.85,3.52,3.93,3.43,2.04-.09,3.66-1.76,3.57-3.76-.08-1.98-1.84-3.51-3.89-3.42-2.09.09-3.7,1.77-3.61,3.75Z"/>
        <path class="cls-3" d="m122.27,151.78c.11,4.05-2.47,6.57-6.02,6.68-3.6.12-6.14-2.23-6.29-6.28-.09-2.38-.13-3.57-.22-5.95,1.24-.05,1.85-.07,3.09-.11.08,2.38.13,3.57.21,5.96.08,2.36,1.18,3.72,3.12,3.66,1.91-.06,3.06-1.5,2.99-3.86-.07-2.38-.11-3.57-.18-5.96,1.25-.04,1.88-.06,3.13-.09.07,2.38.1,3.57.17,5.96Z"/>
        <path class="cls-3" d="m135.83,148.25c-1.81.03-2.72.05-4.53.08.08,3.8.12,5.7.19,9.5-1.24.03-1.86.04-3.1.07-.09-3.8-.13-5.7-.22-9.5-1.81.04-2.72.06-4.53.11-.03-1.09-.04-1.64-.07-2.74,4.89-.13,7.33-.18,12.22-.27.02,1.09.03,1.64.05,2.74Z"/>
        <path class="cls-3" d="m154.23,157.58c-1.23,0-1.85,0-3.08.01,0-1.9-.01-2.85-.02-4.75-2.24.01-3.36.02-5.6.04.02,1.9.03,2.85.04,4.75-1.23.01-1.84.02-3.06.03-.06-4.9-.09-7.35-.14-12.24,1.24-.01,1.86-.02,3.09-.03.02,1.9.03,2.85.04,4.75,2.25-.02,3.37-.03,5.62-.04,0-1.9-.01-2.85-.02-4.75,1.24,0,1.87,0,3.11-.01.01,4.9.02,7.35.03,12.24Z"/>
        <path class="cls-3" d="m168.74,151.35c-.04,4.05-2.71,6.47-6.26,6.46-3.6-.02-6.05-2.46-6.05-6.51,0-2.38,0-3.58,0-5.96,1.24,0,1.86,0,3.09,0,0,2.38,0,3.58-.01,5.96,0,2.36,1.04,3.76,2.99,3.77,1.91,0,3.12-1.39,3.13-3.75l.04-5.96c1.25,0,1.88.01,3.13.03-.02,2.38-.03,3.58-.06,5.96Z"/>
        <path class="cls-3" d="m181.69,150.17c-.03,1.76-.96,3.24-2.34,3.92,1.02,1.49,1.53,2.24,2.55,3.74-1.52-.03-2.29-.04-3.81-.07-.74-1.23-1.11-1.84-1.86-3.07-.9-.01-1.35-.02-2.25-.03-.02,1.22-.02,1.83-.04,3.04-1.22-.02-1.84-.02-3.06-.04.05-4.9.08-7.35.14-12.24,2.48.03,3.72.04,6.2.08,2.6.04,4.53,2.01,4.47,4.67Zm-7.62-1.98c-.02,1.49-.03,2.24-.05,3.73,1.06.01,1.59.02,2.64.04,1.05.02,1.91-.82,1.93-1.84.02-1.01-.82-1.87-1.85-1.89-1.07-.02-1.6-.02-2.67-.04Z"/>
        <path class="cls-3" d="m194.97,148.65c-1.81-.05-2.72-.08-4.53-.13-.1,3.8-.15,5.7-.25,9.5-1.24-.03-1.86-.05-3.1-.08l.23-9.5c-1.81-.04-2.72-.06-4.53-.1.02-1.09.03-1.64.06-2.74,4.89.1,7.33.16,12.22.31-.03,1.09-.05,1.64-.08,2.74Z"/>
        <path class="cls-3" d="m199.83,158.31c-1.22-.04-1.84-.06-3.06-.1.16-4.89.23-7.34.39-12.24,1.24.04,1.85.06,3.09.1-.17,4.89-.25,7.34-.42,12.24Z"/>
        <path class="cls-3" d="m215.06,158.93c-1.23-.06-1.85-.09-3.08-.14-2.44-3.11-3.66-4.66-6.13-7.75-.12,2.99-.17,4.49-.29,7.48-1.23-.05-1.85-.07-3.08-.12.18-4.89.27-7.34.44-12.24,1.24.05,1.87.07,3.11.12,2.48,3.09,3.71,4.63,6.15,7.73.13-2.99.2-4.48.33-7.46,1.24.05,1.87.08,3.11.14-.23,4.89-.34,7.34-.57,12.23Z"/>
        <path class="cls-3" d="m230.24,149.93c-1.1.46-1.65.68-2.74,1.14-.6-.81-1.57-1.3-3.03-1.37-2.24-.12-3.87,1.29-3.98,3.33-.1,1.94,1.41,3.69,3.63,3.81,1.36.07,2.47-.28,3.18-.85.03-.47.04-.71.07-1.19-1.55-.09-2.33-.13-3.88-.21.05-.91.07-1.36.12-2.27,2.64.14,3.96.21,6.6.37-.11,1.81-.16,2.72-.26,4.53-.1.17-2.25,2.57-5.96,2.37-4.2-.23-6.75-3.39-6.6-6.68.16-3.4,3.22-6.19,7.26-5.98,2.47.13,4.41,1.31,5.59,3Z"/>
        <path class="cls-3" d="m248.56,151.4c-1.81-.13-2.72-.2-4.53-.32-.26,3.79-.39,5.69-.66,9.48-1.24-.09-1.86-.13-3.09-.21.25-3.79.38-5.69.63-9.49-1.81-.12-2.72-.18-4.53-.29.07-1.09.1-1.64.17-2.73,4.88.31,7.32.47,12.2.83-.08,1.09-.12,1.64-.2,2.73Z"/>
        <path class="cls-3" d="m261.65,161.96c-1.23-.1-1.84-.15-3.07-.25.15-1.89.23-2.84.39-4.74-2.24-.18-3.35-.27-5.59-.44-.15,1.9-.22,2.84-.36,4.74-1.22-.09-1.83-.14-3.06-.23.36-4.88.55-7.33.91-12.21,1.23.09,1.85.14,3.09.23-.15,1.9-.22,2.84-.36,4.74,2.24.17,3.36.26,5.6.44.15-1.89.23-2.84.39-4.74,1.24.1,1.86.15,3.1.26-.41,4.88-.61,7.32-1.02,12.2Z"/>
        <path class="cls-3" d="m275.32,150.89c-.1,1.09-.15,1.63-.26,2.72-2.68-.25-4.02-.37-6.7-.61-.07.84-.11,1.26-.19,2.1,2.23.2,3.35.3,5.58.51-.09,1.02-.14,1.53-.24,2.55-2.23-.21-3.34-.31-5.57-.51-.07.84-.11,1.26-.19,2.1,2.66.24,4,.36,6.66.61-.1,1.09-.15,1.64-.26,2.73-3.88-.36-5.82-.54-9.7-.87.42-4.88.63-7.32,1.05-12.2,3.92.34,5.88.51,9.79.88Z"/>
        <path class="cls-3" d="m59.98,173.49c-2.63.21-3.95.31-6.59.54.09,1.12.14,1.68.24,2.8,2.19-.18,3.29-.27,5.48-.45.09,1.08.13,1.63.22,2.71-2.19.17-3.28.26-5.47.45.13,1.59.2,2.38.33,3.97-1.2.1-1.8.15-3,.26-.42-4.88-.63-7.32-1.06-12.2,3.85-.33,5.78-.49,9.63-.8.09,1.09.13,1.64.21,2.73Z"/>
        <path class="cls-3" d="m66.07,182.56c-1.2.09-1.8.13-3,.23-.37-4.88-.56-7.33-.94-12.21,1.21-.09,1.82-.14,3.03-.23.36,4.88.54,7.33.91,12.21Z"/>
        <path class="cls-3" d="m77.97,173.34c-1.2.08-1.8.12-3.01.2-.04-.61-.83-1.39-2.13-1.3-.9.06-1.99.53-1.94,1.23.04.59.89.77,2.69,1.1,2,.37,4.83.84,5,3.53.15,2.34-1.85,3.92-4.76,4.12-3.9.27-5.72-2.2-5.86-4.1,1.2-.09,1.8-.13,3-.21,0,0,.37,1.92,2.85,1.75,1.34-.09,1.8-.68,1.76-1.2-.05-.77-1.12-.97-2.29-1.16-1.9-.31-5.25-.75-5.44-3.46-.16-2.23,1.98-4.04,4.85-4.24,3.27-.22,5.15,1.84,5.28,3.75Z"/>
        <path class="cls-3" d="m92.52,180.88c-1.21.06-1.81.1-3.02.16-.1-1.9-.16-2.85-.26-4.75-2.2.12-3.3.18-5.5.32.11,1.9.17,2.85.28,4.75-1.2.07-1.8.11-3.01.18-.3-4.89-.45-7.33-.76-12.22,1.21-.08,1.82-.11,3.04-.18.11,1.9.17,2.85.28,4.75,2.21-.13,3.31-.19,5.51-.32-.1-1.9-.16-2.85-.26-4.75,1.22-.07,1.83-.1,3.05-.16.26,4.89.39,7.34.64,12.23Z"/>
        <path class="cls-3" d="m98.13,179.08c.04.94-.74,1.77-1.75,1.82-.95.05-1.8-.7-1.85-1.64-.05-.99.72-1.84,1.67-1.89,1.01-.05,1.88.72,1.92,1.71Z"/>
        <path class="cls-3" d="m116.07,170.08c-1.03.55-1.55.83-2.58,1.39-.66-.75-1.65-1.15-3.09-1.09-2.2.08-3.67,1.64-3.59,3.67.08,1.94,1.71,3.55,3.9,3.47,1.34-.05,2.39-.5,3.03-1.14-.02-.48-.03-.71-.04-1.19-1.52.05-2.29.08-3.81.14-.03-.91-.05-1.36-.09-2.27,2.6-.1,3.9-.15,6.49-.23.06,1.81.09,2.72.15,4.54-.09.18-1.97,2.76-5.61,2.9-4.13.16-6.92-2.77-7.06-6.06-.15-3.4,2.6-6.46,6.56-6.61,2.43-.09,4.43.9,5.74,2.48Z"/>
        <path class="cls-3" d="m128.06,167.28c.03,1.09.04,1.64.06,2.74-2.64.06-3.96.1-6.6.17.02.84.04,1.26.06,2.11,2.2-.06,3.3-.09,5.5-.15.02,1.02.04,1.53.06,2.56-2.2.05-3.29.08-5.49.15.02.84.04,1.26.06,2.11,2.63-.08,3.94-.11,6.56-.17.03,1.09.04,1.64.06,2.74-3.82.09-5.74.14-9.56.26-.15-4.9-.23-7.34-.38-12.24,3.86-.12,5.79-.17,9.65-.26Z"/>
        <path class="cls-3" d="m141.82,169.77c-1.78.02-2.67.03-4.46.06.06,3.8.09,5.7.15,9.51-1.22.02-1.83.03-3.05.05-.07-3.8-.1-5.7-.17-9.51-1.78.03-2.67.05-4.46.09-.02-1.09-.04-1.64-.06-2.74,4.8-.11,7.2-.15,12.01-.21.01,1.09.02,1.64.03,2.74Z"/>
        <path class="cls-3" d="m157.65,177.27c-2.41,0-3.62,0-6.03.01-.33.76-.49,1.15-.82,1.91-1.28,0-1.92.01-3.19.02,2.1-4.91,3.16-7.37,5.3-12.27,1.36,0,2.04,0,3.39,0,2.17,4.9,3.24,7.35,5.37,12.25-1.28,0-1.93,0-3.21,0-.32-.76-.48-1.15-.81-1.91Zm-1.05-2.41c-.78-1.83-1.17-2.74-1.96-4.57-.79,1.83-1.19,2.75-1.98,4.58,1.58,0,2.36,0,3.94,0Z"/>
        <path class="cls-3" d="m172.59,169.77c-1.78-.02-2.67-.03-4.46-.05-.03,3.8-.05,5.7-.08,9.51-1.22-.01-1.83-.02-3.05-.02.02-3.8.04-5.7.06-9.51-1.78-.01-2.67-.02-4.46-.02,0-1.09,0-1.64,0-2.74,4.8.01,7.21.03,12.01.09-.01,1.09-.02,1.64-.03,2.74Z"/>
        <path class="cls-3" d="m181.93,176.7c2.63.05,3.94.08,6.56.15-.03,1.09-.04,1.64-.07,2.74-3.82-.1-5.74-.14-9.56-.21.09-4.9.13-7.35.22-12.24,1.22.02,1.82.03,3.04.06-.08,3.8-.12,5.7-.19,9.51Z"/>
        <path class="cls-3" d="m200.56,167.7c-.04,1.09-.06,1.64-.1,2.74-2.64-.09-3.96-.14-6.6-.21-.03.84-.04,1.26-.06,2.11,2.2.07,3.3.1,5.5.18-.03,1.02-.05,1.53-.09,2.56-2.2-.08-3.29-.11-5.49-.18-.03.84-.04,1.26-.06,2.11,2.63.08,3.94.12,6.56.21-.04,1.09-.06,1.64-.1,2.73-3.82-.13-5.73-.19-9.56-.3.13-4.9.2-7.34.33-12.24,3.86.11,5.79.17,9.65.3Z"/>
        <path class="cls-3" d="m211.95,178.5c-2.41-.11-3.61-.16-6.02-.25-.36.75-.54,1.12-.9,1.87-1.28-.05-1.92-.07-3.19-.12,2.31-4.82,3.48-7.22,5.84-12.03,1.36.06,2.03.08,3.39.14,1.95,4.99,2.91,7.48,4.82,12.48-1.28-.06-1.93-.09-3.21-.15-.29-.78-.43-1.17-.72-1.94Zm-.94-2.46c-.7-1.86-1.05-2.79-1.76-4.65-.88,1.79-1.31,2.69-2.18,4.49,1.58.06,2.36.1,3.94.17Z"/>
        <path class="cls-3" d="m226.76,172.78c-1.2-.07-1.8-.1-3.01-.17.03-.61-.66-1.48-1.95-1.55-.91-.05-2.03.29-2.07.99-.03.59.79.87,2.54,1.41,1.95.61,4.69,1.41,4.54,4.11-.13,2.34-2.3,3.67-5.22,3.52-3.9-.21-5.41-2.87-5.32-4.77,1.2.06,1.8.09,3,.15,0,0,.14,1.95,2.62,2.08,1.34.07,1.87-.46,1.89-.98.04-.77-.99-1.1-2.14-1.43-1.85-.53-5.12-1.38-4.99-4.09.11-2.23,2.45-3.78,5.32-3.63,3.28.17,4.9,2.45,4.79,4.35Z"/>
        <path class="cls-3" d="m240.02,172.46c-1.78-.12-2.67-.18-4.45-.29-.24,3.8-.36,5.69-.6,9.49-1.22-.08-1.83-.12-3.04-.19.23-3.8.35-5.69.58-9.49-1.78-.11-2.67-.16-4.45-.26.06-1.09.09-1.64.16-2.73,4.8.28,7.2.43,11.99.75-.07,1.09-.11,1.64-.18,2.73Z"/>
        <path class="cls-3" d="m251.38,182.81c-1.22-.09-1.82-.14-3.04-.23.25-3.29.37-4.93.61-8.22-.78.77-2.64,1.14-2.7,1.17-.18-1.11-.27-1.67-.45-2.78.78-.32,2.67-.94,3.44-2.38,1.23.09,1.84.14,3.07.23-.38,4.88-.56,7.32-.94,12.21Z"/>
        <path class="cls-3" d="m263.78,174.25c-2.4-.21-3.6-.31-5.99-.5-.05.65-.08.98-.13,1.63.56-.33,1.39-.64,2.46-.56,3.06.26,4.17,2.67,4,4.61-.26,2.98-2.52,4.42-5.43,4.18-3.13-.26-4.9-2.82-4.71-5.22,1.22.1,1.83.15,3.05.24-.1,1.18.64,2.16,1.88,2.27.92.08,2.06-.35,2.18-1.73.12-1.4-.73-2.1-1.69-2.18-1.12-.09-1.79.32-2.3.77-1.07-.09-1.61-.13-2.68-.22.21-2.69.32-4.04.53-6.73,3.63.29,5.45.44,9.08.75-.09,1.08-.14,1.61-.23,2.69Z"/>
        <path class="cls-3" d="m91.89,195.01c.13,2.41-1.28,4.83-4.42,5.01-1.07.06-1.6.09-2.67.16.07,1.11.1,1.66.17,2.77-1.19.07-1.78.11-2.97.18-.3-4.89-.46-7.33-.76-12.22,2.28-.14,3.43-.21,5.71-.34,3.16-.18,4.82,2.08,4.95,4.45Zm-7.49-1.56c.1,1.6.14,2.41.24,4.01.94-.06,1.41-.08,2.35-.14,1.19-.07,1.97-.82,1.89-2.15-.07-1.31-.93-1.91-2.13-1.86-.94.05-1.42.08-2.36.14Z"/>
        <path class="cls-3" d="m106.16,195.73c.15,3.49-2.58,6.45-6.06,6.61-3.51.17-6.47-2.53-6.65-6.01-.18-3.47,2.51-6.48,6.05-6.65,3.51-.17,6.51,2.58,6.65,6.05Zm-9.99.46c.1,2,1.81,3.51,3.81,3.42,1.97-.09,3.52-1.77,3.43-3.76-.09-1.98-1.79-3.51-3.77-3.41-2.02.1-3.57,1.78-3.47,3.76Z"/>
        <path class="cls-3" d="m111.31,201.65c-1.18.04-1.77.07-2.96.12-.2-4.89-.3-7.34-.49-12.23,1.19-.05,1.79-.07,2.99-.12.19,4.89.28,7.34.46,12.24Z"/>
        <path class="cls-3" d="m126.02,201.18c-1.19.03-1.78.05-2.97.08-2.56-2.92-3.85-4.38-6.45-7.3.1,2.99.15,4.49.25,7.49-1.19.04-1.78.06-2.97.1-.18-4.89-.26-7.34-.44-12.24,1.2-.04,1.8-.06,3-.1,2.6,2.9,3.9,4.36,6.47,7.28-.08-2.99-.13-4.48-.21-7.47,1.2-.03,1.8-.05,3-.08.13,4.9.19,7.34.32,12.24Z"/>
        <path class="cls-3" d="m139.41,191.4c-1.75.03-2.63.04-4.38.07.07,3.8.1,5.7.17,9.51-1.2.02-1.8.03-2.99.06-.08-3.8-.12-5.7-.2-9.5-1.75.04-2.63.06-4.38.1l-.07-2.74c4.72-.11,7.08-.16,11.8-.23.02,1.09.02,1.64.04,2.74Z"/>
        <path class="cls-3" d="m150.66,192.43c-1.18,0-1.78.01-2.96.02,0-.61-.74-1.44-2.01-1.42-.89,0-1.98.42-1.97,1.12,0,.59.83.82,2.57,1.25,1.94.49,4.69,1.12,4.7,3.82.01,2.34-2.04,3.81-4.9,3.83-3.84.03-5.48-2.53-5.51-4.44,1.18-.02,1.77-.02,2.95-.04,0,0,.26,1.94,2.69,1.92,1.32-.01,1.8-.57,1.8-1.09,0-.77-1.04-1.04-2.18-1.3-1.85-.42-5.1-1.06-5.14-3.78-.03-2.23,2.17-3.92,4.99-3.95,3.22-.03,4.95,2.14,4.96,4.05Z"/>
        <path class="cls-3" d="m168.49,191.33c-1.75-.02-2.63-.02-4.38-.03-.02,3.8-.03,5.7-.06,9.51-1.2,0-1.8,0-2.99-.01.01-3.8.02-5.7.03-9.51-1.75,0-2.63,0-4.38,0,0-1.09,0-1.64,0-2.74,4.72,0,7.08,0,11.8.05-.01,1.09-.02,1.64-.03,2.74Z"/>
        <path class="cls-3" d="m181.68,194.91c-.07,3.49-2.98,6.28-6.45,6.22-3.51-.05-6.3-2.92-6.26-6.42.03-3.47,2.9-6.31,6.46-6.26,3.52.05,6.33,2.98,6.26,6.45Zm-10-.16c-.02,2,1.58,3.62,3.59,3.65,1.97.03,3.62-1.54,3.66-3.54.04-1.98-1.57-3.61-3.55-3.64-2.02-.03-3.67,1.55-3.7,3.53Z"/>
        <path class="cls-3" d="m207.82,189.59c-2.06,4.82-3.08,7.23-5.1,12.05-1.21-.05-1.82-.07-3.03-.11-.92-3.23-1.38-4.84-2.31-8.06-1.27,3.15-1.9,4.73-3.15,7.88-1.23-.04-1.84-.06-3.06-.09-1.49-4.94-2.24-7.41-3.77-12.35,1.27.03,1.91.05,3.19.08.94,3.2,1.41,4.81,2.33,8.01,1.22-3.14,1.83-4.71,3.06-7.85,1.3.04,1.96.06,3.26.11.9,3.2,1.34,4.79,2.22,7.99,1.26-3.12,1.89-4.68,3.17-7.79,1.28.05,1.92.08,3.2.13Z"/>
        <path class="cls-3" d="m212.29,202.05c-1.18-.05-1.77-.08-2.95-.13.21-4.89.32-7.34.53-12.23,1.19.05,1.79.08,2.98.13-.22,4.89-.34,7.34-.56,12.23Z"/>
        <path class="cls-3" d="m226.99,202.81c-1.19-.07-1.78-.1-2.97-.17-2.31-3.13-3.48-4.69-5.82-7.81l-.38,7.48c-1.19-.06-1.78-.09-2.97-.15.23-4.89.35-7.34.59-12.23,1.2.06,1.8.09,3,.15,2.35,3.11,3.52,4.67,5.84,7.79.17-2.98.25-4.48.41-7.46,1.2.07,1.8.1,3,.17-.28,4.89-.43,7.33-.71,12.22Z"/>
        <path class="cls-3" d="m232.69,201.64c-.06.93-.9,1.68-1.89,1.61-.94-.06-1.7-.9-1.64-1.83.06-.99.92-1.75,1.86-1.69.99.06,1.74.92,1.67,1.91Zm-.27-2.6c-1.06-.07-1.59-.1-2.66-.16.12-3.26.19-4.89.31-8.15,1.21.07,1.81.11,3.02.18-.27,3.25-.4,4.88-.67,8.13Z"/>
      </g>
    </g>
  </g>
</svg>