<?xml version="1.0" encoding="UTF-8"?>
<svg xmlns="http://www.w3.org/2000/svg" xmlns:xlink="http://www.w3.org/1999/xlink" viewBox="0 0 1921 2199">
  <defs>
    <style>
      .cls-1, .cls-2, .cls-3 {
        opacity: .8;
      }

      .cls-1, .cls-2, .cls-3, .cls-4, .cls-5 {
        mix-blend-mode: hard-light;
      }

      .cls-6 {
        fill: url(#linear-gradient-82);
      }

      .cls-6, .cls-7, .cls-8, .cls-9, .cls-10, .cls-11, .cls-12, .cls-13, .cls-14, .cls-15, .cls-16, .cls-17, .cls-18, .cls-19, .cls-20, .cls-21, .cls-22, .cls-23, .cls-24, .cls-25, .cls-26, .cls-27, .cls-28, .cls-29, .cls-30, .cls-31, .cls-32, .cls-33, .cls-34, .cls-35, .cls-36, .cls-37, .cls-38, .cls-39, .cls-40, .cls-41, .cls-42, .cls-43, .cls-44, .cls-45, .cls-46, .cls-47, .cls-48, .cls-49, .cls-50, .cls-51, .cls-52, .cls-53, .cls-54, .cls-55, .cls-56, .cls-57, .cls-58, .cls-59, .cls-60, .cls-61, .cls-62, .cls-63, .cls-64, .cls-65, .cls-66, .cls-67, .cls-68, .cls-69, .cls-70, .cls-71 {
        mix-blend-mode: screen;
      }

      .cls-7 {
        fill: url(#linear-gradient-59);
      }

      .cls-8 {
        fill: url(#linear-gradient-53);
      }

      .cls-72 {
        fill: url(#linear-gradient-5);
      }

      .cls-72, .cls-73, .cls-15, .cls-74, .cls-75, .cls-76, .cls-77, .cls-4, .cls-78, .cls-79, .cls-37, .cls-80, .cls-81, .cls-82, .cls-83, .cls-84, .cls-85, .cls-86, .cls-87, .cls-88, .cls-89, .cls-90, .cls-91, .cls-92, .cls-62, .cls-93, .cls-94, .cls-95, .cls-5, .cls-96 {
        opacity: .1;
      }

      .cls-9 {
        fill: url(#linear-gradient-52);
      }

      .cls-73 {
        fill: url(#linear-gradient-27);
        mix-blend-mode: multiply;
      }

      .cls-10 {
        fill: url(#linear-gradient-88);
      }

      .cls-11 {
        fill: url(#linear-gradient-33);
      }

      .cls-12 {
        fill: url(#linear-gradient-54);
      }

      .cls-13 {
        fill: url(#linear-gradient-71);
      }

      .cls-14 {
        fill: url(#linear-gradient-65);
      }

      .cls-15 {
        fill: url(#linear-gradient-10);
      }

      .cls-16 {
        fill: url(#linear-gradient-45);
      }

      .cls-17 {
        fill: url(#linear-gradient-75);
      }

      .cls-18 {
        fill: url(#linear-gradient-30);
      }

      .cls-97 {
        mask: url(#mask-2);
      }

      .cls-19 {
        fill: url(#linear-gradient-67);
      }

      .cls-98 {
        isolation: isolate;
      }

      .cls-74 {
        fill: url(#linear-gradient-13);
      }

      .cls-74, .cls-78, .cls-82, .cls-87, .cls-88, .cls-93, .cls-94, .cls-95 {
        mix-blend-mode: color-dodge;
      }

      .cls-75 {
        fill: url(#linear-gradient-23);
      }

      .cls-75, .cls-76, .cls-86, .cls-99, .cls-96 {
        mix-blend-mode: overlay;
      }

      .cls-76 {
        fill: #ffafcb;
      }

      .cls-20 {
        fill: url(#linear-gradient-91);
      }

      .cls-77 {
        fill: url(#linear-gradient-4);
      }

      .cls-21 {
        fill: url(#linear-gradient-34);
      }

      .cls-100 {
        fill: #090035;
      }

      .cls-22 {
        fill: url(#linear-gradient-86);
      }

      .cls-23 {
        fill: url(#linear-gradient-37);
      }

      .cls-24 {
        fill: url(#linear-gradient-85);
      }

      .cls-25 {
        fill: url(#linear-gradient-48);
      }

      .cls-26 {
        fill: url(#linear-gradient-74);
      }

      .cls-27 {
        fill: url(#linear-gradient-87);
      }

      .cls-2, .cls-4 {
        fill: url(#linear-gradient-22);
      }

      .cls-28 {
        fill: url(#linear-gradient-38);
      }

      .cls-29 {
        fill: url(#linear-gradient-81);
      }

      .cls-3 {
        fill: url(#linear-gradient-25);
      }

      .cls-101 {
        fill: url(#radial-gradient);
      }

      .cls-30 {
        fill: url(#linear-gradient-61);
      }

      .cls-31 {
        fill: url(#linear-gradient-47);
      }

      .cls-32 {
        fill: url(#linear-gradient-51);
      }

      .cls-78 {
        fill: url(#linear-gradient-12);
      }

      .cls-33 {
        fill: url(#linear-gradient-56);
      }

      .cls-34 {
        fill: url(#linear-gradient-70);
      }

      .cls-79 {
        fill: url(#linear-gradient-18);
      }

      .cls-35 {
        fill: url(#linear-gradient-36);
      }

      .cls-36 {
        fill: url(#linear-gradient-44);
      }

      .cls-37 {
        fill: url(#linear-gradient-28);
      }

      .cls-80 {
        fill: url(#linear-gradient-7);
      }

      .cls-38 {
        fill: url(#linear-gradient-55);
      }

      .cls-102 {
        fill: #8cf4ff;
      }

      .cls-81 {
        fill: url(#linear-gradient-19);
      }

      .cls-39 {
        fill: url(#linear-gradient-89);
      }

      .cls-82 {
        fill: url(#linear-gradient-15);
      }

      .cls-40 {
        fill: url(#linear-gradient-90);
      }

      .cls-83 {
        fill: url(#linear-gradient-6);
      }

      .cls-41 {
        fill: url(#linear-gradient-68);
      }

      .cls-42 {
        fill: url(#linear-gradient-43);
      }

      .cls-103 {
        fill: url(#linear-gradient);
        stroke: #000;
      }

      .cls-103, .cls-91 {
        stroke-miterlimit: 10;
      }

      .cls-43 {
        fill: url(#linear-gradient-60);
      }

      .cls-44 {
        fill: url(#linear-gradient-42);
      }

      .cls-85 {
        fill: url(#linear-gradient-8);
      }

      .cls-45 {
        fill: url(#linear-gradient-46);
      }

      .cls-87 {
        fill: url(#linear-gradient-24);
      }

      .cls-46 {
        fill: url(#linear-gradient-57);
      }

      .cls-47 {
        fill: url(#linear-gradient-62);
      }

      .cls-48 {
        fill: url(#linear-gradient-80);
      }

      .cls-49 {
        fill: url(#linear-gradient-78);
      }

      .cls-50 {
        fill: url(#linear-gradient-40);
      }

      .cls-88 {
        fill: url(#linear-gradient-14);
      }

      .cls-51 {
        fill: url(#linear-gradient-58);
      }

      .cls-89 {
        fill: url(#linear-gradient-20);
      }

      .cls-52 {
        fill: url(#linear-gradient-83);
      }

      .cls-53 {
        fill: url(#linear-gradient-76);
      }

      .cls-54 {
        fill: url(#linear-gradient-73);
      }

      .cls-104 {
        filter: url(#luminosity-noclip);
      }

      .cls-90 {
        fill: url(#linear-gradient-3);
      }

      .cls-55 {
        fill: url(#linear-gradient-79);
      }

      .cls-105 {
        mask: url(#mask-1);
      }

      .cls-106 {
        mask: url(#mask);
      }

      .cls-56 {
        fill: url(#linear-gradient-49);
      }

      .cls-57 {
        fill: url(#linear-gradient-35);
      }

      .cls-58 {
        fill: url(#linear-gradient-32);
      }

      .cls-59 {
        fill: url(#linear-gradient-77);
      }

      .cls-91 {
        fill: none;
        stroke: rgba(255, 255, 255, .85);
        stroke-linecap: round;
        stroke-width: 15px;
      }

      .cls-92 {
        fill: url(#linear-gradient-2);
      }

      .cls-60 {
        fill: url(#linear-gradient-63);
      }

      .cls-61 {
        fill: url(#linear-gradient-29);
      }

      .cls-62 {
        fill: url(#linear-gradient-9);
      }

      .cls-63 {
        fill: url(#linear-gradient-39);
      }

      .cls-93 {
        fill: url(#linear-gradient-16);
      }

      .cls-94 {
        fill: url(#linear-gradient-11);
      }

      .cls-64 {
        fill: url(#linear-gradient-69);
      }

      .cls-65 {
        fill: url(#linear-gradient-41);
      }

      .cls-66 {
        fill: url(#linear-gradient-66);
      }

      .cls-67 {
        fill: url(#linear-gradient-50);
      }

      .cls-68 {
        fill: url(#linear-gradient-72);
      }

      .cls-95 {
        fill: url(#linear-gradient-21);
      }

      .cls-5 {
        fill: url(#linear-gradient-17);
      }

      .cls-107 {
        filter: url(#luminosity-noclip-2);
      }

      .cls-69 {
        fill: url(#linear-gradient-84);
      }

      .cls-70 {
        fill: url(#linear-gradient-31);
      }

      .cls-71 {
        fill: url(#linear-gradient-64);
      }

      .cls-96 {
        fill: #fff;
      }

      .cls-108 {
        fill: url(#linear-gradient-26);
      }
    </style>
    <linearGradient id="linear-gradient" x1="960.5" y1=".5" x2="960.5" y2="2198.5" gradientUnits="userSpaceOnUse">
      <stop offset="0" stop-color="#141414"/>
      <stop offset="1" stop-color="#141423"/>
    </linearGradient>
    <radialGradient id="radial-gradient" cx="961" cy="1100" fx="961" fy="1100" r="540" gradientUnits="userSpaceOnUse">
      <stop offset="0" stop-color="#fff"/>
      <stop offset="1" stop-color="#fff" stop-opacity="0"/>
    </radialGradient>
    <linearGradient id="linear-gradient-2" x1="639" y1="922" x2="639" y2="770" gradientUnits="userSpaceOnUse">
      <stop offset="0" stop-color="#5fbaa0"/>
      <stop offset="1" stop-color="#f6ee1e"/>
    </linearGradient>
    <linearGradient id="linear-gradient-3" y1="910" y2="782" xlink:href="#linear-gradient-2"/>
    <linearGradient id="linear-gradient-4" y1="898" y2="794" xlink:href="#linear-gradient-2"/>
    <linearGradient id="linear-gradient-5" y1="886" y2="806" xlink:href="#linear-gradient-2"/>
    <linearGradient id="linear-gradient-6" x1="1309" y1="1390" x2="1309" y2="1292" gradientUnits="userSpaceOnUse">
      <stop offset="0" stop-color="#cd4557"/>
      <stop offset="1" stop-color="#e3b019"/>
    </linearGradient>
    <linearGradient id="linear-gradient-7" y1="1378" y2="1304" xlink:href="#linear-gradient-6"/>
    <linearGradient id="linear-gradient-8" y1="1366" y2="1316" xlink:href="#linear-gradient-6"/>
    <linearGradient id="linear-gradient-9" x1="1290" y1="930" x2="1290" y2="890" gradientUnits="userSpaceOnUse">
      <stop offset="0" stop-color="#c838e7"/>
      <stop offset="1" stop-color="#1f2ad5" stop-opacity=".1"/>
    </linearGradient>
    <linearGradient id="linear-gradient-10" x1="635" y1="1318" x2="635" y2="1278" xlink:href="#linear-gradient-9"/>
    <linearGradient id="linear-gradient-11" x1="1421" y1="1087" x2="1421" y2="1067" gradientUnits="userSpaceOnUse">
      <stop offset="0" stop-color="#5fbaa0"/>
      <stop offset="1" stop-color="#f6ee1e" stop-opacity="0"/>
    </linearGradient>
    <linearGradient id="linear-gradient-12" x1="961" y1="792" x2="961" y2="772" xlink:href="#linear-gradient-11"/>
    <linearGradient id="linear-gradient-13" x1="873" y1="1400" x2="873" y2="1380" xlink:href="#linear-gradient-11"/>
    <linearGradient id="linear-gradient-14" x1="873" y1="1087" x2="873" y2="1067" xlink:href="#linear-gradient-11"/>
    <linearGradient id="linear-gradient-15" x1="1029" y1="1051" x2="1029" y2="1031" xlink:href="#linear-gradient-11"/>
    <linearGradient id="linear-gradient-16" x1="563" y1="1087" x2="563" y2="1067" xlink:href="#linear-gradient-11"/>
    <linearGradient id="linear-gradient-17" x1="1101.01" y1="1240.01" x2="820.99" y2="959.99" gradientUnits="userSpaceOnUse">
      <stop offset="0" stop-color="#feaecc" stop-opacity="0"/>
      <stop offset="1" stop-color="#e678ff"/>
    </linearGradient>
    <linearGradient id="linear-gradient-18" x1="992.54" y1="1280.28" x2="960.46" y2="1098.34" gradientUnits="userSpaceOnUse">
      <stop offset="0" stop-color="#4268db"/>
      <stop offset=".19" stop-color="#436bdb"/>
      <stop offset=".36" stop-color="#4976de"/>
      <stop offset=".52" stop-color="#5388e3"/>
      <stop offset=".67" stop-color="#60a2e9"/>
      <stop offset=".82" stop-color="#72c3f2"/>
      <stop offset=".97" stop-color="#87eafc"/>
      <stop offset="1" stop-color="#8cf4ff"/>
    </linearGradient>
    <linearGradient id="linear-gradient-19" x1="992.14" y1="1280.35" x2="970.33" y2="1156.63" gradientUnits="userSpaceOnUse">
      <stop offset="0" stop-color="#de009f"/>
      <stop offset=".13" stop-color="#de16a8"/>
      <stop offset=".41" stop-color="#df51c2"/>
      <stop offset=".81" stop-color="#e0adea"/>
      <stop offset="1" stop-color="#e1deff"/>
    </linearGradient>
    <linearGradient id="linear-gradient-20" x1="874.3" y1="1154.35" x2="867.6" y2="1099.77" gradientUnits="userSpaceOnUse">
      <stop offset="0" stop-color="#4268db"/>
      <stop offset=".27" stop-color="#5a96e6"/>
      <stop offset=".61" stop-color="#75c8f3"/>
      <stop offset=".86" stop-color="#85e8fb"/>
      <stop offset="1" stop-color="#8cf4ff"/>
    </linearGradient>
    <linearGradient id="linear-gradient-21" x1="1029" y1="1283" x2="1229" y2="1283" gradientUnits="userSpaceOnUse">
      <stop offset="0" stop-color="#1f2ad5"/>
      <stop offset="1" stop-color="#c838e7"/>
    </linearGradient>
    <linearGradient id="linear-gradient-22" x1="1023.59" y1="1271.97" x2="898.41" y2="928.03" gradientUnits="userSpaceOnUse">
      <stop offset="0" stop-color="#dfff3b"/>
      <stop offset=".02" stop-color="#dfff40" stop-opacity=".94"/>
      <stop offset=".09" stop-color="#e4ff59" stop-opacity=".66"/>
      <stop offset=".16" stop-color="#e7ff6e" stop-opacity=".42"/>
      <stop offset=".22" stop-color="#eaff7e" stop-opacity=".24"/>
      <stop offset=".28" stop-color="#ecff8a" stop-opacity=".11"/>
      <stop offset=".32" stop-color="#edff91" stop-opacity=".03"/>
      <stop offset=".36" stop-color="#eeff94" stop-opacity="0"/>
    </linearGradient>
    <linearGradient id="linear-gradient-23" x1="1101.01" y1="1240.01" x2="820.99" y2="959.99" gradientUnits="userSpaceOnUse">
      <stop offset="0" stop-color="#fff" stop-opacity="0"/>
      <stop offset="1" stop-color="#fff"/>
    </linearGradient>
    <filter id="luminosity-noclip" x="635.33" y="863.24" width="654.82" height="480.27" color-interpolation-filters="sRGB" filterUnits="userSpaceOnUse">
      <feFlood flood-color="#fff" result="bg"/>
      <feBlend in="SourceGraphic" in2="bg"/>
    </filter>
    <mask id="mask" x="635.33" y="863.24" width="654.82" height="480.27" maskUnits="userSpaceOnUse">
      <g class="cls-104">
        <path class="cls-1" d="m1101.99,1006.27c-30.69-43.73-81.49-72.32-138.97-72.32-93.7,0-169.66,75.96-169.66,169.66,0,39.06,13.21,75.03,35.39,103.71l273.24-201.05Z"/>
      </g>
    </mask>
    <linearGradient id="linear-gradient-24" x1="1030.46" y1="1184.08" x2="895.02" y2="1022.67" gradientUnits="userSpaceOnUse">
      <stop offset="0" stop-color="#cb5180"/>
      <stop offset=".13" stop-color="#c6507e"/>
      <stop offset=".27" stop-color="#b94f7b"/>
      <stop offset=".42" stop-color="#a44d75"/>
      <stop offset=".57" stop-color="#864b6c"/>
      <stop offset=".72" stop-color="#604862"/>
      <stop offset=".87" stop-color="#314455"/>
      <stop offset=".88" stop-color="#2e4454"/>
    </linearGradient>
    <linearGradient id="linear-gradient-25" x1="1016.66" y1="1250.97" x2="909.39" y2="956.25" xlink:href="#linear-gradient-22"/>
    <linearGradient id="linear-gradient-26" x1="1016.66" y1="1250.97" x2="909.39" y2="956.25" xlink:href="#linear-gradient-22"/>
    <mask id="mask-1" x="660.18" y="906.94" width="654.82" height="480.27" maskUnits="userSpaceOnUse">
      <g>
        <circle id="Low_Yellow-2" data-name="Low Yellow" class="cls-3" cx="963.03" cy="1103.61" r="156.81"/>
        <path class="cls-1" d="m1101.14,1004.55c-30.69-43.73-81.49-72.32-138.97-72.32-93.7,0-169.66,75.96-169.66,169.66,0,39.06,13.21,75.03,35.39,103.71l273.24-201.05Z"/>
        <circle id="Low_Yellow-3" data-name="Low Yellow" class="cls-108" cx="963.03" cy="1103.61" r="156.81"/>
        <circle id="Low_Yellow-4" data-name="Low Yellow" class="cls-2" cx="961" cy="1100" r="183"/>
      </g>
    </mask>
    <linearGradient id="linear-gradient-27" x1="1055.31" y1="1227.78" x2="919.87" y2="1066.37" gradientUnits="userSpaceOnUse">
      <stop offset="0" stop-color="#cb5180"/>
      <stop offset=".1" stop-color="#bd4b77"/>
      <stop offset=".27" stop-color="#9b3d61"/>
      <stop offset=".51" stop-color="#62273e"/>
      <stop offset=".8" stop-color="#16080d"/>
      <stop offset=".88" stop-color="#000"/>
    </linearGradient>
    <filter id="luminosity-noclip-2" x="635.33" y="863.24" width="654.82" height="480.27" color-interpolation-filters="sRGB" filterUnits="userSpaceOnUse">
      <feFlood flood-color="#fff" result="bg"/>
      <feBlend in="SourceGraphic" in2="bg"/>
    </filter>
    <mask id="mask-2" x="635.33" y="863.24" width="654.82" height="480.27" maskUnits="userSpaceOnUse">
      <g class="cls-107">
        <path class="cls-1" d="m1101.99,1006.27c-30.69-43.73-81.49-72.32-138.97-72.32-93.7,0-169.66,75.96-169.66,169.66,0,39.06,13.21,75.03,35.39,103.71l273.24-201.05Z"/>
      </g>
    </mask>
    <linearGradient id="linear-gradient-28" x1="1030.46" y1="1184.08" x2="895.02" y2="1022.67" xlink:href="#linear-gradient-27"/>
    <linearGradient id="linear-gradient-29" x1="844" y1="1138" x2="844" y2="1118" xlink:href="#linear-gradient-11"/>
    <linearGradient id="linear-gradient-30" x1="893" y1="1140" x2="893" y2="1120" xlink:href="#linear-gradient-11"/>
    <linearGradient id="linear-gradient-31" x1="834" y1="1188" x2="834" y2="1168" xlink:href="#linear-gradient-11"/>
    <linearGradient id="linear-gradient-32" x1="889" y1="1198" x2="889" y2="1178" xlink:href="#linear-gradient-11"/>
    <linearGradient id="linear-gradient-33" x1="937" y1="1188" x2="937" y2="1168" xlink:href="#linear-gradient-11"/>
    <linearGradient id="linear-gradient-34" x1="903" y1="1178" x2="903" y2="1158" xlink:href="#linear-gradient-11"/>
    <linearGradient id="linear-gradient-35" x1="913" y1="1208" x2="913" y2="1188" xlink:href="#linear-gradient-11"/>
    <linearGradient id="linear-gradient-36" x1="869" y1="1184" x2="869" y2="1164" xlink:href="#linear-gradient-11"/>
    <linearGradient id="linear-gradient-37" x1="941" y1="1160" x2="941" y2="1140" xlink:href="#linear-gradient-11"/>
    <linearGradient id="linear-gradient-38" x1="991" y1="1138" x2="991" y2="1118" xlink:href="#linear-gradient-11"/>
    <linearGradient id="linear-gradient-39" x1="1014" y1="1146" x2="1014" y2="1126" xlink:href="#linear-gradient-11"/>
    <linearGradient id="linear-gradient-40" x1="971" y1="1170" x2="971" y2="1150" xlink:href="#linear-gradient-11"/>
    <linearGradient id="linear-gradient-41" x1="1033" y1="1127" x2="1033" y2="1107" xlink:href="#linear-gradient-11"/>
    <linearGradient id="linear-gradient-42" x1="1074" y1="1184" x2="1074" y2="1164" xlink:href="#linear-gradient-11"/>
    <linearGradient id="linear-gradient-43" x1="1094" y1="1164" x2="1094" y2="1144" xlink:href="#linear-gradient-11"/>
    <linearGradient id="linear-gradient-44" x1="1109" y1="1193" x2="1109" y2="1173" xlink:href="#linear-gradient-11"/>
    <linearGradient id="linear-gradient-45" x1="1043" y1="1208" x2="1043" y2="1188" xlink:href="#linear-gradient-11"/>
    <linearGradient id="linear-gradient-46" x1="1064" y1="1245" x2="1064" y2="1225" xlink:href="#linear-gradient-11"/>
    <linearGradient id="linear-gradient-47" x1="1029" y1="1265" x2="1029" y2="1245" xlink:href="#linear-gradient-11"/>
    <linearGradient id="linear-gradient-48" x1="1004" y1="1229" x2="1004" y2="1209" xlink:href="#linear-gradient-11"/>
    <linearGradient id="linear-gradient-49" x1="967" y1="1255" x2="967" y2="1235" xlink:href="#linear-gradient-11"/>
    <linearGradient id="linear-gradient-50" x1="844" y1="1235" x2="844" y2="1215" xlink:href="#linear-gradient-11"/>
    <linearGradient id="linear-gradient-51" x1="879" y1="1242" x2="879" y2="1222" xlink:href="#linear-gradient-11"/>
    <linearGradient id="linear-gradient-52" x1="854" y1="1209" x2="854" y2="1189" xlink:href="#linear-gradient-11"/>
    <linearGradient id="linear-gradient-53" x1="921" y1="1270" x2="921" y2="1250" xlink:href="#linear-gradient-11"/>
    <linearGradient id="linear-gradient-54" x1="1040" y1="1111" x2="1040" y2="1091" xlink:href="#linear-gradient-11"/>
    <linearGradient id="linear-gradient-55" x1="1074" y1="1110" x2="1074" y2="1090" xlink:href="#linear-gradient-11"/>
    <linearGradient id="linear-gradient-56" x1="1129" y1="1135" x2="1129" y2="1105" xlink:href="#linear-gradient-11"/>
    <linearGradient id="linear-gradient-57" x1="1001" y1="1260" x2="1001" y2="1230" xlink:href="#linear-gradient-11"/>
    <linearGradient id="linear-gradient-58" x1="1053" y1="1138" x2="1053" y2="1108" xlink:href="#linear-gradient-11"/>
    <linearGradient id="linear-gradient-59" x1="815" y1="1149" x2="815" y2="1119" xlink:href="#linear-gradient-11"/>
    <linearGradient id="linear-gradient-60" x1="868" y1="1150" x2="868" y2="1130" xlink:href="#linear-gradient-11"/>
    <linearGradient id="linear-gradient-61" x1="810" y1="1174" x2="810" y2="1154" xlink:href="#linear-gradient-11"/>
    <linearGradient id="linear-gradient-62" x1="819.54" y1="1146.93" x2="819.54" y2="1137.38" xlink:href="#linear-gradient-11"/>
    <linearGradient id="linear-gradient-63" x1="868.95" y1="1123.89" x2="868.95" y2="1114.33" xlink:href="#linear-gradient-11"/>
    <linearGradient id="linear-gradient-64" x1="848.76" y1="1168.82" x2="848.76" y2="1159.27" xlink:href="#linear-gradient-11"/>
    <linearGradient id="linear-gradient-65" x1="815.04" y1="1192.6" x2="815.04" y2="1183.04" xlink:href="#linear-gradient-11"/>
    <linearGradient id="linear-gradient-66" x1="961.97" y1="1274.82" x2="961.97" y2="1265.27" xlink:href="#linear-gradient-11"/>
    <linearGradient id="linear-gradient-67" x1="885.73" y1="1169.04" x2="885.73" y2="1159.49" xlink:href="#linear-gradient-11"/>
    <linearGradient id="linear-gradient-68" x1="873.51" y1="1203.38" x2="873.51" y2="1193.82" xlink:href="#linear-gradient-11"/>
    <linearGradient id="linear-gradient-69" x1="1068.47" y1="1104.56" x2="1068.47" y2="1095" gradientTransform="translate(547.78 -242.22) rotate(23.68)" xlink:href="#linear-gradient-11"/>
    <linearGradient id="linear-gradient-70" x1="1028.88" y1="1230.44" x2="1028.88" y2="1220.89" xlink:href="#linear-gradient-11"/>
    <linearGradient id="linear-gradient-71" x1="912.77" y1="1134.93" x2="912.77" y2="1125.38" xlink:href="#linear-gradient-11"/>
    <linearGradient id="linear-gradient-72" x1="920.76" y1="1160.76" x2="920.76" y2="1151.2" xlink:href="#linear-gradient-11"/>
    <linearGradient id="linear-gradient-73" x1="988.22" y1="1265.22" x2="988.22" y2="1255.67" xlink:href="#linear-gradient-11"/>
    <linearGradient id="linear-gradient-74" x1="934.84" y1="1168.68" x2="934.84" y2="1159.12" xlink:href="#linear-gradient-11"/>
    <linearGradient id="linear-gradient-75" x1="982.43" y1="1225.91" x2="982.43" y2="1216.36" xlink:href="#linear-gradient-11"/>
    <linearGradient id="linear-gradient-76" x1="996.98" y1="1148.36" x2="996.98" y2="1138.8" xlink:href="#linear-gradient-11"/>
    <linearGradient id="linear-gradient-77" x1="978.15" y1="1191.21" x2="978.15" y2="1181.66" xlink:href="#linear-gradient-11"/>
    <linearGradient id="linear-gradient-78" x1="1012.62" y1="1111.38" x2="1012.62" y2="1101.82" xlink:href="#linear-gradient-11"/>
    <linearGradient id="linear-gradient-79" x1="956.65" y1="1216.06" x2="956.65" y2="1206.5" xlink:href="#linear-gradient-11"/>
    <linearGradient id="linear-gradient-80" x1="939.93" y1="1225.61" x2="939.93" y2="1216.06" xlink:href="#linear-gradient-11"/>
    <linearGradient id="linear-gradient-81" x1="927.98" y1="1208.41" x2="927.98" y2="1198.86" xlink:href="#linear-gradient-11"/>
    <linearGradient id="linear-gradient-82" x1="910.31" y1="1220.83" x2="910.31" y2="1211.28" xlink:href="#linear-gradient-11"/>
    <linearGradient id="linear-gradient-83" x1="830.54" y1="1214.28" x2="830.54" y2="1204.72" xlink:href="#linear-gradient-11"/>
    <linearGradient id="linear-gradient-84" x1="859.26" y1="1243.62" x2="859.26" y2="1234.07" xlink:href="#linear-gradient-11"/>
    <linearGradient id="linear-gradient-85" x1="1074.32" y1="1219.86" x2="1074.32" y2="1210.3" xlink:href="#linear-gradient-11"/>
    <linearGradient id="linear-gradient-86" x1="943.33" y1="1265" x2="943.33" y2="1255.44" xlink:href="#linear-gradient-11"/>
    <linearGradient id="linear-gradient-87" x1="960.18" y1="1135.03" x2="960.18" y2="1125.48" xlink:href="#linear-gradient-11"/>
    <linearGradient id="linear-gradient-88" x1="973.43" y1="1146.56" x2="973.43" y2="1137" xlink:href="#linear-gradient-11"/>
    <linearGradient id="linear-gradient-89" x1="987.71" y1="1161.11" x2="987.71" y2="1151.56" xlink:href="#linear-gradient-11"/>
    <linearGradient id="linear-gradient-90" x1="852.01" y1="1150.67" x2="852.01" y2="1141.11" xlink:href="#linear-gradient-11"/>
    <linearGradient id="linear-gradient-91" x1="1050.29" y1="1182.13" x2="1050.29" y2="1172.58" xlink:href="#linear-gradient-11"/>
  </defs>
  <g class="cls-98">
    <g id="Layer_2" data-name="Layer 2">
      <g id="Layer_3" data-name="Layer 3">
        <rect class="cls-103" x=".5" y=".5" width="1920" height="2198"/>
      </g>
      <g id="Background" class="cls-84">
        <g>
          <rect class="cls-100" x="1.5" y="1.5" width="1919" height="2197"/>
          <path d="m1920,2v2196H2V2h1918m1-1H1v2198h1920V1h0Z"/>
        </g>
        <g class="cls-99">
          <circle class="cls-101" cx="961" cy="1100" r="540"/>
        </g>
      </g>
      <g id="Layer_2-2" data-name="Layer 2">
        <path class="cls-76" d="m961,902c-109.35,0-198,88.65-198,198s88.65,198,198,198,198-88.65,198-198-88.65-198-198-198Zm0,381c-100.91,0-183-82.09-183-183s82.09-183,183-183,183,82.09,183,183-82.09,183-183,183Z"/>
        <circle class="cls-92" cx="639" cy="846" r="76"/>
        <circle class="cls-90" cx="639" cy="846" r="64"/>
        <circle class="cls-77" cx="639" cy="846" r="52"/>
        <circle class="cls-72" cx="639" cy="846" r="40"/>
        <circle class="cls-83" cx="1309" cy="1341" r="49"/>
        <circle class="cls-80" cx="1309" cy="1341" r="37"/>
        <circle class="cls-85" cx="1309" cy="1341" r="25"/>
        <circle class="cls-62" cx="1290" cy="910" r="20"/>
        <circle class="cls-15" cx="635" cy="1298" r="20"/>
        <circle class="cls-94" cx="1421" cy="1077" r="10"/>
        <circle class="cls-78" cx="961" cy="782" r="10"/>
        <circle class="cls-74" cx="873" cy="1390" r="10"/>
        <circle class="cls-88" cx="873" cy="1077" r="10"/>
        <circle class="cls-82" cx="1029" cy="1041" r="10"/>
        <circle class="cls-93" cx="563" cy="1077" r="10"/>
        <g class="cls-86">
          <path class="cls-102" d="m419.57,943.09l-.71-8.91c-.03-.43-.35-.79-.78-.87l-8.77-1.72c-1.1-.22-1.01-1.83.11-1.92l8.91-.71c.43-.03.79-.35.87-.78l1.72-8.77c.22-1.1,1.83-1.01,1.92.11l.71,8.91c.03.43.35.79.78.87l8.77,1.72c1.1.22,1.01,1.83-.11,1.92l-8.91.71c-.43.03-.79.35-.87.78l-1.72,8.77c-.22,1.1-1.83,1.01-1.92-.11Z"/>
        </g>
        <g class="cls-86">
          <path class="cls-102" d="m958.2,856.37l-1.12-14.02c-.05-.68-.56-1.24-1.23-1.38l-13.8-2.71c-1.74-.34-1.59-2.88.17-3.02l14.02-1.12c.68-.05,1.24-.56,1.38-1.23l2.71-13.8c.34-1.74,2.88-1.59,3.02.17l1.12,14.02c.05.68.56,1.24,1.23,1.38l13.8,2.71c1.74.34,1.59,2.88-.17,3.02l-14.02,1.12c-.68.05-1.24.56-1.38,1.23l-2.71,13.8c-.34,1.74-2.88,1.59-3.02-.17Z"/>
        </g>
        <g class="cls-86">
          <path class="cls-102" d="m1251.9,1135.11l-.91-11.42c-.04-.55-.45-1.01-1-1.12l-11.24-2.21c-1.42-.28-1.3-2.34.14-2.46l11.42-.91c.55-.04,1.01-.45,1.12-1l2.21-11.24c.28-1.42,2.34-1.3,2.46.14l.91,11.42c.04.55.45,1.01,1,1.12l11.24,2.21c1.42.28,1.3,2.34-.14,2.46l-11.42.91c-.55.04-1.01.45-1.12,1l-2.21,11.24c-.28,1.42-2.34,1.3-2.46-.14Z"/>
        </g>
        <g class="cls-86">
          <path class="cls-102" d="m753.1,1441.93l-1.55-19.46c-.08-.95-.77-1.73-1.7-1.91l-19.15-3.77c-2.41-.47-2.21-3.99.24-4.19l19.46-1.55c.95-.08,1.73-.77,1.91-1.7l3.77-19.15c.47-2.41,3.99-2.21,4.19.24l1.55,19.46c.08.95.77,1.73,1.7,1.91l19.15,3.77c2.41.47,2.21,3.99-.24,4.19l-19.46,1.55c-.95.08-1.73.77-1.91,1.7l-3.77,19.15c-.47,2.41-3.99,2.21-4.19-.24Z"/>
        </g>
        <g class="cls-86">
          <path class="cls-102" d="m1284.98,1538.09l-2.3-19.43c-.11-.94-.83-1.75-1.75-1.97l-19.04-4.51c-2.4-.57-2.34-4.06.07-4.16l19.13-.77c.93-.04,1.67-.7,1.81-1.62l2.95-18.91c.37-2.38,3.85-2.04,4.14.41l2.3,19.43c.11.94.83,1.75,1.75,1.97l19.04,4.51c2.4.57,2.34,4.06-.07,4.16l-19.13.77c-.93.04-1.67.7-1.81,1.62l-2.95,18.91c-.37,2.38-3.85,2.04-4.14-.41Z"/>
        </g>
        <g class="cls-86">
          <path class="cls-102" d="m678.44,1059.81c-2.93,2.93-7.68,2.93-10.61,0s-2.93-7.68,0-10.61,47.73-37.12,47.73-37.12c0,0-34.19,44.8-37.12,47.73Z"/>
        </g>
        <g class="cls-86">
          <path class="cls-102" d="m849.58,781.23c-4.79,4.79-12.55,4.79-17.33,0s-4.79-12.55,0-17.33,77.99-60.66,77.99-60.66c0,0-55.87,73.2-60.66,77.99Z"/>
        </g>
        <g class="cls-86">
          <path class="cls-102" d="m878.97,1352.45c-1.47,1.47-3.84,1.47-5.31,0s-1.47-3.84,0-5.31,23.9-18.59,23.9-18.59c0,0-17.12,22.43-18.59,23.9Z"/>
        </g>
        <g class="cls-86">
          <path class="cls-102" d="m1376.32,1012.23c-1.68,1.68-4.4,1.68-6.07,0s-1.68-4.4,0-6.07,27.33-21.26,27.33-21.26c0,0-19.58,25.65-21.26,27.33Z"/>
        </g>
        <g class="cls-86">
          <path class="cls-102" d="m1152.44,804.81c-2.93,2.93-7.68,2.93-10.61,0-2.93-2.93-2.93-7.68,0-10.61,2.93-2.93,47.73-37.12,47.73-37.12,0,0-34.19,44.8-37.12,47.73Z"/>
        </g>
        <g class="cls-86">
          <path class="cls-102" d="m940.64,1524.73c-2.45,2.45-6.43,2.45-8.89,0s-2.45-6.43,0-8.89,39.99-31.1,39.99-31.1c0,0-28.65,37.53-31.1,39.99Z"/>
        </g>
        <circle id="Base" class="cls-5" cx="961" cy="1100" r="198"/>
        <path class="cls-79" d="m1143.95,1095.94c0-.16-.01-.32-.01-.49-.03-1.25-.07-2.5-.13-3.74,0,0,0-.01,0-.02-.13-2.74-.31-5.47-.56-8.18-31.49-7.08-66.36-6.23-96.99-.26-8.1,1.58-15.9,3.51-23.26,5.75-30.16,9.18-46.02,21.37-62.46,33.04-10.61,7.53-21.45,14.83-36.54,20.96-31.65,12.86-76.71,18.43-141.65-3.33.15.66.3,1.32.45,1.98.12.5.23,1,.35,1.5.19.78.39,1.55.59,2.32.13.49.25.99.38,1.48.2.77.42,1.53.63,2.3.14.49.27.98.41,1.47.22.76.45,1.52.68,2.28.15.48.29.97.44,1.45.24.76.49,1.52.73,2.27.16.48.31.95.47,1.43.25.76.52,1.51.78,2.26.16.47.32.94.49,1.41.27.75.55,1.49.83,2.24.17.46.34.93.52,1.39.29.74.58,1.48.88,2.22.18.46.36.92.55,1.38.3.73.61,1.46.92,2.19.19.46.38.91.58,1.37.32.73.64,1.45.97,2.17.2.45.4.9.6,1.35.33.72.67,1.43,1.01,2.15.21.44.42.89.63,1.33.34.71.7,1.41,1.05,2.11.22.44.44.89.66,1.33.36.7.73,1.4,1.1,2.1.23.43.45.87.68,1.3.37.7.76,1.39,1.14,2.08.24.43.47.86.71,1.28.39.69.79,1.36,1.18,2.04.25.42.49.85.74,1.27.4.68.81,1.35,1.23,2.02.25.42.5.83.76,1.25.41.67.84,1.33,1.26,1.99.26.41.52.83.79,1.24.43.66.87,1.31,1.3,1.96.27.41.54.82.82,1.22.44.65.89,1.28,1.34,1.92.28.4.56.81.85,1.21.45.63.91,1.26,1.37,1.88.29.4.58.81.88,1.2.46.62.94,1.24,1.41,1.85.3.39.6.79.9,1.18.48.61.96,1.22,1.45,1.83.31.39.61.78.92,1.16.49.6.98,1.19,1.47,1.78.32.38.63.77.96,1.15.5.59,1,1.17,1.51,1.75.33.38.65.76.98,1.13.51.58,1.03,1.15,1.54,1.72.33.37.66.74,1,1.11.52.57,1.05,1.12,1.58,1.68.34.36.68.73,1.03,1.09.53.55,1.07,1.1,1.61,1.65.35.36.7.72,1.05,1.08.54.54,1.09,1.07,1.63,1.6.36.35.72.71,1.08,1.06.55.53,1.1,1.04,1.65,1.56.37.35.74.7,1.12,1.05.55.51,1.12,1.02,1.68,1.52.38.34.76.69,1.14,1.03.56.5,1.13.98,1.69,1.47.4.34.79.69,1.19,1.03.57.48,1.14.95,1.71,1.42.41.34.81.68,1.22,1.01.58.47,1.16.93,1.75,1.4.41.33.82.66,1.23.98.59.46,1.18.9,1.77,1.35.42.32.84.64,1.26.96.59.44,1.18.87,1.77,1.3.44.32.87.64,1.31.96.59.43,1.2.84,1.8,1.26.44.31.88.62,1.33.93.61.41,1.22.82,1.83,1.23.45.3.89.6,1.34.9.61.4,1.23.79,1.85,1.18.46.29.91.59,1.37.88.62.39,1.24.76,1.87,1.14.47.28.93.57,1.4.85.62.37,1.25.73,1.88,1.1.48.28.95.56,1.43.83.63.36,1.26.7,1.89,1.05.49.27.97.54,1.46.81.63.34,1.27.67,1.91,1.01.5.26.99.53,1.49.78.64.33,1.3.65,1.94.98.5.25.99.5,1.49.75.65.32,1.3.62,1.96.93.51.24,1.01.49,1.52.72.66.3,1.32.59,1.98.89.51.23,1.02.47,1.54.69.66.29,1.32.56,1.99.84.52.22,1.04.45,1.57.66.65.27,1.3.52,1.96.78.55.22,1.09.44,1.64.65.65.25,1.31.49,1.97.74.55.21,1.1.42,1.66.62.66.24,1.33.47,2,.7.55.19,1.11.39,1.66.58.68.23,1.36.45,2.04.67.55.18,1.1.37,1.66.54.69.22,1.38.42,2.08.63.55.17,1.1.34,1.66.5.69.2,1.38.39,2.07.58.57.16,1.13.32,1.7.48.68.18,1.37.35,2.05.53.58.15,1.16.3,1.75.45.68.17,1.37.32,2.06.48.59.14,1.18.28,1.77.41.69.15,1.38.29,2.07.44.6.13,1.19.26,1.79.38.69.14,1.38.26,2.08.39.6.11,1.21.23,1.81.34.72.13,1.44.24,2.16.36.58.1,1.17.2,1.75.29.74.11,1.48.21,2.21.32.58.08,1.15.17,1.73.25.74.1,1.48.18,2.22.27.58.07,1.17.15,1.75.21.74.08,1.49.15,2.23.22.59.06,1.17.12,1.76.17.74.07,1.49.12,2.24.17.59.05,1.19.1,1.78.14.8.05,1.6.09,2.41.13.55.03,1.09.07,1.63.09.83.04,1.66.06,2.49.08.52.02,1.05.04,1.57.05,1.36.03,2.72.04,4.08.04,100.91,0,183-82.09,183-183,0-1.36-.02-2.71-.05-4.06Z"/>
        <path class="cls-81" d="m1140.6,1135.14c-33.11-2.21-78.8.1-124.6,20.86-46.96,21.29-46.8,40.58-83,54-48.13,17.85-92.36.06-130.65-18.87,31.63,54.86,90.9,91.87,158.65,91.87,88.89,0,163.17-63.71,179.6-147.86Z"/>
        <path class="cls-89" d="m924,1143c15.08-6.13,25.93-13.44,36.54-20.96-9.51.89-18.71-.21-27.54-4.04-7.2-3.12-13.67-7.84-28-12-3.08-.89-43.19-12.03-80,2-16.41,6.26-30.94,17.06-42.79,31.08.04.2.09.39.14.59,64.94,21.76,110,16.19,141.65,3.33Z"/>
        <circle class="cls-95" cx="1129" cy="1283" r="100"/>
        <path class="cls-96" d="m1011.2,924c44.19,33.44,72.8,86.44,72.8,146,0,100.91-82.09,183-183,183-17.4,0-34.24-2.44-50.2-7,30.68,23.21,68.86,37,110.2,37,100.91,0,183-82.09,183-183,0-83.5-56.22-154.12-132.8-176Z"/>
        <circle id="Low_Yellow" data-name="Low Yellow" class="cls-4" cx="961" cy="1100" r="183"/>
        <circle id="Shine" class="cls-75" cx="961" cy="1100" r="198"/>
        <g class="cls-106">
          <path class="cls-87" d="m1285.03,877.7c-31.67-45.23-201.64,19.15-379.63,143.78-178,124.64-296.62,262.34-264.95,307.56,31.67,45.23,201.64-19.15,379.63-143.78,178-124.64,296.62-262.34,264.95-307.56Zm-274.51,293.91c-167.83,117.51-325.27,182.22-351.66,144.53-26.39-37.69,88.27-163.51,256.09-281.02,167.83-117.51,325.27-182.22,351.66-144.53,26.39,37.69-88.27,163.51-256.09,281.02Z"/>
        </g>
        <g class="cls-105">
          <path class="cls-73" d="m1309.88,921.4c-31.67-45.23-201.64,19.15-379.63,143.78-178,124.64-296.62,262.34-264.95,307.56,31.67,45.23,201.64-19.15,379.63-143.78,178-124.64,296.62-262.34,264.95-307.56Zm-274.51,293.91c-167.83,117.51-325.27,182.22-351.66,144.53-26.39-37.69,88.27-163.51,256.09-281.02,167.83-117.51,325.27-182.22,351.66-144.53,26.39,37.69-88.27,163.51-256.09,281.02Z"/>
        </g>
        <g class="cls-97">
          <path class="cls-37" d="m1285.03,877.7c-31.67-45.23-201.64,19.15-379.63,143.78-178,124.64-296.62,262.34-264.95,307.56,31.67,45.23,201.64-19.15,379.63-143.78,178-124.64,296.62-262.34,264.95-307.56Zm-274.51,293.91c-167.83,117.51-325.27,182.22-351.66,144.53-26.39-37.69,88.27-163.51,256.09-281.02,167.83-117.51,325.27-182.22,351.66-144.53,26.39,37.69-88.27,163.51-256.09,281.02Z"/>
        </g>
        <path class="cls-91" d="m839.49,1024.68c5.57-8.96,12.11-17.25,19.45-24.75"/>
        <path class="cls-91" d="m873.38,987.06c19.93-15.5,44.05-25.84,70.35-29.02"/>
        <g class="cls-84">
          <circle class="cls-61" cx="844" cy="1128" r="10"/>
          <circle class="cls-18" cx="893" cy="1130" r="10"/>
          <circle class="cls-70" cx="834" cy="1178" r="10"/>
          <circle class="cls-58" cx="889" cy="1188" r="10"/>
          <circle class="cls-11" cx="937" cy="1178" r="10"/>
          <circle class="cls-21" cx="903" cy="1168" r="10"/>
          <circle class="cls-57" cx="913" cy="1198" r="10"/>
          <circle class="cls-35" cx="869" cy="1174" r="10"/>
          <circle class="cls-23" cx="941" cy="1150" r="10"/>
          <circle class="cls-28" cx="991" cy="1128" r="10"/>
          <circle class="cls-63" cx="1014" cy="1136" r="10"/>
          <circle class="cls-50" cx="971" cy="1160" r="10"/>
          <circle class="cls-65" cx="1033" cy="1117" r="10"/>
          <circle class="cls-44" cx="1074" cy="1174" r="10"/>
          <circle class="cls-42" cx="1094" cy="1154" r="10"/>
          <circle class="cls-36" cx="1109" cy="1183" r="10"/>
          <circle class="cls-16" cx="1043" cy="1198" r="10"/>
          <circle class="cls-45" cx="1064" cy="1235" r="10"/>
          <circle class="cls-31" cx="1029" cy="1255" r="10"/>
          <circle class="cls-25" cx="1004" cy="1219" r="10"/>
          <circle class="cls-56" cx="967" cy="1245" r="10"/>
          <circle class="cls-67" cx="844" cy="1225" r="10"/>
          <circle class="cls-32" cx="879" cy="1232" r="10"/>
          <circle class="cls-9" cx="854" cy="1199" r="10"/>
          <circle class="cls-8" cx="921" cy="1260" r="10"/>
          <circle class="cls-12" cx="1040" cy="1101" r="10"/>
          <circle class="cls-38" cx="1074" cy="1100" r="10"/>
          <circle class="cls-33" cx="1129" cy="1120" r="15"/>
          <circle class="cls-46" cx="1001" cy="1245" r="15"/>
          <circle class="cls-51" cx="1053" cy="1123" r="15"/>
          <circle class="cls-7" cx="815" cy="1134" r="15"/>
          <circle class="cls-43" cx="868" cy="1140" r="10"/>
          <circle class="cls-30" cx="810" cy="1164" r="10"/>
          <circle class="cls-47" cx="819.54" cy="1142.16" r="4.78"/>
          <circle class="cls-60" cx="868.95" cy="1119.11" r="4.78"/>
          <circle class="cls-71" cx="848.76" cy="1164.04" r="4.78"/>
          <circle class="cls-14" cx="815.04" cy="1187.82" r="4.78"/>
          <circle class="cls-66" cx="961.97" cy="1270.04" r="4.78"/>
          <circle class="cls-19" cx="885.73" cy="1164.27" r="4.78"/>
          <circle class="cls-41" cx="873.51" cy="1198.6" r="4.78"/>
          <circle class="cls-64" cx="1084.48" cy="1194.13" r="4.78"/>
          <circle class="cls-34" cx="1028.88" cy="1225.67" r="4.78"/>
          <circle class="cls-13" cx="912.77" cy="1130.16" r="4.78"/>
          <circle class="cls-68" cx="920.76" cy="1155.98" r="4.78"/>
          <circle class="cls-54" cx="988.22" cy="1260.44" r="4.78"/>
          <circle class="cls-26" cx="934.84" cy="1163.9" r="4.78"/>
          <circle class="cls-17" cx="982.43" cy="1221.13" r="4.78"/>
          <circle class="cls-53" cx="996.98" cy="1143.58" r="4.78"/>
          <circle class="cls-59" cx="978.15" cy="1186.43" r="4.78"/>
          <circle class="cls-49" cx="1012.62" cy="1106.6" r="4.78"/>
          <circle class="cls-55" cx="956.65" cy="1211.28" r="4.78"/>
          <circle class="cls-48" cx="939.93" cy="1220.83" r="4.78"/>
          <circle class="cls-29" cx="927.98" cy="1203.63" r="4.78"/>
          <circle class="cls-6" cx="910.31" cy="1216.06" r="4.78"/>
          <circle class="cls-52" cx="830.54" cy="1209.5" r="4.78"/>
          <circle class="cls-69" cx="859.26" cy="1238.84" r="4.78"/>
          <circle class="cls-24" cx="1074.32" cy="1215.08" r="4.78"/>
          <circle class="cls-22" cx="943.33" cy="1260.22" r="4.78"/>
          <circle class="cls-27" cx="960.18" cy="1130.26" r="4.78"/>
          <circle class="cls-10" cx="973.43" cy="1141.78" r="4.78"/>
          <circle class="cls-39" cx="987.71" cy="1156.33" r="4.78"/>
          <circle class="cls-40" cx="852.01" cy="1145.89" r="4.78"/>
          <circle class="cls-20" cx="1050.29" cy="1177.36" r="4.78"/>
        </g>
      </g>
    </g>
  </g>
</svg>