<?xml version="1.0" encoding="UTF-8"?>
<svg id="Layer_2" data-name="Layer 2" xmlns="http://www.w3.org/2000/svg" xmlns:xlink="http://www.w3.org/1999/xlink" viewBox="0 0 96.39 43.88">
  <defs>
    <style>
      .cls-1 {
        fill: #fff;
      }

      .cls-2 {
        fill: url(#New_Gradient_Swatch_copy_2);
      }

      .cls-3 {
        fill: none;
        stroke: #000;
        stroke-miterlimit: 10;
        stroke-width: .25px;
      }
    </style>
    <linearGradient id="New_Gradient_Swatch_copy_2" data-name="New Gradient Swatch copy 2" x1="29.18" y1="-11.82" x2="67.21" y2="55.7" gradientUnits="userSpaceOnUse">
      <stop offset="0" stop-color="#8cc63f"/>
      <stop offset=".49" stop-color="#39b54a"/>
      <stop offset="1" stop-color="#006837"/>
    </linearGradient>
  </defs>
  <g id="UI_elements" data-name="UI elements">
    <g id="Green_button" data-name="Green button">
      <rect class="cls-2" x="2.14" y="2.32" width="92.1" height="39.23" rx="2.6" ry="2.6"/>
      <g id="Highlight">
        <ellipse class="cls-1" cx="6.84" cy="9.61" rx="1.97" ry=".86" transform="translate(-4.57 6.65) rotate(-40.01)"/>
        <ellipse class="cls-1" cx="12.09" cy="6.55" rx="2.88" ry="1.31" transform="translate(-1.31 3.46) rotate(-15.45)"/>
      </g>
      <path class="cls-3" d="m.12,2.37v39.14c0,1.24,1,2.24,2.24,2.24h91.65c1.24,0,2.24-1,2.24-2.24V2.37c0-1.24-1-2.24-2.24-2.24H2.37C1.13.12.12,1.13.12,2.37Zm91.73,39.36H4.54c-1.32,0-2.39-1.1-2.39-2.45V4.59c0-1.35,1.07-2.45,2.39-2.45h87.32c1.32,0,2.39,1.1,2.39,2.45v34.69c0,1.35-1.07,2.45-2.39,2.45Z"/>
      <g>
        <path class="cls-1" d="m24.11,20.17h-3.42c0-.71-.84-1.68-2.31-1.68-1.03,0-2.29.46-2.29,1.28,0,.69.94.97,2.96,1.49,2.25.59,5.42,1.34,5.42,4.49,0,2.73-2.39,4.43-5.73,4.43-4.47,0-6.34-3.02-6.34-5.25h3.42s.27,2.27,3.11,2.27c1.53,0,2.1-.65,2.1-1.26,0-.9-1.2-1.22-2.52-1.53-2.14-.5-5.9-1.3-5.9-4.47,0-2.6,2.56-4.54,5.82-4.54,3.72,0,5.69,2.54,5.69,4.77Z"/>
        <path class="cls-1" d="m39.13,18.85h-5.06v11.09h-3.49v-11.09h-5.06v-3.19h13.61v3.19Z"/>
        <path class="cls-1" d="m49.18,27.71h-6.89l-.94,2.23h-3.65l6.11-14.28h3.84l6.13,14.28h-3.67l-.92-2.23Zm-1.2-2.81l-2.23-5.33-2.27,5.33h4.49Z"/>
        <path class="cls-1" d="m68.11,21.01c0,2.06-1.01,3.8-2.54,4.62l2.94,4.3h-4.28l-2.14-3.55h-2.52v3.55h-3.44v-14.28h6.91c2.9,0,5.08,2.25,5.08,5.35Zm-8.55-2.16v4.35h2.96c1.18,0,2.12-.99,2.12-2.18s-.94-2.16-2.1-2.16h-2.98Z"/>
        <path class="cls-1" d="m82.89,18.85h-5.06v11.09h-3.49v-11.09h-5.06v-3.19h13.61v3.19Z"/>
      </g>
    </g>
  </g>
</svg>